<?xml version="1.0" encoding="UTF-8"?>
<svg xmlns="http://www.w3.org/2000/svg" width="6360" height="4200" viewBox="0 0 6360 4200" role="img">
  <defs>
    <style>text { font-family: 'Segoe UI', Ubuntu, sans-serif; fill: #94a3b8; font-size: 14px; }</style>
    <linearGradient id="bg-gradient" x1="0%" y1="0%" x2="0%" y2="100%">
      <stop offset="0%" style="stop-color:#0f172a;stop-opacity:1" />
      <stop offset="100%" style="stop-color:#1e1b4b;stop-opacity:1" />
    </linearGradient>
  </defs>
  <rect width="100%" height="100%" fill="url(#bg-gradient)" />
  
  <g transform="translate(0,20)">
    <polygon points="765.0,60.0 870.0,125.0 765.0,190.0 660.0,125.0" fill="none" stroke="#2d3748" stroke-width="0.5"/>
    <polygon points="660.0,125.0 765.0,190.0 660.0,255.0 555.0,190.0" fill="none" stroke="#2d3748" stroke-width="0.5"/>
    <polygon points="870.0,125.0 975.0,190.0 870.0,255.0 765.0,190.0" fill="none" stroke="#2d3748" stroke-width="0.5"/>
    <polygon points="555.0,190.0 660.0,255.0 555.0,320.0 450.0,255.0" fill="none" stroke="#2d3748" stroke-width="0.5"/>
    <polygon points="765.0,190.0 870.0,255.0 765.0,320.0 660.0,255.0" fill="none" stroke="#2d3748" stroke-width="0.5"/>
    <polygon points="975.0,190.0 1080.0,255.0 975.0,320.0 870.0,255.0" fill="none" stroke="#2d3748" stroke-width="0.5"/>
    <polygon points="450.0,255.0 555.0,320.0 450.0,385.0 345.0,320.0" fill="none" stroke="#2d3748" stroke-width="0.5"/>
    <polygon points="660.0,255.0 765.0,320.0 660.0,385.0 555.0,320.0" fill="none" stroke="#2d3748" stroke-width="0.5"/>
    <polygon points="870.0,255.0 975.0,320.0 870.0,385.0 765.0,320.0" fill="none" stroke="#2d3748" stroke-width="0.5"/>
    <polygon points="1080.0,255.0 1185.0,320.0 1080.0,385.0 975.0,320.0" fill="none" stroke="#2d3748" stroke-width="0.5"/>
    <polygon points="555.0,320.0 660.0,385.0 555.0,450.0 450.0,385.0" fill="none" stroke="#2d3748" stroke-width="0.5"/>
    <polygon points="765.0,320.0 870.0,385.0 765.0,450.0 660.0,385.0" fill="none" stroke="#2d3748" stroke-width="0.5"/>
    <polygon points="975.0,320.0 1080.0,385.0 975.0,450.0 870.0,385.0" fill="none" stroke="#2d3748" stroke-width="0.5"/>
    <polygon points="1185.0,320.0 1290.0,385.0 1185.0,450.0 1080.0,385.0" fill="none" stroke="#2d3748" stroke-width="0.5"/>
    <polygon points="450.0,385.0 555.0,450.0 450.0,515.0 345.0,450.0" fill="none" stroke="#2d3748" stroke-width="0.5"/>
    <polygon points="660.0,385.0 765.0,450.0 660.0,515.0 555.0,450.0" fill="none" stroke="#2d3748" stroke-width="0.5"/>
    <polygon points="870.0,385.0 975.0,450.0 870.0,515.0 765.0,450.0" fill="none" stroke="#2d3748" stroke-width="0.5"/>
    <polygon points="1080.0,385.0 1185.0,450.0 1080.0,515.0 975.0,450.0" fill="none" stroke="#2d3748" stroke-width="0.5"/>
    <polygon points="1290.0,385.0 1395.0,450.0 1290.0,515.0 1185.0,450.0" fill="none" stroke="#2d3748" stroke-width="0.5"/>
    <polygon points="345.0,450.0 450.0,515.0 345.0,580.0 240.0,515.0" fill="none" stroke="#2d3748" stroke-width="0.5"/>
    <polygon points="555.0,450.0 660.0,515.0 555.0,580.0 450.0,515.0" fill="none" stroke="#2d3748" stroke-width="0.5"/>
    <polygon points="765.0,450.0 870.0,515.0 765.0,580.0 660.0,515.0" fill="none" stroke="#2d3748" stroke-width="0.5"/>
    <polygon points="975.0,450.0 1080.0,515.0 975.0,580.0 870.0,515.0" fill="none" stroke="#2d3748" stroke-width="0.5"/>
    <polygon points="1185.0,450.0 1290.0,515.0 1185.0,580.0 1080.0,515.0" fill="none" stroke="#2d3748" stroke-width="0.5"/>
    <polygon points="1395.0,450.0 1500.0,515.0 1395.0,580.0 1290.0,515.0" fill="none" stroke="#2d3748" stroke-width="0.5"/>
    <polygon points="240.0,515.0 345.0,580.0 240.0,645.0 135.0,580.0" fill="none" stroke="#2d3748" stroke-width="0.5"/>
    <polygon points="450.0,515.0 555.0,580.0 450.0,645.0 345.0,580.0" fill="none" stroke="#2d3748" stroke-width="0.5"/>
    <polygon points="660.0,515.0 765.0,580.0 660.0,645.0 555.0,580.0" fill="none" stroke="#2d3748" stroke-width="0.5"/>
    <polygon points="870.0,515.0 975.0,580.0 870.0,645.0 765.0,580.0" fill="none" stroke="#2d3748" stroke-width="0.5"/>
    <polygon points="1080.0,515.0 1185.0,580.0 1080.0,645.0 975.0,580.0" fill="none" stroke="#2d3748" stroke-width="0.5"/>
    <polygon points="1290.0,515.0 1395.0,580.0 1290.0,645.0 1185.0,580.0" fill="none" stroke="#2d3748" stroke-width="0.5"/>
    <polygon points="1500.0,515.0 1605.0,580.0 1500.0,645.0 1395.0,580.0" fill="none" stroke="#2d3748" stroke-width="0.5"/>
    <polygon points="345.0,580.0 450.0,645.0 345.0,710.0 240.0,645.0" fill="none" stroke="#2d3748" stroke-width="0.5"/>
    <polygon points="555.0,580.0 660.0,645.0 555.0,710.0 450.0,645.0" fill="none" stroke="#2d3748" stroke-width="0.5"/>
    <polygon points="765.0,580.0 870.0,645.0 765.0,710.0 660.0,645.0" fill="none" stroke="#2d3748" stroke-width="0.5"/>
    <polygon points="975.0,580.0 1080.0,645.0 975.0,710.0 870.0,645.0" fill="none" stroke="#2d3748" stroke-width="0.5"/>
    <polygon points="1185.0,580.0 1290.0,645.0 1185.0,710.0 1080.0,645.0" fill="none" stroke="#2d3748" stroke-width="0.5"/>
    <polygon points="1395.0,580.0 1500.0,645.0 1395.0,710.0 1290.0,645.0" fill="none" stroke="#2d3748" stroke-width="0.5"/>
    <polygon points="1605.0,580.0 1710.0,645.0 1605.0,710.0 1500.0,645.0" fill="none" stroke="#2d3748" stroke-width="0.5"/>
    <polygon points="450.0,645.0 555.0,710.0 450.0,775.0 345.0,710.0" fill="none" stroke="#2d3748" stroke-width="0.5"/>
    <polygon points="660.0,645.0 765.0,710.0 660.0,775.0 555.0,710.0" fill="none" stroke="#2d3748" stroke-width="0.5"/>
    <polygon points="870.0,645.0 975.0,710.0 870.0,775.0 765.0,710.0" fill="none" stroke="#2d3748" stroke-width="0.5"/>
    <polygon points="1080.0,645.0 1185.0,710.0 1080.0,775.0 975.0,710.0" fill="none" stroke="#2d3748" stroke-width="0.5"/>
    <polygon points="1290.0,645.0 1395.0,710.0 1290.0,775.0 1185.0,710.0" fill="none" stroke="#2d3748" stroke-width="0.5"/>
    <polygon points="1500.0,645.0 1605.0,710.0 1500.0,775.0 1395.0,710.0" fill="none" stroke="#2d3748" stroke-width="0.5"/>
    <polygon points="1710.0,645.0 1815.0,710.0 1710.0,775.0 1605.0,710.0" fill="none" stroke="#2d3748" stroke-width="0.5"/>
    <polygon points="555.0,710.0 660.0,775.0 555.0,840.0 450.0,775.0" fill="none" stroke="#2d3748" stroke-width="0.5"/>
    <polygon points="765.0,710.0 870.0,775.0 765.0,840.0 660.0,775.0" fill="none" stroke="#2d3748" stroke-width="0.5"/>
    <polygon points="975.0,710.0 1080.0,775.0 975.0,840.0 870.0,775.0" fill="none" stroke="#2d3748" stroke-width="0.5"/>
    <polygon points="1185.0,710.0 1290.0,775.0 1185.0,840.0 1080.0,775.0" fill="none" stroke="#2d3748" stroke-width="0.5"/>
    <polygon points="1395.0,710.0 1500.0,775.0 1395.0,840.0 1290.0,775.0" fill="none" stroke="#2d3748" stroke-width="0.5"/>
    <polygon points="1605.0,710.0 1710.0,775.0 1605.0,840.0 1500.0,775.0" fill="none" stroke="#2d3748" stroke-width="0.5"/>
    <polygon points="1815.0,710.0 1920.0,775.0 1815.0,840.0 1710.0,775.0" fill="none" stroke="#2d3748" stroke-width="0.5"/>
    <polygon points="660.0,775.0 765.0,840.0 660.0,905.0 555.0,840.0" fill="none" stroke="#2d3748" stroke-width="0.5"/>
    <polygon points="870.0,775.0 975.0,840.0 870.0,905.0 765.0,840.0" fill="none" stroke="#2d3748" stroke-width="0.5"/>
    <polygon points="1080.0,775.0 1185.0,840.0 1080.0,905.0 975.0,840.0" fill="none" stroke="#2d3748" stroke-width="0.5"/>
    <polygon points="1290.0,775.0 1395.0,840.0 1290.0,905.0 1185.0,840.0" fill="none" stroke="#2d3748" stroke-width="0.5"/>
    <polygon points="1500.0,775.0 1605.0,840.0 1500.0,905.0 1395.0,840.0" fill="none" stroke="#2d3748" stroke-width="0.5"/>
    <polygon points="1710.0,775.0 1815.0,840.0 1710.0,905.0 1605.0,840.0" fill="none" stroke="#2d3748" stroke-width="0.5"/>
    <polygon points="1920.0,775.0 2025.0,840.0 1920.0,905.0 1815.0,840.0" fill="none" stroke="#2d3748" stroke-width="0.5"/>
    <polygon points="765.0,840.0 870.0,905.0 765.0,970.0 660.0,905.0" fill="none" stroke="#2d3748" stroke-width="0.5"/>
    <polygon points="975.0,840.0 1080.0,905.0 975.0,970.0 870.0,905.0" fill="none" stroke="#2d3748" stroke-width="0.5"/>
    <polygon points="1185.0,840.0 1290.0,905.0 1185.0,970.0 1080.0,905.0" fill="none" stroke="#2d3748" stroke-width="0.5"/>
    <polygon points="1395.0,840.0 1500.0,905.0 1395.0,970.0 1290.0,905.0" fill="none" stroke="#2d3748" stroke-width="0.5"/>
    <polygon points="1605.0,840.0 1710.0,905.0 1605.0,970.0 1500.0,905.0" fill="none" stroke="#2d3748" stroke-width="0.5"/>
    <polygon points="1815.0,840.0 1920.0,905.0 1815.0,970.0 1710.0,905.0" fill="none" stroke="#2d3748" stroke-width="0.5"/>
    <polygon points="2025.0,840.0 2130.0,905.0 2025.0,970.0 1920.0,905.0" fill="none" stroke="#2d3748" stroke-width="0.5"/>
    <polygon points="870.0,905.0 975.0,970.0 870.0,1035.0 765.0,970.0" fill="none" stroke="#2d3748" stroke-width="0.5"/>
    <polygon points="1080.0,905.0 1185.0,970.0 1080.0,1035.0 975.0,970.0" fill="none" stroke="#2d3748" stroke-width="0.5"/>
    <polygon points="1290.0,905.0 1395.0,970.0 1290.0,1035.0 1185.0,970.0" fill="none" stroke="#2d3748" stroke-width="0.5"/>
    <polygon points="1500.0,905.0 1605.0,970.0 1500.0,1035.0 1395.0,970.0" fill="none" stroke="#2d3748" stroke-width="0.5"/>
    <polygon points="1710.0,905.0 1815.0,970.0 1710.0,1035.0 1605.0,970.0" fill="none" stroke="#2d3748" stroke-width="0.5"/>
    <polygon points="1920.0,905.0 2025.0,970.0 1920.0,1035.0 1815.0,970.0" fill="none" stroke="#2d3748" stroke-width="0.5"/>
    <polygon points="2130.0,905.0 2235.0,970.0 2130.0,1035.0 2025.0,970.0" fill="none" stroke="#2d3748" stroke-width="0.5"/>
    <polygon points="975.0,970.0 1080.0,1035.0 975.0,1100.0 870.0,1035.0" fill="none" stroke="#2d3748" stroke-width="0.5"/>
    <polygon points="1185.0,970.0 1290.0,1035.0 1185.0,1100.0 1080.0,1035.0" fill="none" stroke="#2d3748" stroke-width="0.5"/>
    <polygon points="1395.0,970.0 1500.0,1035.0 1395.0,1100.0 1290.0,1035.0" fill="none" stroke="#2d3748" stroke-width="0.5"/>
    <polygon points="1605.0,970.0 1710.0,1035.0 1605.0,1100.0 1500.0,1035.0" fill="none" stroke="#2d3748" stroke-width="0.5"/>
    <polygon points="1815.0,970.0 1920.0,1035.0 1815.0,1100.0 1710.0,1035.0" fill="none" stroke="#2d3748" stroke-width="0.5"/>
    <polygon points="2025.0,970.0 2130.0,1035.0 2025.0,1100.0 1920.0,1035.0" fill="none" stroke="#2d3748" stroke-width="0.5"/>
    <polygon points="2235.0,970.0 2340.0,1035.0 2235.0,1100.0 2130.0,1035.0" fill="none" stroke="#2d3748" stroke-width="0.5"/>
    <polygon points="1080.0,1035.0 1185.0,1100.0 1080.0,1165.0 975.0,1100.0" fill="none" stroke="#2d3748" stroke-width="0.5"/>
    <polygon points="1290.0,1035.0 1395.0,1100.0 1290.0,1165.0 1185.0,1100.0" fill="none" stroke="#2d3748" stroke-width="0.5"/>
    <polygon points="1500.0,1035.0 1605.0,1100.0 1500.0,1165.0 1395.0,1100.0" fill="none" stroke="#2d3748" stroke-width="0.5"/>
    <polygon points="1710.0,1035.0 1815.0,1100.0 1710.0,1165.0 1605.0,1100.0" fill="none" stroke="#2d3748" stroke-width="0.5"/>
    <polygon points="1920.0,1035.0 2025.0,1100.0 1920.0,1165.0 1815.0,1100.0" fill="none" stroke="#2d3748" stroke-width="0.5"/>
    <polygon points="2130.0,1035.0 2235.0,1100.0 2130.0,1165.0 2025.0,1100.0" fill="none" stroke="#2d3748" stroke-width="0.5"/>
    <polygon points="2340.0,1035.0 2445.0,1100.0 2340.0,1165.0 2235.0,1100.0" fill="none" stroke="#2d3748" stroke-width="0.5"/>
    <polygon points="1185.0,1100.0 1290.0,1165.0 1185.0,1230.0 1080.0,1165.0" fill="none" stroke="#2d3748" stroke-width="0.5"/>
    <polygon points="1395.0,1100.0 1500.0,1165.0 1395.0,1230.0 1290.0,1165.0" fill="none" stroke="#2d3748" stroke-width="0.5"/>
    <polygon points="1605.0,1100.0 1710.0,1165.0 1605.0,1230.0 1500.0,1165.0" fill="none" stroke="#2d3748" stroke-width="0.5"/>
    <polygon points="1815.0,1100.0 1920.0,1165.0 1815.0,1230.0 1710.0,1165.0" fill="none" stroke="#2d3748" stroke-width="0.5"/>
    <polygon points="2025.0,1100.0 2130.0,1165.0 2025.0,1230.0 1920.0,1165.0" fill="none" stroke="#2d3748" stroke-width="0.5"/>
    <polygon points="2235.0,1100.0 2340.0,1165.0 2235.0,1230.0 2130.0,1165.0" fill="none" stroke="#2d3748" stroke-width="0.5"/>
    <polygon points="2445.0,1100.0 2550.0,1165.0 2445.0,1230.0 2340.0,1165.0" fill="none" stroke="#2d3748" stroke-width="0.5"/>
    <polygon points="1290.0,1165.0 1395.0,1230.0 1290.0,1295.0 1185.0,1230.0" fill="none" stroke="#2d3748" stroke-width="0.5"/>
    <polygon points="1500.0,1165.0 1605.0,1230.0 1500.0,1295.0 1395.0,1230.0" fill="none" stroke="#2d3748" stroke-width="0.5"/>
    <polygon points="1710.0,1165.0 1815.0,1230.0 1710.0,1295.0 1605.0,1230.0" fill="none" stroke="#2d3748" stroke-width="0.5"/>
    <polygon points="1920.0,1165.0 2025.0,1230.0 1920.0,1295.0 1815.0,1230.0" fill="none" stroke="#2d3748" stroke-width="0.5"/>
    <polygon points="2130.0,1165.0 2235.0,1230.0 2130.0,1295.0 2025.0,1230.0" fill="none" stroke="#2d3748" stroke-width="0.5"/>
    <polygon points="2340.0,1165.0 2445.0,1230.0 2340.0,1295.0 2235.0,1230.0" fill="none" stroke="#2d3748" stroke-width="0.5"/>
    <polygon points="2550.0,1165.0 2655.0,1230.0 2550.0,1295.0 2445.0,1230.0" fill="none" stroke="#2d3748" stroke-width="0.5"/>
    <polygon points="1395.0,1230.0 1500.0,1295.0 1395.0,1360.0 1290.0,1295.0" fill="none" stroke="#2d3748" stroke-width="0.5"/>
    <polygon points="1605.0,1230.0 1710.0,1295.0 1605.0,1360.0 1500.0,1295.0" fill="none" stroke="#2d3748" stroke-width="0.5"/>
    <polygon points="1815.0,1230.0 1920.0,1295.0 1815.0,1360.0 1710.0,1295.0" fill="none" stroke="#2d3748" stroke-width="0.5"/>
    <polygon points="2025.0,1230.0 2130.0,1295.0 2025.0,1360.0 1920.0,1295.0" fill="none" stroke="#2d3748" stroke-width="0.5"/>
    <polygon points="2235.0,1230.0 2340.0,1295.0 2235.0,1360.0 2130.0,1295.0" fill="none" stroke="#2d3748" stroke-width="0.5"/>
    <polygon points="2445.0,1230.0 2550.0,1295.0 2445.0,1360.0 2340.0,1295.0" fill="none" stroke="#2d3748" stroke-width="0.5"/>
    <polygon points="2655.0,1230.0 2760.0,1295.0 2655.0,1360.0 2550.0,1295.0" fill="none" stroke="#2d3748" stroke-width="0.5"/>
    <polygon points="1500.0,1295.0 1605.0,1360.0 1500.0,1425.0 1395.0,1360.0" fill="none" stroke="#2d3748" stroke-width="0.5"/>
    <polygon points="1710.0,1295.0 1815.0,1360.0 1710.0,1425.0 1605.0,1360.0" fill="none" stroke="#2d3748" stroke-width="0.5"/>
    <polygon points="1920.0,1295.0 2025.0,1360.0 1920.0,1425.0 1815.0,1360.0" fill="none" stroke="#2d3748" stroke-width="0.5"/>
    <polygon points="2130.0,1295.0 2235.0,1360.0 2130.0,1425.0 2025.0,1360.0" fill="none" stroke="#2d3748" stroke-width="0.5"/>
    <polygon points="2340.0,1295.0 2445.0,1360.0 2340.0,1425.0 2235.0,1360.0" fill="none" stroke="#2d3748" stroke-width="0.5"/>
    <polygon points="2550.0,1295.0 2655.0,1360.0 2550.0,1425.0 2445.0,1360.0" fill="none" stroke="#2d3748" stroke-width="0.5"/>
    <polygon points="2760.0,1295.0 2865.0,1360.0 2760.0,1425.0 2655.0,1360.0" fill="none" stroke="#2d3748" stroke-width="0.5"/>
    <polygon points="1605.0,1360.0 1710.0,1425.0 1605.0,1490.0 1500.0,1425.0" fill="none" stroke="#2d3748" stroke-width="0.5"/>
    <polygon points="1815.0,1360.0 1920.0,1425.0 1815.0,1490.0 1710.0,1425.0" fill="none" stroke="#2d3748" stroke-width="0.5"/>
    <polygon points="2025.0,1360.0 2130.0,1425.0 2025.0,1490.0 1920.0,1425.0" fill="none" stroke="#2d3748" stroke-width="0.5"/>
    <polygon points="2235.0,1360.0 2340.0,1425.0 2235.0,1490.0 2130.0,1425.0" fill="none" stroke="#2d3748" stroke-width="0.5"/>
    <polygon points="2445.0,1360.0 2550.0,1425.0 2445.0,1490.0 2340.0,1425.0" fill="none" stroke="#2d3748" stroke-width="0.5"/>
    <polygon points="2655.0,1360.0 2760.0,1425.0 2655.0,1490.0 2550.0,1425.0" fill="none" stroke="#2d3748" stroke-width="0.5"/>
    <polygon points="2865.0,1360.0 2970.0,1425.0 2865.0,1490.0 2760.0,1425.0" fill="none" stroke="#2d3748" stroke-width="0.5"/>
    <polygon points="1710.0,1425.0 1815.0,1490.0 1710.0,1555.0 1605.0,1490.0" fill="none" stroke="#2d3748" stroke-width="0.5"/>
    <polygon points="1920.0,1425.0 2025.0,1490.0 1920.0,1555.0 1815.0,1490.0" fill="none" stroke="#2d3748" stroke-width="0.5"/>
    <polygon points="2130.0,1425.0 2235.0,1490.0 2130.0,1555.0 2025.0,1490.0" fill="none" stroke="#2d3748" stroke-width="0.5"/>
    <polygon points="2340.0,1425.0 2445.0,1490.0 2340.0,1555.0 2235.0,1490.0" fill="none" stroke="#2d3748" stroke-width="0.5"/>
    <polygon points="2550.0,1425.0 2655.0,1490.0 2550.0,1555.0 2445.0,1490.0" fill="none" stroke="#2d3748" stroke-width="0.5"/>
    <polygon points="2760.0,1425.0 2865.0,1490.0 2760.0,1555.0 2655.0,1490.0" fill="none" stroke="#2d3748" stroke-width="0.5"/>
    <polygon points="2970.0,1425.0 3075.0,1490.0 2970.0,1555.0 2865.0,1490.0" fill="none" stroke="#2d3748" stroke-width="0.5"/>
    <polygon points="1815.0,1490.0 1920.0,1555.0 1815.0,1620.0 1710.0,1555.0" fill="none" stroke="#2d3748" stroke-width="0.5"/>
    <polygon points="2025.0,1490.0 2130.0,1555.0 2025.0,1620.0 1920.0,1555.0" fill="none" stroke="#2d3748" stroke-width="0.5"/>
    <polygon points="2235.0,1490.0 2340.0,1555.0 2235.0,1620.0 2130.0,1555.0" fill="none" stroke="#2d3748" stroke-width="0.5"/>
    <polygon points="2445.0,1490.0 2550.0,1555.0 2445.0,1620.0 2340.0,1555.0" fill="none" stroke="#2d3748" stroke-width="0.5"/>
    <polygon points="2655.0,1490.0 2760.0,1555.0 2655.0,1620.0 2550.0,1555.0" fill="none" stroke="#2d3748" stroke-width="0.5"/>
    <polygon points="2865.0,1490.0 2970.0,1555.0 2865.0,1620.0 2760.0,1555.0" fill="none" stroke="#2d3748" stroke-width="0.5"/>
    <polygon points="3075.0,1490.0 3180.0,1555.0 3075.0,1620.0 2970.0,1555.0" fill="none" stroke="#2d3748" stroke-width="0.5"/>
    <polygon points="1920.0,1555.0 2025.0,1620.0 1920.0,1685.0 1815.0,1620.0" fill="none" stroke="#2d3748" stroke-width="0.5"/>
    <polygon points="2130.0,1555.0 2235.0,1620.0 2130.0,1685.0 2025.0,1620.0" fill="none" stroke="#2d3748" stroke-width="0.5"/>
    <polygon points="2340.0,1555.0 2445.0,1620.0 2340.0,1685.0 2235.0,1620.0" fill="none" stroke="#2d3748" stroke-width="0.5"/>
    <polygon points="2550.0,1555.0 2655.0,1620.0 2550.0,1685.0 2445.0,1620.0" fill="none" stroke="#2d3748" stroke-width="0.5"/>
    <polygon points="2760.0,1555.0 2865.0,1620.0 2760.0,1685.0 2655.0,1620.0" fill="none" stroke="#2d3748" stroke-width="0.5"/>
    <polygon points="2970.0,1555.0 3075.0,1620.0 2970.0,1685.0 2865.0,1620.0" fill="none" stroke="#2d3748" stroke-width="0.5"/>
    <polygon points="3180.0,1555.0 3285.0,1620.0 3180.0,1685.0 3075.0,1620.0" fill="none" stroke="#2d3748" stroke-width="0.5"/>
    <polygon points="2025.0,1620.0 2130.0,1685.0 2025.0,1750.0 1920.0,1685.0" fill="none" stroke="#2d3748" stroke-width="0.5"/>
    <polygon points="2235.0,1620.0 2340.0,1685.0 2235.0,1750.0 2130.0,1685.0" fill="none" stroke="#2d3748" stroke-width="0.5"/>
    <polygon points="2445.0,1620.0 2550.0,1685.0 2445.0,1750.0 2340.0,1685.0" fill="none" stroke="#2d3748" stroke-width="0.5"/>
    <polygon points="2655.0,1620.0 2760.0,1685.0 2655.0,1750.0 2550.0,1685.0" fill="none" stroke="#2d3748" stroke-width="0.5"/>
    <polygon points="2865.0,1620.0 2970.0,1685.0 2865.0,1750.0 2760.0,1685.0" fill="none" stroke="#2d3748" stroke-width="0.5"/>
    <polygon points="3075.0,1620.0 3180.0,1685.0 3075.0,1750.0 2970.0,1685.0" fill="none" stroke="#2d3748" stroke-width="0.5"/>
    <polygon points="3285.0,1620.0 3390.0,1685.0 3285.0,1750.0 3180.0,1685.0" fill="none" stroke="#2d3748" stroke-width="0.5"/>
    <polygon points="2130.0,1685.0 2235.0,1750.0 2130.0,1815.0 2025.0,1750.0" fill="none" stroke="#2d3748" stroke-width="0.5"/>
    <polygon points="2340.0,1685.0 2445.0,1750.0 2340.0,1815.0 2235.0,1750.0" fill="none" stroke="#2d3748" stroke-width="0.5"/>
    <polygon points="2550.0,1685.0 2655.0,1750.0 2550.0,1815.0 2445.0,1750.0" fill="none" stroke="#2d3748" stroke-width="0.5"/>
    <polygon points="2760.0,1685.0 2865.0,1750.0 2760.0,1815.0 2655.0,1750.0" fill="none" stroke="#2d3748" stroke-width="0.5"/>
    <polygon points="2970.0,1685.0 3075.0,1750.0 2970.0,1815.0 2865.0,1750.0" fill="none" stroke="#2d3748" stroke-width="0.5"/>
    <polygon points="3180.0,1685.0 3285.0,1750.0 3180.0,1815.0 3075.0,1750.0" fill="none" stroke="#2d3748" stroke-width="0.5"/>
    <polygon points="3390.0,1685.0 3495.0,1750.0 3390.0,1815.0 3285.0,1750.0" fill="none" stroke="#2d3748" stroke-width="0.5"/>
    <polygon points="2235.0,1750.0 2340.0,1815.0 2235.0,1880.0 2130.0,1815.0" fill="none" stroke="#2d3748" stroke-width="0.5"/>
    <polygon points="2445.0,1750.0 2550.0,1815.0 2445.0,1880.0 2340.0,1815.0" fill="none" stroke="#2d3748" stroke-width="0.5"/>
    <polygon points="2655.0,1750.0 2760.0,1815.0 2655.0,1880.0 2550.0,1815.0" fill="none" stroke="#2d3748" stroke-width="0.5"/>
    <polygon points="2865.0,1750.0 2970.0,1815.0 2865.0,1880.0 2760.0,1815.0" fill="none" stroke="#2d3748" stroke-width="0.5"/>
    <polygon points="3075.0,1750.0 3180.0,1815.0 3075.0,1880.0 2970.0,1815.0" fill="none" stroke="#2d3748" stroke-width="0.5"/>
    <polygon points="3285.0,1750.0 3390.0,1815.0 3285.0,1880.0 3180.0,1815.0" fill="none" stroke="#2d3748" stroke-width="0.5"/>
    <polygon points="3495.0,1750.0 3600.0,1815.0 3495.0,1880.0 3390.0,1815.0" fill="none" stroke="#2d3748" stroke-width="0.5"/>
    <polygon points="2340.0,1815.0 2445.0,1880.0 2340.0,1945.0 2235.0,1880.0" fill="none" stroke="#2d3748" stroke-width="0.5"/>
    <polygon points="2550.0,1815.0 2655.0,1880.0 2550.0,1945.0 2445.0,1880.0" fill="none" stroke="#2d3748" stroke-width="0.5"/>
    <polygon points="2760.0,1815.0 2865.0,1880.0 2760.0,1945.0 2655.0,1880.0" fill="none" stroke="#2d3748" stroke-width="0.5"/>
    <polygon points="2970.0,1815.0 3075.0,1880.0 2970.0,1945.0 2865.0,1880.0" fill="none" stroke="#2d3748" stroke-width="0.5"/>
    <polygon points="3180.0,1815.0 3285.0,1880.0 3180.0,1945.0 3075.0,1880.0" fill="none" stroke="#2d3748" stroke-width="0.5"/>
    <polygon points="3390.0,1815.0 3495.0,1880.0 3390.0,1945.0 3285.0,1880.0" fill="none" stroke="#2d3748" stroke-width="0.5"/>
    <polygon points="3600.0,1815.0 3705.0,1880.0 3600.0,1945.0 3495.0,1880.0" fill="none" stroke="#2d3748" stroke-width="0.5"/>
    <polygon points="2445.0,1880.0 2550.0,1945.0 2445.0,2010.0 2340.0,1945.0" fill="none" stroke="#2d3748" stroke-width="0.5"/>
    <polygon points="2655.0,1880.0 2760.0,1945.0 2655.0,2010.0 2550.0,1945.0" fill="none" stroke="#2d3748" stroke-width="0.5"/>
    <polygon points="2865.0,1880.0 2970.0,1945.0 2865.0,2010.0 2760.0,1945.0" fill="none" stroke="#2d3748" stroke-width="0.5"/>
    <polygon points="3075.0,1880.0 3180.0,1945.0 3075.0,2010.0 2970.0,1945.0" fill="none" stroke="#2d3748" stroke-width="0.5"/>
    <polygon points="3285.0,1880.0 3390.0,1945.0 3285.0,2010.0 3180.0,1945.0" fill="none" stroke="#2d3748" stroke-width="0.5"/>
    <polygon points="3495.0,1880.0 3600.0,1945.0 3495.0,2010.0 3390.0,1945.0" fill="none" stroke="#2d3748" stroke-width="0.5"/>
    <polygon points="3705.0,1880.0 3810.0,1945.0 3705.0,2010.0 3600.0,1945.0" fill="none" stroke="#2d3748" stroke-width="0.5"/>
    <polygon points="2550.0,1945.0 2655.0,2010.0 2550.0,2075.0 2445.0,2010.0" fill="none" stroke="#2d3748" stroke-width="0.5"/>
    <polygon points="2760.0,1945.0 2865.0,2010.0 2760.0,2075.0 2655.0,2010.0" fill="none" stroke="#2d3748" stroke-width="0.5"/>
    <polygon points="2970.0,1945.0 3075.0,2010.0 2970.0,2075.0 2865.0,2010.0" fill="none" stroke="#2d3748" stroke-width="0.5"/>
    <polygon points="3180.0,1945.0 3285.0,2010.0 3180.0,2075.0 3075.0,2010.0" fill="none" stroke="#2d3748" stroke-width="0.5"/>
    <polygon points="3390.0,1945.0 3495.0,2010.0 3390.0,2075.0 3285.0,2010.0" fill="none" stroke="#2d3748" stroke-width="0.5"/>
    <polygon points="3600.0,1945.0 3705.0,2010.0 3600.0,2075.0 3495.0,2010.0" fill="none" stroke="#2d3748" stroke-width="0.5"/>
    <polygon points="3810.0,1945.0 3915.0,2010.0 3810.0,2075.0 3705.0,2010.0" fill="none" stroke="#2d3748" stroke-width="0.5"/>
    <polygon points="2655.0,2010.0 2760.0,2075.0 2655.0,2140.0 2550.0,2075.0" fill="none" stroke="#2d3748" stroke-width="0.5"/>
    <polygon points="2865.0,2010.0 2970.0,2075.0 2865.0,2140.0 2760.0,2075.0" fill="none" stroke="#2d3748" stroke-width="0.5"/>
    <polygon points="3075.0,2010.0 3180.0,2075.0 3075.0,2140.0 2970.0,2075.0" fill="none" stroke="#2d3748" stroke-width="0.5"/>
    <polygon points="3285.0,2010.0 3390.0,2075.0 3285.0,2140.0 3180.0,2075.0" fill="none" stroke="#2d3748" stroke-width="0.5"/>
    <polygon points="3495.0,2010.0 3600.0,2075.0 3495.0,2140.0 3390.0,2075.0" fill="none" stroke="#2d3748" stroke-width="0.5"/>
    <polygon points="3705.0,2010.0 3810.0,2075.0 3705.0,2140.0 3600.0,2075.0" fill="none" stroke="#2d3748" stroke-width="0.5"/>
    <polygon points="3915.0,2010.0 4020.0,2075.0 3915.0,2140.0 3810.0,2075.0" fill="none" stroke="#2d3748" stroke-width="0.5"/>
    <polygon points="2760.0,2075.0 2865.0,2140.0 2760.0,2205.0 2655.0,2140.0" fill="none" stroke="#2d3748" stroke-width="0.5"/>
    <polygon points="2970.0,2075.0 3075.0,2140.0 2970.0,2205.0 2865.0,2140.0" fill="none" stroke="#2d3748" stroke-width="0.5"/>
    <polygon points="3180.0,2075.0 3285.0,2140.0 3180.0,2205.0 3075.0,2140.0" fill="none" stroke="#2d3748" stroke-width="0.5"/>
    <polygon points="3390.0,2075.0 3495.0,2140.0 3390.0,2205.0 3285.0,2140.0" fill="none" stroke="#2d3748" stroke-width="0.5"/>
    <polygon points="3600.0,2075.0 3705.0,2140.0 3600.0,2205.0 3495.0,2140.0" fill="none" stroke="#2d3748" stroke-width="0.5"/>
    <polygon points="3810.0,2075.0 3915.0,2140.0 3810.0,2205.0 3705.0,2140.0" fill="none" stroke="#2d3748" stroke-width="0.5"/>
    <polygon points="4020.0,2075.0 4125.0,2140.0 4020.0,2205.0 3915.0,2140.0" fill="none" stroke="#2d3748" stroke-width="0.5"/>
    <polygon points="2865.0,2140.0 2970.0,2205.0 2865.0,2270.0 2760.0,2205.0" fill="none" stroke="#2d3748" stroke-width="0.5"/>
    <polygon points="3075.0,2140.0 3180.0,2205.0 3075.0,2270.0 2970.0,2205.0" fill="none" stroke="#2d3748" stroke-width="0.5"/>
    <polygon points="3285.0,2140.0 3390.0,2205.0 3285.0,2270.0 3180.0,2205.0" fill="none" stroke="#2d3748" stroke-width="0.5"/>
    <polygon points="3495.0,2140.0 3600.0,2205.0 3495.0,2270.0 3390.0,2205.0" fill="none" stroke="#2d3748" stroke-width="0.5"/>
    <polygon points="3705.0,2140.0 3810.0,2205.0 3705.0,2270.0 3600.0,2205.0" fill="none" stroke="#2d3748" stroke-width="0.5"/>
    <polygon points="3915.0,2140.0 4020.0,2205.0 3915.0,2270.0 3810.0,2205.0" fill="none" stroke="#2d3748" stroke-width="0.5"/>
    <polygon points="4125.0,2140.0 4230.0,2205.0 4125.0,2270.0 4020.0,2205.0" fill="none" stroke="#2d3748" stroke-width="0.5"/>
    <polygon points="2970.0,2205.0 3075.0,2270.0 2970.0,2335.0 2865.0,2270.0" fill="none" stroke="#2d3748" stroke-width="0.5"/>
    <polygon points="3180.0,2205.0 3285.0,2270.0 3180.0,2335.0 3075.0,2270.0" fill="none" stroke="#2d3748" stroke-width="0.5"/>
    <polygon points="3390.0,2205.0 3495.0,2270.0 3390.0,2335.0 3285.0,2270.0" fill="none" stroke="#2d3748" stroke-width="0.5"/>
    <polygon points="3600.0,2205.0 3705.0,2270.0 3600.0,2335.0 3495.0,2270.0" fill="none" stroke="#2d3748" stroke-width="0.5"/>
    <polygon points="3810.0,2205.0 3915.0,2270.0 3810.0,2335.0 3705.0,2270.0" fill="none" stroke="#2d3748" stroke-width="0.5"/>
    <polygon points="4020.0,2205.0 4125.0,2270.0 4020.0,2335.0 3915.0,2270.0" fill="none" stroke="#2d3748" stroke-width="0.5"/>
    <polygon points="4230.0,2205.0 4335.0,2270.0 4230.0,2335.0 4125.0,2270.0" fill="none" stroke="#2d3748" stroke-width="0.5"/>
    <polygon points="3075.0,2270.0 3180.0,2335.0 3075.0,2400.0 2970.0,2335.0" fill="none" stroke="#2d3748" stroke-width="0.5"/>
    <polygon points="3285.0,2270.0 3390.0,2335.0 3285.0,2400.0 3180.0,2335.0" fill="none" stroke="#2d3748" stroke-width="0.5"/>
    <polygon points="3495.0,2270.0 3600.0,2335.0 3495.0,2400.0 3390.0,2335.0" fill="none" stroke="#2d3748" stroke-width="0.5"/>
    <polygon points="3705.0,2270.0 3810.0,2335.0 3705.0,2400.0 3600.0,2335.0" fill="none" stroke="#2d3748" stroke-width="0.5"/>
    <polygon points="3915.0,2270.0 4020.0,2335.0 3915.0,2400.0 3810.0,2335.0" fill="none" stroke="#2d3748" stroke-width="0.5"/>
    <polygon points="4125.0,2270.0 4230.0,2335.0 4125.0,2400.0 4020.0,2335.0" fill="none" stroke="#2d3748" stroke-width="0.5"/>
    <polygon points="4335.0,2270.0 4440.0,2335.0 4335.0,2400.0 4230.0,2335.0" fill="none" stroke="#2d3748" stroke-width="0.5"/>
    <polygon points="3180.0,2335.0 3285.0,2400.0 3180.0,2465.0 3075.0,2400.0" fill="none" stroke="#2d3748" stroke-width="0.5"/>
    <polygon points="3390.0,2335.0 3495.0,2400.0 3390.0,2465.0 3285.0,2400.0" fill="none" stroke="#2d3748" stroke-width="0.5"/>
    <polygon points="3600.0,2335.0 3705.0,2400.0 3600.0,2465.0 3495.0,2400.0" fill="none" stroke="#2d3748" stroke-width="0.5"/>
    <polygon points="3810.0,2335.0 3915.0,2400.0 3810.0,2465.0 3705.0,2400.0" fill="none" stroke="#2d3748" stroke-width="0.5"/>
    <polygon points="4020.0,2335.0 4125.0,2400.0 4020.0,2465.0 3915.0,2400.0" fill="none" stroke="#2d3748" stroke-width="0.5"/>
    <polygon points="4230.0,2335.0 4335.0,2400.0 4230.0,2465.0 4125.0,2400.0" fill="none" stroke="#2d3748" stroke-width="0.5"/>
    <polygon points="4440.0,2335.0 4545.0,2400.0 4440.0,2465.0 4335.0,2400.0" fill="none" stroke="#2d3748" stroke-width="0.5"/>
    <polygon points="3285.0,2400.0 3390.0,2465.0 3285.0,2530.0 3180.0,2465.0" fill="none" stroke="#2d3748" stroke-width="0.5"/>
    <polygon points="3495.0,2400.0 3600.0,2465.0 3495.0,2530.0 3390.0,2465.0" fill="none" stroke="#2d3748" stroke-width="0.5"/>
    <polygon points="3705.0,2400.0 3810.0,2465.0 3705.0,2530.0 3600.0,2465.0" fill="none" stroke="#2d3748" stroke-width="0.5"/>
    <polygon points="3915.0,2400.0 4020.0,2465.0 3915.0,2530.0 3810.0,2465.0" fill="none" stroke="#2d3748" stroke-width="0.5"/>
    <polygon points="4125.0,2400.0 4230.0,2465.0 4125.0,2530.0 4020.0,2465.0" fill="none" stroke="#2d3748" stroke-width="0.5"/>
    <polygon points="4335.0,2400.0 4440.0,2465.0 4335.0,2530.0 4230.0,2465.0" fill="none" stroke="#2d3748" stroke-width="0.5"/>
    <polygon points="4545.0,2400.0 4650.0,2465.0 4545.0,2530.0 4440.0,2465.0" fill="none" stroke="#2d3748" stroke-width="0.5"/>
    <polygon points="3390.0,2465.0 3495.0,2530.0 3390.0,2595.0 3285.0,2530.0" fill="none" stroke="#2d3748" stroke-width="0.5"/>
    <polygon points="3600.0,2465.0 3705.0,2530.0 3600.0,2595.0 3495.0,2530.0" fill="none" stroke="#2d3748" stroke-width="0.5"/>
    <polygon points="3810.0,2465.0 3915.0,2530.0 3810.0,2595.0 3705.0,2530.0" fill="none" stroke="#2d3748" stroke-width="0.5"/>
    <polygon points="4020.0,2465.0 4125.0,2530.0 4020.0,2595.0 3915.0,2530.0" fill="none" stroke="#2d3748" stroke-width="0.5"/>
    <polygon points="4230.0,2465.0 4335.0,2530.0 4230.0,2595.0 4125.0,2530.0" fill="none" stroke="#2d3748" stroke-width="0.5"/>
    <polygon points="4440.0,2465.0 4545.0,2530.0 4440.0,2595.0 4335.0,2530.0" fill="none" stroke="#2d3748" stroke-width="0.5"/>
    <polygon points="4650.0,2465.0 4755.0,2530.0 4650.0,2595.0 4545.0,2530.0" fill="none" stroke="#2d3748" stroke-width="0.5"/>
    <polygon points="4650.0,2595.0 4755.0,2530.0 4755.0,2494.6 4650.0,2559.6" fill="#5628a5" stroke="none"/>
    <polygon points="4860.0,2595.0 4755.0,2660.0 4755.0,2624.6 4860.0,2559.6" fill="#6931c9" stroke="none"/>
    <polygon points="4755.0,2530.0 4860.0,2595.0 4860.0,2559.6 4755.0,2494.6" fill="#6931c9" stroke="none"/>
    <polygon points="4755.0,2494.6 4860.0,2559.6 4755.0,2624.6 4650.0,2559.6" fill="#7c3aed" stroke="#9445ff" stroke-width="0.5"/>
    <polygon points="3495.0,2530.0 3600.0,2595.0 3495.0,2660.0 3390.0,2595.0" fill="none" stroke="#2d3748" stroke-width="0.5"/>
    <polygon points="3705.0,2530.0 3810.0,2595.0 3705.0,2660.0 3600.0,2595.0" fill="none" stroke="#2d3748" stroke-width="0.5"/>
    <polygon points="3915.0,2530.0 4020.0,2595.0 3915.0,2660.0 3810.0,2595.0" fill="none" stroke="#2d3748" stroke-width="0.5"/>
    <polygon points="4125.0,2530.0 4230.0,2595.0 4125.0,2660.0 4020.0,2595.0" fill="none" stroke="#2d3748" stroke-width="0.5"/>
    <polygon points="4335.0,2530.0 4440.0,2595.0 4335.0,2660.0 4230.0,2595.0" fill="none" stroke="#2d3748" stroke-width="0.5"/>
    <polygon points="4545.0,2530.0 4650.0,2595.0 4545.0,2660.0 4440.0,2595.0" fill="none" stroke="#2d3748" stroke-width="0.5"/>
    <polygon points="3600.0,2595.0 3705.0,2660.0 3600.0,2725.0 3495.0,2660.0" fill="none" stroke="#2d3748" stroke-width="0.5"/>
    <polygon points="3810.0,2595.0 3915.0,2660.0 3810.0,2725.0 3705.0,2660.0" fill="none" stroke="#2d3748" stroke-width="0.5"/>
    <polygon points="4020.0,2595.0 4125.0,2660.0 4020.0,2725.0 3915.0,2660.0" fill="none" stroke="#2d3748" stroke-width="0.5"/>
    <polygon points="4230.0,2595.0 4335.0,2660.0 4230.0,2725.0 4125.0,2660.0" fill="none" stroke="#2d3748" stroke-width="0.5"/>
    <polygon points="4440.0,2595.0 4545.0,2660.0 4440.0,2725.0 4335.0,2660.0" fill="none" stroke="#2d3748" stroke-width="0.5"/>
    <polygon points="4650.0,2595.0 4755.0,2660.0 4650.0,2725.0 4545.0,2660.0" fill="none" stroke="#2d3748" stroke-width="0.5"/>
    <polygon points="4860.0,2595.0 4965.0,2660.0 4860.0,2725.0 4755.0,2660.0" fill="none" stroke="#2d3748" stroke-width="0.5"/>
    <polygon points="3705.0,2660.0 3810.0,2725.0 3705.0,2790.0 3600.0,2725.0" fill="none" stroke="#2d3748" stroke-width="0.5"/>
    <polygon points="3915.0,2660.0 4020.0,2725.0 3915.0,2790.0 3810.0,2725.0" fill="none" stroke="#2d3748" stroke-width="0.5"/>
    <polygon points="4125.0,2660.0 4230.0,2725.0 4125.0,2790.0 4020.0,2725.0" fill="none" stroke="#2d3748" stroke-width="0.5"/>
    <polygon points="4335.0,2660.0 4440.0,2725.0 4335.0,2790.0 4230.0,2725.0" fill="none" stroke="#2d3748" stroke-width="0.5"/>
    <polygon points="4545.0,2660.0 4650.0,2725.0 4545.0,2790.0 4440.0,2725.0" fill="none" stroke="#2d3748" stroke-width="0.5"/>
    <polygon points="4755.0,2660.0 4860.0,2725.0 4755.0,2790.0 4650.0,2725.0" fill="none" stroke="#2d3748" stroke-width="0.5"/>
    <polygon points="4965.0,2660.0 5070.0,2725.0 4965.0,2790.0 4860.0,2725.0" fill="none" stroke="#2d3748" stroke-width="0.5"/>
    <polygon points="3810.0,2725.0 3915.0,2790.0 3810.0,2855.0 3705.0,2790.0" fill="none" stroke="#2d3748" stroke-width="0.5"/>
    <polygon points="4020.0,2725.0 4125.0,2790.0 4020.0,2855.0 3915.0,2790.0" fill="none" stroke="#2d3748" stroke-width="0.5"/>
    <polygon points="4230.0,2725.0 4335.0,2790.0 4230.0,2855.0 4125.0,2790.0" fill="none" stroke="#2d3748" stroke-width="0.5"/>
    <polygon points="4440.0,2725.0 4545.0,2790.0 4440.0,2855.0 4335.0,2790.0" fill="none" stroke="#2d3748" stroke-width="0.5"/>
    <polygon points="4650.0,2725.0 4755.0,2790.0 4650.0,2855.0 4545.0,2790.0" fill="none" stroke="#2d3748" stroke-width="0.5"/>
    <polygon points="4860.0,2725.0 4965.0,2790.0 4860.0,2855.0 4755.0,2790.0" fill="none" stroke="#2d3748" stroke-width="0.5"/>
    <polygon points="5070.0,2725.0 5175.0,2790.0 5070.0,2855.0 4965.0,2790.0" fill="none" stroke="#2d3748" stroke-width="0.5"/>
    <polygon points="4020.0,2855.0 4125.0,2790.0 4125.0,2776.1 4020.0,2841.1" fill="#200b46" stroke="none"/>
    <polygon points="4230.0,2855.0 4125.0,2920.0 4125.0,2906.1 4230.0,2841.1" fill="#270d55" stroke="none"/>
    <polygon points="4125.0,2790.0 4230.0,2855.0 4230.0,2841.1 4125.0,2776.1" fill="#270d55" stroke="none"/>
    <polygon points="4125.0,2776.1 4230.0,2841.1 4125.0,2906.1 4020.0,2841.1" fill="#2e1065" stroke="#371379" stroke-width="0.5"/>
    <polygon points="3915.0,2790.0 4020.0,2855.0 3915.0,2920.0 3810.0,2855.0" fill="none" stroke="#2d3748" stroke-width="0.5"/>
    <polygon points="4335.0,2790.0 4440.0,2855.0 4335.0,2920.0 4230.0,2855.0" fill="none" stroke="#2d3748" stroke-width="0.5"/>
    <polygon points="4545.0,2790.0 4650.0,2855.0 4545.0,2920.0 4440.0,2855.0" fill="none" stroke="#2d3748" stroke-width="0.5"/>
    <polygon points="4755.0,2790.0 4860.0,2855.0 4755.0,2920.0 4650.0,2855.0" fill="none" stroke="#2d3748" stroke-width="0.5"/>
    <polygon points="4965.0,2790.0 5070.0,2855.0 4965.0,2920.0 4860.0,2855.0" fill="none" stroke="#2d3748" stroke-width="0.5"/>
    <polygon points="5175.0,2790.0 5280.0,2855.0 5175.0,2920.0 5070.0,2855.0" fill="none" stroke="#2d3748" stroke-width="0.5"/>
    <polygon points="3915.0,2920.0 4020.0,2855.0 4020.0,2807.4 3915.0,2872.4" fill="#5628a5" stroke="none"/>
    <polygon points="4125.0,2920.0 4020.0,2985.0 4020.0,2937.4 4125.0,2872.4" fill="#6931c9" stroke="none"/>
    <polygon points="4020.0,2855.0 4125.0,2920.0 4125.0,2872.4 4020.0,2807.4" fill="#6931c9" stroke="none"/>
    <polygon points="4020.0,2807.4 4125.0,2872.4 4020.0,2937.4 3915.0,2872.4" fill="#7c3aed" stroke="#9445ff" stroke-width="0.5"/>
    <polygon points="4230.0,2855.0 4335.0,2920.0 4230.0,2985.0 4125.0,2920.0" fill="none" stroke="#2d3748" stroke-width="0.5"/>
    <polygon points="4440.0,2855.0 4545.0,2920.0 4440.0,2985.0 4335.0,2920.0" fill="none" stroke="#2d3748" stroke-width="0.5"/>
    <polygon points="4650.0,2855.0 4755.0,2920.0 4650.0,2985.0 4545.0,2920.0" fill="none" stroke="#2d3748" stroke-width="0.5"/>
    <polygon points="4860.0,2855.0 4965.0,2920.0 4860.0,2985.0 4755.0,2920.0" fill="none" stroke="#2d3748" stroke-width="0.5"/>
    <polygon points="5070.0,2855.0 5175.0,2920.0 5070.0,2985.0 4965.0,2920.0" fill="none" stroke="#2d3748" stroke-width="0.5"/>
    <polygon points="5280.0,2855.0 5385.0,2920.0 5280.0,2985.0 5175.0,2920.0" fill="none" stroke="#2d3748" stroke-width="0.5"/>
    <polygon points="4125.0,2920.0 4230.0,2985.0 4125.0,3050.0 4020.0,2985.0" fill="none" stroke="#2d3748" stroke-width="0.5"/>
    <polygon points="4335.0,2920.0 4440.0,2985.0 4335.0,3050.0 4230.0,2985.0" fill="none" stroke="#2d3748" stroke-width="0.5"/>
    <polygon points="4545.0,2920.0 4650.0,2985.0 4545.0,3050.0 4440.0,2985.0" fill="none" stroke="#2d3748" stroke-width="0.5"/>
    <polygon points="4755.0,2920.0 4860.0,2985.0 4755.0,3050.0 4650.0,2985.0" fill="none" stroke="#2d3748" stroke-width="0.5"/>
    <polygon points="4965.0,2920.0 5070.0,2985.0 4965.0,3050.0 4860.0,2985.0" fill="none" stroke="#2d3748" stroke-width="0.5"/>
    <polygon points="5175.0,2920.0 5280.0,2985.0 5175.0,3050.0 5070.0,2985.0" fill="none" stroke="#2d3748" stroke-width="0.5"/>
    <polygon points="5385.0,2920.0 5490.0,2985.0 5385.0,3050.0 5280.0,2985.0" fill="none" stroke="#2d3748" stroke-width="0.5"/>
    <polygon points="4230.0,2985.0 4335.0,3050.0 4230.0,3115.0 4125.0,3050.0" fill="none" stroke="#2d3748" stroke-width="0.5"/>
    <polygon points="4440.0,2985.0 4545.0,3050.0 4440.0,3115.0 4335.0,3050.0" fill="none" stroke="#2d3748" stroke-width="0.5"/>
    <polygon points="4650.0,2985.0 4755.0,3050.0 4650.0,3115.0 4545.0,3050.0" fill="none" stroke="#2d3748" stroke-width="0.5"/>
    <polygon points="4860.0,2985.0 4965.0,3050.0 4860.0,3115.0 4755.0,3050.0" fill="none" stroke="#2d3748" stroke-width="0.5"/>
    <polygon points="5070.0,2985.0 5175.0,3050.0 5070.0,3115.0 4965.0,3050.0" fill="none" stroke="#2d3748" stroke-width="0.5"/>
    <polygon points="5280.0,2985.0 5385.0,3050.0 5280.0,3115.0 5175.0,3050.0" fill="none" stroke="#2d3748" stroke-width="0.5"/>
    <polygon points="5490.0,2985.0 5595.0,3050.0 5490.0,3115.0 5385.0,3050.0" fill="none" stroke="#2d3748" stroke-width="0.5"/>
    <polygon points="4335.0,3050.0 4440.0,3115.0 4335.0,3180.0 4230.0,3115.0" fill="none" stroke="#2d3748" stroke-width="0.5"/>
    <polygon points="4545.0,3050.0 4650.0,3115.0 4545.0,3180.0 4440.0,3115.0" fill="none" stroke="#2d3748" stroke-width="0.5"/>
    <polygon points="4755.0,3050.0 4860.0,3115.0 4755.0,3180.0 4650.0,3115.0" fill="none" stroke="#2d3748" stroke-width="0.5"/>
    <polygon points="4965.0,3050.0 5070.0,3115.0 4965.0,3180.0 4860.0,3115.0" fill="none" stroke="#2d3748" stroke-width="0.5"/>
    <polygon points="5175.0,3050.0 5280.0,3115.0 5175.0,3180.0 5070.0,3115.0" fill="none" stroke="#2d3748" stroke-width="0.5"/>
    <polygon points="5385.0,3050.0 5490.0,3115.0 5385.0,3180.0 5280.0,3115.0" fill="none" stroke="#2d3748" stroke-width="0.5"/>
    <polygon points="5595.0,3050.0 5700.0,3115.0 5595.0,3180.0 5490.0,3115.0" fill="none" stroke="#2d3748" stroke-width="0.5"/>
    <polygon points="4440.0,3115.0 4545.0,3180.0 4440.0,3245.0 4335.0,3180.0" fill="none" stroke="#2d3748" stroke-width="0.5"/>
    <polygon points="4650.0,3115.0 4755.0,3180.0 4650.0,3245.0 4545.0,3180.0" fill="none" stroke="#2d3748" stroke-width="0.5"/>
    <polygon points="4860.0,3115.0 4965.0,3180.0 4860.0,3245.0 4755.0,3180.0" fill="none" stroke="#2d3748" stroke-width="0.5"/>
    <polygon points="5070.0,3115.0 5175.0,3180.0 5070.0,3245.0 4965.0,3180.0" fill="none" stroke="#2d3748" stroke-width="0.5"/>
    <polygon points="5280.0,3115.0 5385.0,3180.0 5280.0,3245.0 5175.0,3180.0" fill="none" stroke="#2d3748" stroke-width="0.5"/>
    <polygon points="5490.0,3115.0 5595.0,3180.0 5490.0,3245.0 5385.0,3180.0" fill="none" stroke="#2d3748" stroke-width="0.5"/>
    <polygon points="5700.0,3115.0 5805.0,3180.0 5700.0,3245.0 5595.0,3180.0" fill="none" stroke="#2d3748" stroke-width="0.5"/>
    <polygon points="4545.0,3180.0 4650.0,3245.0 4545.0,3310.0 4440.0,3245.0" fill="none" stroke="#2d3748" stroke-width="0.5"/>
    <polygon points="4755.0,3180.0 4860.0,3245.0 4755.0,3310.0 4650.0,3245.0" fill="none" stroke="#2d3748" stroke-width="0.5"/>
    <polygon points="4965.0,3180.0 5070.0,3245.0 4965.0,3310.0 4860.0,3245.0" fill="none" stroke="#2d3748" stroke-width="0.5"/>
    <polygon points="5175.0,3180.0 5280.0,3245.0 5175.0,3310.0 5070.0,3245.0" fill="none" stroke="#2d3748" stroke-width="0.5"/>
    <polygon points="5385.0,3180.0 5490.0,3245.0 5385.0,3310.0 5280.0,3245.0" fill="none" stroke="#2d3748" stroke-width="0.5"/>
    <polygon points="5595.0,3180.0 5700.0,3245.0 5595.0,3310.0 5490.0,3245.0" fill="none" stroke="#2d3748" stroke-width="0.5"/>
    <polygon points="5805.0,3180.0 5910.0,3245.0 5805.0,3310.0 5700.0,3245.0" fill="none" stroke="#2d3748" stroke-width="0.5"/>
    <polygon points="4650.0,3245.0 4755.0,3310.0 4650.0,3375.0 4545.0,3310.0" fill="none" stroke="#2d3748" stroke-width="0.5"/>
    <polygon points="4860.0,3245.0 4965.0,3310.0 4860.0,3375.0 4755.0,3310.0" fill="none" stroke="#2d3748" stroke-width="0.5"/>
    <polygon points="5070.0,3245.0 5175.0,3310.0 5070.0,3375.0 4965.0,3310.0" fill="none" stroke="#2d3748" stroke-width="0.5"/>
    <polygon points="5280.0,3245.0 5385.0,3310.0 5280.0,3375.0 5175.0,3310.0" fill="none" stroke="#2d3748" stroke-width="0.5"/>
    <polygon points="5490.0,3245.0 5595.0,3310.0 5490.0,3375.0 5385.0,3310.0" fill="none" stroke="#2d3748" stroke-width="0.5"/>
    <polygon points="5700.0,3245.0 5805.0,3310.0 5700.0,3375.0 5595.0,3310.0" fill="none" stroke="#2d3748" stroke-width="0.5"/>
    <polygon points="5910.0,3245.0 6015.0,3310.0 5910.0,3375.0 5805.0,3310.0" fill="none" stroke="#2d3748" stroke-width="0.5"/>
    <polygon points="4755.0,3310.0 4860.0,3375.0 4755.0,3440.0 4650.0,3375.0" fill="none" stroke="#2d3748" stroke-width="0.5"/>
    <polygon points="4965.0,3310.0 5070.0,3375.0 4965.0,3440.0 4860.0,3375.0" fill="none" stroke="#2d3748" stroke-width="0.5"/>
    <polygon points="5175.0,3310.0 5280.0,3375.0 5175.0,3440.0 5070.0,3375.0" fill="none" stroke="#2d3748" stroke-width="0.5"/>
    <polygon points="5385.0,3310.0 5490.0,3375.0 5385.0,3440.0 5280.0,3375.0" fill="none" stroke="#2d3748" stroke-width="0.5"/>
    <polygon points="5595.0,3310.0 5700.0,3375.0 5595.0,3440.0 5490.0,3375.0" fill="none" stroke="#2d3748" stroke-width="0.5"/>
    <polygon points="5805.0,3310.0 5910.0,3375.0 5805.0,3440.0 5700.0,3375.0" fill="none" stroke="#2d3748" stroke-width="0.5"/>
    <polygon points="6015.0,3310.0 6120.0,3375.0 6015.0,3440.0 5910.0,3375.0" fill="none" stroke="#2d3748" stroke-width="0.5"/>
    <polygon points="4860.0,3375.0 4965.0,3440.0 4860.0,3505.0 4755.0,3440.0" fill="none" stroke="#2d3748" stroke-width="0.5"/>
    <polygon points="5070.0,3375.0 5175.0,3440.0 5070.0,3505.0 4965.0,3440.0" fill="none" stroke="#2d3748" stroke-width="0.5"/>
    <polygon points="5280.0,3375.0 5385.0,3440.0 5280.0,3505.0 5175.0,3440.0" fill="none" stroke="#2d3748" stroke-width="0.5"/>
    <polygon points="5490.0,3375.0 5595.0,3440.0 5490.0,3505.0 5385.0,3440.0" fill="none" stroke="#2d3748" stroke-width="0.5"/>
    <polygon points="5700.0,3375.0 5805.0,3440.0 5700.0,3505.0 5595.0,3440.0" fill="none" stroke="#2d3748" stroke-width="0.5"/>
    <polygon points="5910.0,3375.0 6015.0,3440.0 5910.0,3505.0 5805.0,3440.0" fill="none" stroke="#2d3748" stroke-width="0.5"/>
    <polygon points="6120.0,3375.0 6225.0,3440.0 6120.0,3505.0 6015.0,3440.0" fill="none" stroke="#2d3748" stroke-width="0.5"/>
    <polygon points="4965.0,3440.0 5070.0,3505.0 4965.0,3570.0 4860.0,3505.0" fill="none" stroke="#2d3748" stroke-width="0.5"/>
    <polygon points="5175.0,3440.0 5280.0,3505.0 5175.0,3570.0 5070.0,3505.0" fill="none" stroke="#2d3748" stroke-width="0.5"/>
    <polygon points="5385.0,3440.0 5490.0,3505.0 5385.0,3570.0 5280.0,3505.0" fill="none" stroke="#2d3748" stroke-width="0.5"/>
    <polygon points="5595.0,3440.0 5700.0,3505.0 5595.0,3570.0 5490.0,3505.0" fill="none" stroke="#2d3748" stroke-width="0.5"/>
    <polygon points="5805.0,3440.0 5910.0,3505.0 5805.0,3570.0 5700.0,3505.0" fill="none" stroke="#2d3748" stroke-width="0.5"/>
    <polygon points="6015.0,3440.0 6120.0,3505.0 6015.0,3570.0 5910.0,3505.0" fill="none" stroke="#2d3748" stroke-width="0.5"/>
    <polygon points="6225.0,3440.0 6330.0,3505.0 6225.0,3570.0 6120.0,3505.0" fill="none" stroke="#2d3748" stroke-width="0.5"/>
    <polygon points="5490.0,3635.0 5595.0,3570.0 5595.0,3424.0 5490.0,3489.0" fill="#b2b2b2" stroke="none"/>
    <polygon points="5700.0,3635.0 5595.0,3700.0 5595.0,3554.0 5700.0,3489.0" fill="#d8d8d8" stroke="none"/>
    <polygon points="5595.0,3570.0 5700.0,3635.0 5700.0,3489.0 5595.0,3424.0" fill="#d8d8d8" stroke="none"/>
    <polygon points="5595.0,3424.0 5700.0,3489.0 5595.0,3554.0 5490.0,3489.0" fill="#ffffff" stroke="#ffffff" stroke-width="0.5"/>
    <polygon points="5070.0,3505.0 5175.0,3570.0 5070.0,3635.0 4965.0,3570.0" fill="none" stroke="#2d3748" stroke-width="0.5"/>
    <polygon points="5280.0,3505.0 5385.0,3570.0 5280.0,3635.0 5175.0,3570.0" fill="none" stroke="#2d3748" stroke-width="0.5"/>
    <polygon points="5490.0,3505.0 5595.0,3570.0 5490.0,3635.0 5385.0,3570.0" fill="none" stroke="#2d3748" stroke-width="0.5"/>
    <polygon points="5700.0,3505.0 5805.0,3570.0 5700.0,3635.0 5595.0,3570.0" fill="none" stroke="#2d3748" stroke-width="0.5"/>
    <polygon points="5910.0,3505.0 6015.0,3570.0 5910.0,3635.0 5805.0,3570.0" fill="none" stroke="#2d3748" stroke-width="0.5"/>
    <polygon points="6120.0,3505.0 6225.0,3570.0 6120.0,3635.0 6015.0,3570.0" fill="none" stroke="#2d3748" stroke-width="0.5"/>
    <polygon points="5175.0,3570.0 5280.0,3635.0 5175.0,3700.0 5070.0,3635.0" fill="none" stroke="#2d3748" stroke-width="0.5"/>
    <polygon points="5385.0,3570.0 5490.0,3635.0 5385.0,3700.0 5280.0,3635.0" fill="none" stroke="#2d3748" stroke-width="0.5"/>
    <polygon points="5805.0,3570.0 5910.0,3635.0 5805.0,3700.0 5700.0,3635.0" fill="none" stroke="#2d3748" stroke-width="0.5"/>
    <polygon points="6015.0,3570.0 6120.0,3635.0 6015.0,3700.0 5910.0,3635.0" fill="none" stroke="#2d3748" stroke-width="0.5"/>
    <polygon points="5385.0,3700.0 5490.0,3635.0 5490.0,3533.5 5385.0,3598.5" fill="#1793a6" stroke="none"/>
    <polygon points="5595.0,3700.0 5490.0,3765.0 5490.0,3663.5 5595.0,3598.5" fill="#1cb3ca" stroke="none"/>
    <polygon points="5490.0,3635.0 5595.0,3700.0 5595.0,3598.5 5490.0,3533.5" fill="#1cb3ca" stroke="none"/>
    <polygon points="5490.0,3533.5 5595.0,3598.5 5490.0,3663.5 5385.0,3598.5" fill="#22d3ee" stroke="#28fdff" stroke-width="0.5"/>
    <polygon points="5280.0,3635.0 5385.0,3700.0 5280.0,3765.0 5175.0,3700.0" fill="none" stroke="#2d3748" stroke-width="0.5"/>
    <polygon points="5700.0,3635.0 5805.0,3700.0 5700.0,3765.0 5595.0,3700.0" fill="none" stroke="#2d3748" stroke-width="0.5"/>
    <polygon points="5910.0,3635.0 6015.0,3700.0 5910.0,3765.0 5805.0,3700.0" fill="none" stroke="#2d3748" stroke-width="0.5"/>
    <polygon points="5385.0,3700.0 5490.0,3765.0 5385.0,3830.0 5280.0,3765.0" fill="none" stroke="#2d3748" stroke-width="0.5"/>
    <polygon points="5595.0,3700.0 5700.0,3765.0 5595.0,3830.0 5490.0,3765.0" fill="none" stroke="#2d3748" stroke-width="0.5"/>
    <polygon points="5490.0,3765.0 5595.0,3830.0 5490.0,3895.0 5385.0,3830.0" fill="none" stroke="#2d3748" stroke-width="0.5"/>
  </g>
  
  <text x="30" y="4170">Contribution City • 2025</text>
  <text x="6210" y="4170" text-anchor="end" fill="#7c3aed">Engineering Mode</text>
</svg>