<?xml version="1.0" encoding="UTF-8"?>
<svg xmlns="http://www.w3.org/2000/svg" width="1320" height="1080" viewBox="0 0 1320 1080" role="img">
  <defs>
    <style>text { font-family: 'Segoe UI', Ubuntu, sans-serif; fill: #94a3b8; font-size: 14px; }</style>
    <linearGradient id="bg-gradient" x1="0%" y1="0%" x2="0%" y2="100%">
      <stop offset="0%" style="stop-color:#0f172a;stop-opacity:1" />
      <stop offset="100%" style="stop-color:#1e1b4b;stop-opacity:1" />
    </linearGradient>
  </defs>
  <rect width="100%" height="100%" fill="url(#bg-gradient)" />
  
  <g transform="translate(0,20)">
    <polygon points="177.0,60.0 198.0,73.0 177.0,86.0 156.0,73.0" fill="none" stroke="#2d3748" stroke-width="0.5"/>
    <polygon points="156.0,73.0 177.0,86.0 156.0,99.0 135.0,86.0" fill="none" stroke="#2d3748" stroke-width="0.5"/>
    <polygon points="198.0,73.0 219.0,86.0 198.0,99.0 177.0,86.0" fill="none" stroke="#2d3748" stroke-width="0.5"/>
    <polygon points="135.0,86.0 156.0,99.0 135.0,112.0 114.0,99.0" fill="none" stroke="#2d3748" stroke-width="0.5"/>
    <polygon points="177.0,86.0 198.0,99.0 177.0,112.0 156.0,99.0" fill="none" stroke="#2d3748" stroke-width="0.5"/>
    <polygon points="219.0,86.0 240.0,99.0 219.0,112.0 198.0,99.0" fill="none" stroke="#2d3748" stroke-width="0.5"/>
    <polygon points="114.0,99.0 135.0,112.0 114.0,125.0 93.0,112.0" fill="none" stroke="#2d3748" stroke-width="0.5"/>
    <polygon points="156.0,99.0 177.0,112.0 156.0,125.0 135.0,112.0" fill="none" stroke="#2d3748" stroke-width="0.5"/>
    <polygon points="198.0,99.0 219.0,112.0 198.0,125.0 177.0,112.0" fill="none" stroke="#2d3748" stroke-width="0.5"/>
    <polygon points="240.0,99.0 261.0,112.0 240.0,125.0 219.0,112.0" fill="none" stroke="#2d3748" stroke-width="0.5"/>
    <polygon points="135.0,112.0 156.0,125.0 135.0,138.0 114.0,125.0" fill="none" stroke="#2d3748" stroke-width="0.5"/>
    <polygon points="177.0,112.0 198.0,125.0 177.0,138.0 156.0,125.0" fill="none" stroke="#2d3748" stroke-width="0.5"/>
    <polygon points="219.0,112.0 240.0,125.0 219.0,138.0 198.0,125.0" fill="none" stroke="#2d3748" stroke-width="0.5"/>
    <polygon points="261.0,112.0 282.0,125.0 261.0,138.0 240.0,125.0" fill="none" stroke="#2d3748" stroke-width="0.5"/>
    <polygon points="114.0,125.0 135.0,138.0 114.0,151.0 93.0,138.0" fill="none" stroke="#2d3748" stroke-width="0.5"/>
    <polygon points="156.0,125.0 177.0,138.0 156.0,151.0 135.0,138.0" fill="none" stroke="#2d3748" stroke-width="0.5"/>
    <polygon points="198.0,125.0 219.0,138.0 198.0,151.0 177.0,138.0" fill="none" stroke="#2d3748" stroke-width="0.5"/>
    <polygon points="240.0,125.0 261.0,138.0 240.0,151.0 219.0,138.0" fill="none" stroke="#2d3748" stroke-width="0.5"/>
    <polygon points="282.0,125.0 303.0,138.0 282.0,151.0 261.0,138.0" fill="none" stroke="#2d3748" stroke-width="0.5"/>
    <polygon points="93.0,138.0 114.0,151.0 93.0,164.0 72.0,151.0" fill="none" stroke="#2d3748" stroke-width="0.5"/>
    <polygon points="135.0,138.0 156.0,151.0 135.0,164.0 114.0,151.0" fill="none" stroke="#2d3748" stroke-width="0.5"/>
    <polygon points="177.0,138.0 198.0,151.0 177.0,164.0 156.0,151.0" fill="none" stroke="#2d3748" stroke-width="0.5"/>
    <polygon points="219.0,138.0 240.0,151.0 219.0,164.0 198.0,151.0" fill="none" stroke="#2d3748" stroke-width="0.5"/>
    <polygon points="261.0,138.0 282.0,151.0 261.0,164.0 240.0,151.0" fill="none" stroke="#2d3748" stroke-width="0.5"/>
    <polygon points="303.0,138.0 324.0,151.0 303.0,164.0 282.0,151.0" fill="none" stroke="#2d3748" stroke-width="0.5"/>
    <polygon points="72.0,151.0 93.0,164.0 72.0,177.0 51.0,164.0" fill="none" stroke="#2d3748" stroke-width="0.5"/>
    <polygon points="114.0,151.0 135.0,164.0 114.0,177.0 93.0,164.0" fill="none" stroke="#2d3748" stroke-width="0.5"/>
    <polygon points="156.0,151.0 177.0,164.0 156.0,177.0 135.0,164.0" fill="none" stroke="#2d3748" stroke-width="0.5"/>
    <polygon points="198.0,151.0 219.0,164.0 198.0,177.0 177.0,164.0" fill="none" stroke="#2d3748" stroke-width="0.5"/>
    <polygon points="240.0,151.0 261.0,164.0 240.0,177.0 219.0,164.0" fill="none" stroke="#2d3748" stroke-width="0.5"/>
    <polygon points="282.0,151.0 303.0,164.0 282.0,177.0 261.0,164.0" fill="none" stroke="#2d3748" stroke-width="0.5"/>
    <polygon points="324.0,151.0 345.0,164.0 324.0,177.0 303.0,164.0" fill="none" stroke="#2d3748" stroke-width="0.5"/>
    <polygon points="93.0,164.0 114.0,177.0 93.0,190.0 72.0,177.0" fill="none" stroke="#2d3748" stroke-width="0.5"/>
    <polygon points="135.0,164.0 156.0,177.0 135.0,190.0 114.0,177.0" fill="none" stroke="#2d3748" stroke-width="0.5"/>
    <polygon points="177.0,164.0 198.0,177.0 177.0,190.0 156.0,177.0" fill="none" stroke="#2d3748" stroke-width="0.5"/>
    <polygon points="219.0,164.0 240.0,177.0 219.0,190.0 198.0,177.0" fill="none" stroke="#2d3748" stroke-width="0.5"/>
    <polygon points="261.0,164.0 282.0,177.0 261.0,190.0 240.0,177.0" fill="none" stroke="#2d3748" stroke-width="0.5"/>
    <polygon points="303.0,164.0 324.0,177.0 303.0,190.0 282.0,177.0" fill="none" stroke="#2d3748" stroke-width="0.5"/>
    <polygon points="345.0,164.0 366.0,177.0 345.0,190.0 324.0,177.0" fill="none" stroke="#2d3748" stroke-width="0.5"/>
    <polygon points="114.0,177.0 135.0,190.0 114.0,203.0 93.0,190.0" fill="none" stroke="#2d3748" stroke-width="0.5"/>
    <polygon points="156.0,177.0 177.0,190.0 156.0,203.0 135.0,190.0" fill="none" stroke="#2d3748" stroke-width="0.5"/>
    <polygon points="198.0,177.0 219.0,190.0 198.0,203.0 177.0,190.0" fill="none" stroke="#2d3748" stroke-width="0.5"/>
    <polygon points="240.0,177.0 261.0,190.0 240.0,203.0 219.0,190.0" fill="none" stroke="#2d3748" stroke-width="0.5"/>
    <polygon points="282.0,177.0 303.0,190.0 282.0,203.0 261.0,190.0" fill="none" stroke="#2d3748" stroke-width="0.5"/>
    <polygon points="324.0,177.0 345.0,190.0 324.0,203.0 303.0,190.0" fill="none" stroke="#2d3748" stroke-width="0.5"/>
    <polygon points="366.0,177.0 387.0,190.0 366.0,203.0 345.0,190.0" fill="none" stroke="#2d3748" stroke-width="0.5"/>
    <polygon points="135.0,190.0 156.0,203.0 135.0,216.0 114.0,203.0" fill="none" stroke="#2d3748" stroke-width="0.5"/>
    <polygon points="177.0,190.0 198.0,203.0 177.0,216.0 156.0,203.0" fill="none" stroke="#2d3748" stroke-width="0.5"/>
    <polygon points="219.0,190.0 240.0,203.0 219.0,216.0 198.0,203.0" fill="none" stroke="#2d3748" stroke-width="0.5"/>
    <polygon points="261.0,190.0 282.0,203.0 261.0,216.0 240.0,203.0" fill="none" stroke="#2d3748" stroke-width="0.5"/>
    <polygon points="303.0,190.0 324.0,203.0 303.0,216.0 282.0,203.0" fill="none" stroke="#2d3748" stroke-width="0.5"/>
    <polygon points="345.0,190.0 366.0,203.0 345.0,216.0 324.0,203.0" fill="none" stroke="#2d3748" stroke-width="0.5"/>
    <polygon points="387.0,190.0 408.0,203.0 387.0,216.0 366.0,203.0" fill="none" stroke="#2d3748" stroke-width="0.5"/>
    <polygon points="156.0,203.0 177.0,216.0 156.0,229.0 135.0,216.0" fill="none" stroke="#2d3748" stroke-width="0.5"/>
    <polygon points="198.0,203.0 219.0,216.0 198.0,229.0 177.0,216.0" fill="none" stroke="#2d3748" stroke-width="0.5"/>
    <polygon points="240.0,203.0 261.0,216.0 240.0,229.0 219.0,216.0" fill="none" stroke="#2d3748" stroke-width="0.5"/>
    <polygon points="282.0,203.0 303.0,216.0 282.0,229.0 261.0,216.0" fill="none" stroke="#2d3748" stroke-width="0.5"/>
    <polygon points="324.0,203.0 345.0,216.0 324.0,229.0 303.0,216.0" fill="none" stroke="#2d3748" stroke-width="0.5"/>
    <polygon points="366.0,203.0 387.0,216.0 366.0,229.0 345.0,216.0" fill="none" stroke="#2d3748" stroke-width="0.5"/>
    <polygon points="408.0,203.0 429.0,216.0 408.0,229.0 387.0,216.0" fill="none" stroke="#2d3748" stroke-width="0.5"/>
    <polygon points="177.0,216.0 198.0,229.0 177.0,242.0 156.0,229.0" fill="none" stroke="#2d3748" stroke-width="0.5"/>
    <polygon points="219.0,216.0 240.0,229.0 219.0,242.0 198.0,229.0" fill="none" stroke="#2d3748" stroke-width="0.5"/>
    <polygon points="261.0,216.0 282.0,229.0 261.0,242.0 240.0,229.0" fill="none" stroke="#2d3748" stroke-width="0.5"/>
    <polygon points="303.0,216.0 324.0,229.0 303.0,242.0 282.0,229.0" fill="none" stroke="#2d3748" stroke-width="0.5"/>
    <polygon points="345.0,216.0 366.0,229.0 345.0,242.0 324.0,229.0" fill="none" stroke="#2d3748" stroke-width="0.5"/>
    <polygon points="387.0,216.0 408.0,229.0 387.0,242.0 366.0,229.0" fill="none" stroke="#2d3748" stroke-width="0.5"/>
    <polygon points="429.0,216.0 450.0,229.0 429.0,242.0 408.0,229.0" fill="none" stroke="#2d3748" stroke-width="0.5"/>
    <polygon points="198.0,229.0 219.0,242.0 198.0,255.0 177.0,242.0" fill="none" stroke="#2d3748" stroke-width="0.5"/>
    <polygon points="240.0,229.0 261.0,242.0 240.0,255.0 219.0,242.0" fill="none" stroke="#2d3748" stroke-width="0.5"/>
    <polygon points="282.0,229.0 303.0,242.0 282.0,255.0 261.0,242.0" fill="none" stroke="#2d3748" stroke-width="0.5"/>
    <polygon points="324.0,229.0 345.0,242.0 324.0,255.0 303.0,242.0" fill="none" stroke="#2d3748" stroke-width="0.5"/>
    <polygon points="366.0,229.0 387.0,242.0 366.0,255.0 345.0,242.0" fill="none" stroke="#2d3748" stroke-width="0.5"/>
    <polygon points="408.0,229.0 429.0,242.0 408.0,255.0 387.0,242.0" fill="none" stroke="#2d3748" stroke-width="0.5"/>
    <polygon points="450.0,229.0 471.0,242.0 450.0,255.0 429.0,242.0" fill="none" stroke="#2d3748" stroke-width="0.5"/>
    <polygon points="219.0,242.0 240.0,255.0 219.0,268.0 198.0,255.0" fill="none" stroke="#2d3748" stroke-width="0.5"/>
    <polygon points="261.0,242.0 282.0,255.0 261.0,268.0 240.0,255.0" fill="none" stroke="#2d3748" stroke-width="0.5"/>
    <polygon points="303.0,242.0 324.0,255.0 303.0,268.0 282.0,255.0" fill="none" stroke="#2d3748" stroke-width="0.5"/>
    <polygon points="345.0,242.0 366.0,255.0 345.0,268.0 324.0,255.0" fill="none" stroke="#2d3748" stroke-width="0.5"/>
    <polygon points="387.0,242.0 408.0,255.0 387.0,268.0 366.0,255.0" fill="none" stroke="#2d3748" stroke-width="0.5"/>
    <polygon points="429.0,242.0 450.0,255.0 429.0,268.0 408.0,255.0" fill="none" stroke="#2d3748" stroke-width="0.5"/>
    <polygon points="471.0,242.0 492.0,255.0 471.0,268.0 450.0,255.0" fill="none" stroke="#2d3748" stroke-width="0.5"/>
    <polygon points="240.0,255.0 261.0,268.0 240.0,281.0 219.0,268.0" fill="none" stroke="#2d3748" stroke-width="0.5"/>
    <polygon points="282.0,255.0 303.0,268.0 282.0,281.0 261.0,268.0" fill="none" stroke="#2d3748" stroke-width="0.5"/>
    <polygon points="324.0,255.0 345.0,268.0 324.0,281.0 303.0,268.0" fill="none" stroke="#2d3748" stroke-width="0.5"/>
    <polygon points="366.0,255.0 387.0,268.0 366.0,281.0 345.0,268.0" fill="none" stroke="#2d3748" stroke-width="0.5"/>
    <polygon points="408.0,255.0 429.0,268.0 408.0,281.0 387.0,268.0" fill="none" stroke="#2d3748" stroke-width="0.5"/>
    <polygon points="450.0,255.0 471.0,268.0 450.0,281.0 429.0,268.0" fill="none" stroke="#2d3748" stroke-width="0.5"/>
    <polygon points="492.0,255.0 513.0,268.0 492.0,281.0 471.0,268.0" fill="none" stroke="#2d3748" stroke-width="0.5"/>
    <polygon points="261.0,268.0 282.0,281.0 261.0,294.0 240.0,281.0" fill="none" stroke="#2d3748" stroke-width="0.5"/>
    <polygon points="303.0,268.0 324.0,281.0 303.0,294.0 282.0,281.0" fill="none" stroke="#2d3748" stroke-width="0.5"/>
    <polygon points="345.0,268.0 366.0,281.0 345.0,294.0 324.0,281.0" fill="none" stroke="#2d3748" stroke-width="0.5"/>
    <polygon points="387.0,268.0 408.0,281.0 387.0,294.0 366.0,281.0" fill="none" stroke="#2d3748" stroke-width="0.5"/>
    <polygon points="429.0,268.0 450.0,281.0 429.0,294.0 408.0,281.0" fill="none" stroke="#2d3748" stroke-width="0.5"/>
    <polygon points="471.0,268.0 492.0,281.0 471.0,294.0 450.0,281.0" fill="none" stroke="#2d3748" stroke-width="0.5"/>
    <polygon points="513.0,268.0 534.0,281.0 513.0,294.0 492.0,281.0" fill="none" stroke="#2d3748" stroke-width="0.5"/>
    <polygon points="282.0,281.0 303.0,294.0 282.0,307.0 261.0,294.0" fill="none" stroke="#2d3748" stroke-width="0.5"/>
    <polygon points="324.0,281.0 345.0,294.0 324.0,307.0 303.0,294.0" fill="none" stroke="#2d3748" stroke-width="0.5"/>
    <polygon points="366.0,281.0 387.0,294.0 366.0,307.0 345.0,294.0" fill="none" stroke="#2d3748" stroke-width="0.5"/>
    <polygon points="408.0,281.0 429.0,294.0 408.0,307.0 387.0,294.0" fill="none" stroke="#2d3748" stroke-width="0.5"/>
    <polygon points="450.0,281.0 471.0,294.0 450.0,307.0 429.0,294.0" fill="none" stroke="#2d3748" stroke-width="0.5"/>
    <polygon points="492.0,281.0 513.0,294.0 492.0,307.0 471.0,294.0" fill="none" stroke="#2d3748" stroke-width="0.5"/>
    <polygon points="534.0,281.0 555.0,294.0 534.0,307.0 513.0,294.0" fill="none" stroke="#2d3748" stroke-width="0.5"/>
    <polygon points="303.0,294.0 324.0,307.0 303.0,320.0 282.0,307.0" fill="none" stroke="#2d3748" stroke-width="0.5"/>
    <polygon points="345.0,294.0 366.0,307.0 345.0,320.0 324.0,307.0" fill="none" stroke="#2d3748" stroke-width="0.5"/>
    <polygon points="387.0,294.0 408.0,307.0 387.0,320.0 366.0,307.0" fill="none" stroke="#2d3748" stroke-width="0.5"/>
    <polygon points="429.0,294.0 450.0,307.0 429.0,320.0 408.0,307.0" fill="none" stroke="#2d3748" stroke-width="0.5"/>
    <polygon points="471.0,294.0 492.0,307.0 471.0,320.0 450.0,307.0" fill="none" stroke="#2d3748" stroke-width="0.5"/>
    <polygon points="513.0,294.0 534.0,307.0 513.0,320.0 492.0,307.0" fill="none" stroke="#2d3748" stroke-width="0.5"/>
    <polygon points="555.0,294.0 576.0,307.0 555.0,320.0 534.0,307.0" fill="none" stroke="#2d3748" stroke-width="0.5"/>
    <polygon points="324.0,307.0 345.0,320.0 324.0,333.0 303.0,320.0" fill="none" stroke="#2d3748" stroke-width="0.5"/>
    <polygon points="366.0,307.0 387.0,320.0 366.0,333.0 345.0,320.0" fill="none" stroke="#2d3748" stroke-width="0.5"/>
    <polygon points="408.0,307.0 429.0,320.0 408.0,333.0 387.0,320.0" fill="none" stroke="#2d3748" stroke-width="0.5"/>
    <polygon points="450.0,307.0 471.0,320.0 450.0,333.0 429.0,320.0" fill="none" stroke="#2d3748" stroke-width="0.5"/>
    <polygon points="492.0,307.0 513.0,320.0 492.0,333.0 471.0,320.0" fill="none" stroke="#2d3748" stroke-width="0.5"/>
    <polygon points="534.0,307.0 555.0,320.0 534.0,333.0 513.0,320.0" fill="none" stroke="#2d3748" stroke-width="0.5"/>
    <polygon points="576.0,307.0 597.0,320.0 576.0,333.0 555.0,320.0" fill="none" stroke="#2d3748" stroke-width="0.5"/>
    <polygon points="345.0,320.0 366.0,333.0 345.0,346.0 324.0,333.0" fill="none" stroke="#2d3748" stroke-width="0.5"/>
    <polygon points="387.0,320.0 408.0,333.0 387.0,346.0 366.0,333.0" fill="none" stroke="#2d3748" stroke-width="0.5"/>
    <polygon points="429.0,320.0 450.0,333.0 429.0,346.0 408.0,333.0" fill="none" stroke="#2d3748" stroke-width="0.5"/>
    <polygon points="471.0,320.0 492.0,333.0 471.0,346.0 450.0,333.0" fill="none" stroke="#2d3748" stroke-width="0.5"/>
    <polygon points="513.0,320.0 534.0,333.0 513.0,346.0 492.0,333.0" fill="none" stroke="#2d3748" stroke-width="0.5"/>
    <polygon points="555.0,320.0 576.0,333.0 555.0,346.0 534.0,333.0" fill="none" stroke="#2d3748" stroke-width="0.5"/>
    <polygon points="597.0,320.0 618.0,333.0 597.0,346.0 576.0,333.0" fill="none" stroke="#2d3748" stroke-width="0.5"/>
    <polygon points="366.0,333.0 387.0,346.0 366.0,359.0 345.0,346.0" fill="none" stroke="#2d3748" stroke-width="0.5"/>
    <polygon points="408.0,333.0 429.0,346.0 408.0,359.0 387.0,346.0" fill="none" stroke="#2d3748" stroke-width="0.5"/>
    <polygon points="450.0,333.0 471.0,346.0 450.0,359.0 429.0,346.0" fill="none" stroke="#2d3748" stroke-width="0.5"/>
    <polygon points="492.0,333.0 513.0,346.0 492.0,359.0 471.0,346.0" fill="none" stroke="#2d3748" stroke-width="0.5"/>
    <polygon points="534.0,333.0 555.0,346.0 534.0,359.0 513.0,346.0" fill="none" stroke="#2d3748" stroke-width="0.5"/>
    <polygon points="576.0,333.0 597.0,346.0 576.0,359.0 555.0,346.0" fill="none" stroke="#2d3748" stroke-width="0.5"/>
    <polygon points="618.0,333.0 639.0,346.0 618.0,359.0 597.0,346.0" fill="none" stroke="#2d3748" stroke-width="0.5"/>
    <polygon points="387.0,346.0 408.0,359.0 387.0,372.0 366.0,359.0" fill="none" stroke="#2d3748" stroke-width="0.5"/>
    <polygon points="429.0,346.0 450.0,359.0 429.0,372.0 408.0,359.0" fill="none" stroke="#2d3748" stroke-width="0.5"/>
    <polygon points="471.0,346.0 492.0,359.0 471.0,372.0 450.0,359.0" fill="none" stroke="#2d3748" stroke-width="0.5"/>
    <polygon points="513.0,346.0 534.0,359.0 513.0,372.0 492.0,359.0" fill="none" stroke="#2d3748" stroke-width="0.5"/>
    <polygon points="555.0,346.0 576.0,359.0 555.0,372.0 534.0,359.0" fill="none" stroke="#2d3748" stroke-width="0.5"/>
    <polygon points="597.0,346.0 618.0,359.0 597.0,372.0 576.0,359.0" fill="none" stroke="#2d3748" stroke-width="0.5"/>
    <polygon points="639.0,346.0 660.0,359.0 639.0,372.0 618.0,359.0" fill="none" stroke="#2d3748" stroke-width="0.5"/>
    <polygon points="408.0,359.0 429.0,372.0 408.0,385.0 387.0,372.0" fill="none" stroke="#2d3748" stroke-width="0.5"/>
    <polygon points="450.0,359.0 471.0,372.0 450.0,385.0 429.0,372.0" fill="none" stroke="#2d3748" stroke-width="0.5"/>
    <polygon points="492.0,359.0 513.0,372.0 492.0,385.0 471.0,372.0" fill="none" stroke="#2d3748" stroke-width="0.5"/>
    <polygon points="534.0,359.0 555.0,372.0 534.0,385.0 513.0,372.0" fill="none" stroke="#2d3748" stroke-width="0.5"/>
    <polygon points="576.0,359.0 597.0,372.0 576.0,385.0 555.0,372.0" fill="none" stroke="#2d3748" stroke-width="0.5"/>
    <polygon points="618.0,359.0 639.0,372.0 618.0,385.0 597.0,372.0" fill="none" stroke="#2d3748" stroke-width="0.5"/>
    <polygon points="660.0,359.0 681.0,372.0 660.0,385.0 639.0,372.0" fill="none" stroke="#2d3748" stroke-width="0.5"/>
    <polygon points="429.0,372.0 450.0,385.0 429.0,398.0 408.0,385.0" fill="none" stroke="#2d3748" stroke-width="0.5"/>
    <polygon points="471.0,372.0 492.0,385.0 471.0,398.0 450.0,385.0" fill="none" stroke="#2d3748" stroke-width="0.5"/>
    <polygon points="513.0,372.0 534.0,385.0 513.0,398.0 492.0,385.0" fill="none" stroke="#2d3748" stroke-width="0.5"/>
    <polygon points="555.0,372.0 576.0,385.0 555.0,398.0 534.0,385.0" fill="none" stroke="#2d3748" stroke-width="0.5"/>
    <polygon points="597.0,372.0 618.0,385.0 597.0,398.0 576.0,385.0" fill="none" stroke="#2d3748" stroke-width="0.5"/>
    <polygon points="639.0,372.0 660.0,385.0 639.0,398.0 618.0,385.0" fill="none" stroke="#2d3748" stroke-width="0.5"/>
    <polygon points="681.0,372.0 702.0,385.0 681.0,398.0 660.0,385.0" fill="none" stroke="#2d3748" stroke-width="0.5"/>
    <polygon points="450.0,385.0 471.0,398.0 450.0,411.0 429.0,398.0" fill="none" stroke="#2d3748" stroke-width="0.5"/>
    <polygon points="492.0,385.0 513.0,398.0 492.0,411.0 471.0,398.0" fill="none" stroke="#2d3748" stroke-width="0.5"/>
    <polygon points="534.0,385.0 555.0,398.0 534.0,411.0 513.0,398.0" fill="none" stroke="#2d3748" stroke-width="0.5"/>
    <polygon points="576.0,385.0 597.0,398.0 576.0,411.0 555.0,398.0" fill="none" stroke="#2d3748" stroke-width="0.5"/>
    <polygon points="618.0,385.0 639.0,398.0 618.0,411.0 597.0,398.0" fill="none" stroke="#2d3748" stroke-width="0.5"/>
    <polygon points="660.0,385.0 681.0,398.0 660.0,411.0 639.0,398.0" fill="none" stroke="#2d3748" stroke-width="0.5"/>
    <polygon points="702.0,385.0 723.0,398.0 702.0,411.0 681.0,398.0" fill="none" stroke="#2d3748" stroke-width="0.5"/>
    <polygon points="471.0,398.0 492.0,411.0 471.0,424.0 450.0,411.0" fill="none" stroke="#2d3748" stroke-width="0.5"/>
    <polygon points="513.0,398.0 534.0,411.0 513.0,424.0 492.0,411.0" fill="none" stroke="#2d3748" stroke-width="0.5"/>
    <polygon points="555.0,398.0 576.0,411.0 555.0,424.0 534.0,411.0" fill="none" stroke="#2d3748" stroke-width="0.5"/>
    <polygon points="597.0,398.0 618.0,411.0 597.0,424.0 576.0,411.0" fill="none" stroke="#2d3748" stroke-width="0.5"/>
    <polygon points="639.0,398.0 660.0,411.0 639.0,424.0 618.0,411.0" fill="none" stroke="#2d3748" stroke-width="0.5"/>
    <polygon points="681.0,398.0 702.0,411.0 681.0,424.0 660.0,411.0" fill="none" stroke="#2d3748" stroke-width="0.5"/>
    <polygon points="723.0,398.0 744.0,411.0 723.0,424.0 702.0,411.0" fill="none" stroke="#2d3748" stroke-width="0.5"/>
    <polygon points="492.0,411.0 513.0,424.0 492.0,437.0 471.0,424.0" fill="none" stroke="#2d3748" stroke-width="0.5"/>
    <polygon points="534.0,411.0 555.0,424.0 534.0,437.0 513.0,424.0" fill="none" stroke="#2d3748" stroke-width="0.5"/>
    <polygon points="576.0,411.0 597.0,424.0 576.0,437.0 555.0,424.0" fill="none" stroke="#2d3748" stroke-width="0.5"/>
    <polygon points="618.0,411.0 639.0,424.0 618.0,437.0 597.0,424.0" fill="none" stroke="#2d3748" stroke-width="0.5"/>
    <polygon points="660.0,411.0 681.0,424.0 660.0,437.0 639.0,424.0" fill="none" stroke="#2d3748" stroke-width="0.5"/>
    <polygon points="702.0,411.0 723.0,424.0 702.0,437.0 681.0,424.0" fill="none" stroke="#2d3748" stroke-width="0.5"/>
    <polygon points="744.0,411.0 765.0,424.0 744.0,437.0 723.0,424.0" fill="none" stroke="#2d3748" stroke-width="0.5"/>
    <polygon points="513.0,424.0 534.0,437.0 513.0,450.0 492.0,437.0" fill="none" stroke="#2d3748" stroke-width="0.5"/>
    <polygon points="555.0,424.0 576.0,437.0 555.0,450.0 534.0,437.0" fill="none" stroke="#2d3748" stroke-width="0.5"/>
    <polygon points="597.0,424.0 618.0,437.0 597.0,450.0 576.0,437.0" fill="none" stroke="#2d3748" stroke-width="0.5"/>
    <polygon points="639.0,424.0 660.0,437.0 639.0,450.0 618.0,437.0" fill="none" stroke="#2d3748" stroke-width="0.5"/>
    <polygon points="681.0,424.0 702.0,437.0 681.0,450.0 660.0,437.0" fill="none" stroke="#2d3748" stroke-width="0.5"/>
    <polygon points="723.0,424.0 744.0,437.0 723.0,450.0 702.0,437.0" fill="none" stroke="#2d3748" stroke-width="0.5"/>
    <polygon points="765.0,424.0 786.0,437.0 765.0,450.0 744.0,437.0" fill="none" stroke="#2d3748" stroke-width="0.5"/>
    <polygon points="534.0,437.0 555.0,450.0 534.0,463.0 513.0,450.0" fill="none" stroke="#2d3748" stroke-width="0.5"/>
    <polygon points="576.0,437.0 597.0,450.0 576.0,463.0 555.0,450.0" fill="none" stroke="#2d3748" stroke-width="0.5"/>
    <polygon points="618.0,437.0 639.0,450.0 618.0,463.0 597.0,450.0" fill="none" stroke="#2d3748" stroke-width="0.5"/>
    <polygon points="660.0,437.0 681.0,450.0 660.0,463.0 639.0,450.0" fill="none" stroke="#2d3748" stroke-width="0.5"/>
    <polygon points="702.0,437.0 723.0,450.0 702.0,463.0 681.0,450.0" fill="none" stroke="#2d3748" stroke-width="0.5"/>
    <polygon points="744.0,437.0 765.0,450.0 744.0,463.0 723.0,450.0" fill="none" stroke="#2d3748" stroke-width="0.5"/>
    <polygon points="786.0,437.0 807.0,450.0 786.0,463.0 765.0,450.0" fill="none" stroke="#2d3748" stroke-width="0.5"/>
    <polygon points="555.0,450.0 576.0,463.0 555.0,476.0 534.0,463.0" fill="none" stroke="#2d3748" stroke-width="0.5"/>
    <polygon points="597.0,450.0 618.0,463.0 597.0,476.0 576.0,463.0" fill="none" stroke="#2d3748" stroke-width="0.5"/>
    <polygon points="639.0,450.0 660.0,463.0 639.0,476.0 618.0,463.0" fill="none" stroke="#2d3748" stroke-width="0.5"/>
    <polygon points="681.0,450.0 702.0,463.0 681.0,476.0 660.0,463.0" fill="none" stroke="#2d3748" stroke-width="0.5"/>
    <polygon points="723.0,450.0 744.0,463.0 723.0,476.0 702.0,463.0" fill="none" stroke="#2d3748" stroke-width="0.5"/>
    <polygon points="765.0,450.0 786.0,463.0 765.0,476.0 744.0,463.0" fill="none" stroke="#2d3748" stroke-width="0.5"/>
    <polygon points="807.0,450.0 828.0,463.0 807.0,476.0 786.0,463.0" fill="none" stroke="#2d3748" stroke-width="0.5"/>
    <polygon points="576.0,463.0 597.0,476.0 576.0,489.0 555.0,476.0" fill="none" stroke="#2d3748" stroke-width="0.5"/>
    <polygon points="618.0,463.0 639.0,476.0 618.0,489.0 597.0,476.0" fill="none" stroke="#2d3748" stroke-width="0.5"/>
    <polygon points="660.0,463.0 681.0,476.0 660.0,489.0 639.0,476.0" fill="none" stroke="#2d3748" stroke-width="0.5"/>
    <polygon points="702.0,463.0 723.0,476.0 702.0,489.0 681.0,476.0" fill="none" stroke="#2d3748" stroke-width="0.5"/>
    <polygon points="744.0,463.0 765.0,476.0 744.0,489.0 723.0,476.0" fill="none" stroke="#2d3748" stroke-width="0.5"/>
    <polygon points="786.0,463.0 807.0,476.0 786.0,489.0 765.0,476.0" fill="none" stroke="#2d3748" stroke-width="0.5"/>
    <polygon points="828.0,463.0 849.0,476.0 828.0,489.0 807.0,476.0" fill="none" stroke="#2d3748" stroke-width="0.5"/>
    <polygon points="597.0,476.0 618.0,489.0 597.0,502.0 576.0,489.0" fill="none" stroke="#2d3748" stroke-width="0.5"/>
    <polygon points="639.0,476.0 660.0,489.0 639.0,502.0 618.0,489.0" fill="none" stroke="#2d3748" stroke-width="0.5"/>
    <polygon points="681.0,476.0 702.0,489.0 681.0,502.0 660.0,489.0" fill="none" stroke="#2d3748" stroke-width="0.5"/>
    <polygon points="723.0,476.0 744.0,489.0 723.0,502.0 702.0,489.0" fill="none" stroke="#2d3748" stroke-width="0.5"/>
    <polygon points="765.0,476.0 786.0,489.0 765.0,502.0 744.0,489.0" fill="none" stroke="#2d3748" stroke-width="0.5"/>
    <polygon points="807.0,476.0 828.0,489.0 807.0,502.0 786.0,489.0" fill="none" stroke="#2d3748" stroke-width="0.5"/>
    <polygon points="849.0,476.0 870.0,489.0 849.0,502.0 828.0,489.0" fill="none" stroke="#2d3748" stroke-width="0.5"/>
    <polygon points="618.0,489.0 639.0,502.0 618.0,515.0 597.0,502.0" fill="none" stroke="#2d3748" stroke-width="0.5"/>
    <polygon points="660.0,489.0 681.0,502.0 660.0,515.0 639.0,502.0" fill="none" stroke="#2d3748" stroke-width="0.5"/>
    <polygon points="702.0,489.0 723.0,502.0 702.0,515.0 681.0,502.0" fill="none" stroke="#2d3748" stroke-width="0.5"/>
    <polygon points="744.0,489.0 765.0,502.0 744.0,515.0 723.0,502.0" fill="none" stroke="#2d3748" stroke-width="0.5"/>
    <polygon points="786.0,489.0 807.0,502.0 786.0,515.0 765.0,502.0" fill="none" stroke="#2d3748" stroke-width="0.5"/>
    <polygon points="828.0,489.0 849.0,502.0 828.0,515.0 807.0,502.0" fill="none" stroke="#2d3748" stroke-width="0.5"/>
    <polygon points="870.0,489.0 891.0,502.0 870.0,515.0 849.0,502.0" fill="none" stroke="#2d3748" stroke-width="0.5"/>
    <polygon points="639.0,502.0 660.0,515.0 639.0,528.0 618.0,515.0" fill="none" stroke="#2d3748" stroke-width="0.5"/>
    <polygon points="681.0,502.0 702.0,515.0 681.0,528.0 660.0,515.0" fill="none" stroke="#2d3748" stroke-width="0.5"/>
    <polygon points="723.0,502.0 744.0,515.0 723.0,528.0 702.0,515.0" fill="none" stroke="#2d3748" stroke-width="0.5"/>
    <polygon points="765.0,502.0 786.0,515.0 765.0,528.0 744.0,515.0" fill="none" stroke="#2d3748" stroke-width="0.5"/>
    <polygon points="807.0,502.0 828.0,515.0 807.0,528.0 786.0,515.0" fill="none" stroke="#2d3748" stroke-width="0.5"/>
    <polygon points="849.0,502.0 870.0,515.0 849.0,528.0 828.0,515.0" fill="none" stroke="#2d3748" stroke-width="0.5"/>
    <polygon points="891.0,502.0 912.0,515.0 891.0,528.0 870.0,515.0" fill="none" stroke="#2d3748" stroke-width="0.5"/>
    <polygon points="660.0,515.0 681.0,528.0 660.0,541.0 639.0,528.0" fill="none" stroke="#2d3748" stroke-width="0.5"/>
    <polygon points="702.0,515.0 723.0,528.0 702.0,541.0 681.0,528.0" fill="none" stroke="#2d3748" stroke-width="0.5"/>
    <polygon points="744.0,515.0 765.0,528.0 744.0,541.0 723.0,528.0" fill="none" stroke="#2d3748" stroke-width="0.5"/>
    <polygon points="786.0,515.0 807.0,528.0 786.0,541.0 765.0,528.0" fill="none" stroke="#2d3748" stroke-width="0.5"/>
    <polygon points="828.0,515.0 849.0,528.0 828.0,541.0 807.0,528.0" fill="none" stroke="#2d3748" stroke-width="0.5"/>
    <polygon points="870.0,515.0 891.0,528.0 870.0,541.0 849.0,528.0" fill="none" stroke="#2d3748" stroke-width="0.5"/>
    <polygon points="912.0,515.0 933.0,528.0 912.0,541.0 891.0,528.0" fill="none" stroke="#2d3748" stroke-width="0.5"/>
    <polygon points="681.0,528.0 702.0,541.0 681.0,554.0 660.0,541.0" fill="none" stroke="#2d3748" stroke-width="0.5"/>
    <polygon points="723.0,528.0 744.0,541.0 723.0,554.0 702.0,541.0" fill="none" stroke="#2d3748" stroke-width="0.5"/>
    <polygon points="765.0,528.0 786.0,541.0 765.0,554.0 744.0,541.0" fill="none" stroke="#2d3748" stroke-width="0.5"/>
    <polygon points="807.0,528.0 828.0,541.0 807.0,554.0 786.0,541.0" fill="none" stroke="#2d3748" stroke-width="0.5"/>
    <polygon points="849.0,528.0 870.0,541.0 849.0,554.0 828.0,541.0" fill="none" stroke="#2d3748" stroke-width="0.5"/>
    <polygon points="891.0,528.0 912.0,541.0 891.0,554.0 870.0,541.0" fill="none" stroke="#2d3748" stroke-width="0.5"/>
    <polygon points="933.0,528.0 954.0,541.0 933.0,554.0 912.0,541.0" fill="none" stroke="#2d3748" stroke-width="0.5"/>
    <polygon points="702.0,541.0 723.0,554.0 702.0,567.0 681.0,554.0" fill="none" stroke="#2d3748" stroke-width="0.5"/>
    <polygon points="744.0,541.0 765.0,554.0 744.0,567.0 723.0,554.0" fill="none" stroke="#2d3748" stroke-width="0.5"/>
    <polygon points="786.0,541.0 807.0,554.0 786.0,567.0 765.0,554.0" fill="none" stroke="#2d3748" stroke-width="0.5"/>
    <polygon points="828.0,541.0 849.0,554.0 828.0,567.0 807.0,554.0" fill="none" stroke="#2d3748" stroke-width="0.5"/>
    <polygon points="870.0,541.0 891.0,554.0 870.0,567.0 849.0,554.0" fill="none" stroke="#2d3748" stroke-width="0.5"/>
    <polygon points="912.0,541.0 933.0,554.0 912.0,567.0 891.0,554.0" fill="none" stroke="#2d3748" stroke-width="0.5"/>
    <polygon points="954.0,541.0 975.0,554.0 954.0,567.0 933.0,554.0" fill="none" stroke="#2d3748" stroke-width="0.5"/>
    <polygon points="723.0,554.0 744.0,567.0 723.0,580.0 702.0,567.0" fill="none" stroke="#2d3748" stroke-width="0.5"/>
    <polygon points="765.0,554.0 786.0,567.0 765.0,580.0 744.0,567.0" fill="none" stroke="#2d3748" stroke-width="0.5"/>
    <polygon points="807.0,554.0 828.0,567.0 807.0,580.0 786.0,567.0" fill="none" stroke="#2d3748" stroke-width="0.5"/>
    <polygon points="849.0,554.0 870.0,567.0 849.0,580.0 828.0,567.0" fill="none" stroke="#2d3748" stroke-width="0.5"/>
    <polygon points="891.0,554.0 912.0,567.0 891.0,580.0 870.0,567.0" fill="none" stroke="#2d3748" stroke-width="0.5"/>
    <polygon points="933.0,554.0 954.0,567.0 933.0,580.0 912.0,567.0" fill="none" stroke="#2d3748" stroke-width="0.5"/>
    <polygon points="975.0,554.0 996.0,567.0 975.0,580.0 954.0,567.0" fill="none" stroke="#2d3748" stroke-width="0.5"/>
    <polygon points="744.0,567.0 765.0,580.0 744.0,593.0 723.0,580.0" fill="none" stroke="#2d3748" stroke-width="0.5"/>
    <polygon points="786.0,567.0 807.0,580.0 786.0,593.0 765.0,580.0" fill="none" stroke="#2d3748" stroke-width="0.5"/>
    <polygon points="828.0,567.0 849.0,580.0 828.0,593.0 807.0,580.0" fill="none" stroke="#2d3748" stroke-width="0.5"/>
    <polygon points="870.0,567.0 891.0,580.0 870.0,593.0 849.0,580.0" fill="none" stroke="#2d3748" stroke-width="0.5"/>
    <polygon points="912.0,567.0 933.0,580.0 912.0,593.0 891.0,580.0" fill="none" stroke="#2d3748" stroke-width="0.5"/>
    <polygon points="954.0,567.0 975.0,580.0 954.0,593.0 933.0,580.0" fill="none" stroke="#2d3748" stroke-width="0.5"/>
    <polygon points="996.0,567.0 1017.0,580.0 996.0,593.0 975.0,580.0" fill="none" stroke="#2d3748" stroke-width="0.5"/>
    <polygon points="765.0,580.0 786.0,593.0 765.0,606.0 744.0,593.0" fill="none" stroke="#2d3748" stroke-width="0.5"/>
    <polygon points="807.0,580.0 828.0,593.0 807.0,606.0 786.0,593.0" fill="none" stroke="#2d3748" stroke-width="0.5"/>
    <polygon points="849.0,580.0 870.0,593.0 849.0,606.0 828.0,593.0" fill="none" stroke="#2d3748" stroke-width="0.5"/>
    <polygon points="891.0,580.0 912.0,593.0 891.0,606.0 870.0,593.0" fill="none" stroke="#2d3748" stroke-width="0.5"/>
    <polygon points="933.0,580.0 954.0,593.0 933.0,606.0 912.0,593.0" fill="none" stroke="#2d3748" stroke-width="0.5"/>
    <polygon points="975.0,580.0 996.0,593.0 975.0,606.0 954.0,593.0" fill="none" stroke="#2d3748" stroke-width="0.5"/>
    <polygon points="1017.0,580.0 1038.0,593.0 1017.0,606.0 996.0,593.0" fill="none" stroke="#2d3748" stroke-width="0.5"/>
    <polygon points="786.0,593.0 807.0,606.0 786.0,619.0 765.0,606.0" fill="none" stroke="#2d3748" stroke-width="0.5"/>
    <polygon points="828.0,593.0 849.0,606.0 828.0,619.0 807.0,606.0" fill="none" stroke="#2d3748" stroke-width="0.5"/>
    <polygon points="870.0,593.0 891.0,606.0 870.0,619.0 849.0,606.0" fill="none" stroke="#2d3748" stroke-width="0.5"/>
    <polygon points="912.0,593.0 933.0,606.0 912.0,619.0 891.0,606.0" fill="none" stroke="#2d3748" stroke-width="0.5"/>
    <polygon points="954.0,593.0 975.0,606.0 954.0,619.0 933.0,606.0" fill="none" stroke="#2d3748" stroke-width="0.5"/>
    <polygon points="996.0,593.0 1017.0,606.0 996.0,619.0 975.0,606.0" fill="none" stroke="#2d3748" stroke-width="0.5"/>
    <polygon points="1038.0,593.0 1059.0,606.0 1038.0,619.0 1017.0,606.0" fill="none" stroke="#2d3748" stroke-width="0.5"/>
    <polygon points="807.0,606.0 828.0,619.0 807.0,632.0 786.0,619.0" fill="none" stroke="#2d3748" stroke-width="0.5"/>
    <polygon points="849.0,606.0 870.0,619.0 849.0,632.0 828.0,619.0" fill="none" stroke="#2d3748" stroke-width="0.5"/>
    <polygon points="891.0,606.0 912.0,619.0 891.0,632.0 870.0,619.0" fill="none" stroke="#2d3748" stroke-width="0.5"/>
    <polygon points="933.0,606.0 954.0,619.0 933.0,632.0 912.0,619.0" fill="none" stroke="#2d3748" stroke-width="0.5"/>
    <polygon points="975.0,606.0 996.0,619.0 975.0,632.0 954.0,619.0" fill="none" stroke="#2d3748" stroke-width="0.5"/>
    <polygon points="1017.0,606.0 1038.0,619.0 1017.0,632.0 996.0,619.0" fill="none" stroke="#2d3748" stroke-width="0.5"/>
    <polygon points="1059.0,606.0 1080.0,619.0 1059.0,632.0 1038.0,619.0" fill="none" stroke="#2d3748" stroke-width="0.5"/>
    <polygon points="828.0,619.0 849.0,632.0 828.0,645.0 807.0,632.0" fill="none" stroke="#2d3748" stroke-width="0.5"/>
    <polygon points="870.0,619.0 891.0,632.0 870.0,645.0 849.0,632.0" fill="none" stroke="#2d3748" stroke-width="0.5"/>
    <polygon points="912.0,619.0 933.0,632.0 912.0,645.0 891.0,632.0" fill="none" stroke="#2d3748" stroke-width="0.5"/>
    <polygon points="954.0,619.0 975.0,632.0 954.0,645.0 933.0,632.0" fill="none" stroke="#2d3748" stroke-width="0.5"/>
    <polygon points="996.0,619.0 1017.0,632.0 996.0,645.0 975.0,632.0" fill="none" stroke="#2d3748" stroke-width="0.5"/>
    <polygon points="1038.0,619.0 1059.0,632.0 1038.0,645.0 1017.0,632.0" fill="none" stroke="#2d3748" stroke-width="0.5"/>
    <polygon points="1080.0,619.0 1101.0,632.0 1080.0,645.0 1059.0,632.0" fill="none" stroke="#2d3748" stroke-width="0.5"/>
    <polygon points="849.0,632.0 870.0,645.0 849.0,658.0 828.0,645.0" fill="none" stroke="#2d3748" stroke-width="0.5"/>
    <polygon points="891.0,632.0 912.0,645.0 891.0,658.0 870.0,645.0" fill="none" stroke="#2d3748" stroke-width="0.5"/>
    <polygon points="933.0,632.0 954.0,645.0 933.0,658.0 912.0,645.0" fill="none" stroke="#2d3748" stroke-width="0.5"/>
    <polygon points="975.0,632.0 996.0,645.0 975.0,658.0 954.0,645.0" fill="none" stroke="#2d3748" stroke-width="0.5"/>
    <polygon points="1017.0,632.0 1038.0,645.0 1017.0,658.0 996.0,645.0" fill="none" stroke="#2d3748" stroke-width="0.5"/>
    <polygon points="1059.0,632.0 1080.0,645.0 1059.0,658.0 1038.0,645.0" fill="none" stroke="#2d3748" stroke-width="0.5"/>
    <polygon points="1101.0,632.0 1122.0,645.0 1101.0,658.0 1080.0,645.0" fill="none" stroke="#2d3748" stroke-width="0.5"/>
    <polygon points="870.0,645.0 891.0,658.0 870.0,671.0 849.0,658.0" fill="none" stroke="#2d3748" stroke-width="0.5"/>
    <polygon points="912.0,645.0 933.0,658.0 912.0,671.0 891.0,658.0" fill="none" stroke="#2d3748" stroke-width="0.5"/>
    <polygon points="954.0,645.0 975.0,658.0 954.0,671.0 933.0,658.0" fill="none" stroke="#2d3748" stroke-width="0.5"/>
    <polygon points="996.0,645.0 1017.0,658.0 996.0,671.0 975.0,658.0" fill="none" stroke="#2d3748" stroke-width="0.5"/>
    <polygon points="1038.0,645.0 1059.0,658.0 1038.0,671.0 1017.0,658.0" fill="none" stroke="#2d3748" stroke-width="0.5"/>
    <polygon points="1080.0,645.0 1101.0,658.0 1080.0,671.0 1059.0,658.0" fill="none" stroke="#2d3748" stroke-width="0.5"/>
    <polygon points="1122.0,645.0 1143.0,658.0 1122.0,671.0 1101.0,658.0" fill="none" stroke="#2d3748" stroke-width="0.5"/>
    <polygon points="891.0,658.0 912.0,671.0 891.0,684.0 870.0,671.0" fill="none" stroke="#2d3748" stroke-width="0.5"/>
    <polygon points="933.0,658.0 954.0,671.0 933.0,684.0 912.0,671.0" fill="none" stroke="#2d3748" stroke-width="0.5"/>
    <polygon points="975.0,658.0 996.0,671.0 975.0,684.0 954.0,671.0" fill="none" stroke="#2d3748" stroke-width="0.5"/>
    <polygon points="1017.0,658.0 1038.0,671.0 1017.0,684.0 996.0,671.0" fill="none" stroke="#2d3748" stroke-width="0.5"/>
    <polygon points="1059.0,658.0 1080.0,671.0 1059.0,684.0 1038.0,671.0" fill="none" stroke="#2d3748" stroke-width="0.5"/>
    <polygon points="1101.0,658.0 1122.0,671.0 1101.0,684.0 1080.0,671.0" fill="none" stroke="#2d3748" stroke-width="0.5"/>
    <polygon points="1143.0,658.0 1164.0,671.0 1143.0,684.0 1122.0,671.0" fill="none" stroke="#2d3748" stroke-width="0.5"/>
    <polygon points="912.0,671.0 933.0,684.0 912.0,697.0 891.0,684.0" fill="none" stroke="#2d3748" stroke-width="0.5"/>
    <polygon points="954.0,671.0 975.0,684.0 954.0,697.0 933.0,684.0" fill="none" stroke="#2d3748" stroke-width="0.5"/>
    <polygon points="996.0,671.0 1017.0,684.0 996.0,697.0 975.0,684.0" fill="none" stroke="#2d3748" stroke-width="0.5"/>
    <polygon points="1038.0,671.0 1059.0,684.0 1038.0,697.0 1017.0,684.0" fill="none" stroke="#2d3748" stroke-width="0.5"/>
    <polygon points="1080.0,671.0 1101.0,684.0 1080.0,697.0 1059.0,684.0" fill="none" stroke="#2d3748" stroke-width="0.5"/>
    <polygon points="1122.0,671.0 1143.0,684.0 1122.0,697.0 1101.0,684.0" fill="none" stroke="#2d3748" stroke-width="0.5"/>
    <polygon points="1164.0,671.0 1185.0,684.0 1164.0,697.0 1143.0,684.0" fill="none" stroke="#2d3748" stroke-width="0.5"/>
    <polygon points="933.0,684.0 954.0,697.0 933.0,710.0 912.0,697.0" fill="none" stroke="#2d3748" stroke-width="0.5"/>
    <polygon points="975.0,684.0 996.0,697.0 975.0,710.0 954.0,697.0" fill="none" stroke="#2d3748" stroke-width="0.5"/>
    <polygon points="1017.0,684.0 1038.0,697.0 1017.0,710.0 996.0,697.0" fill="none" stroke="#2d3748" stroke-width="0.5"/>
    <polygon points="1059.0,684.0 1080.0,697.0 1059.0,710.0 1038.0,697.0" fill="none" stroke="#2d3748" stroke-width="0.5"/>
    <polygon points="1101.0,684.0 1122.0,697.0 1101.0,710.0 1080.0,697.0" fill="none" stroke="#2d3748" stroke-width="0.5"/>
    <polygon points="1143.0,684.0 1164.0,697.0 1143.0,710.0 1122.0,697.0" fill="none" stroke="#2d3748" stroke-width="0.5"/>
    <polygon points="1185.0,684.0 1206.0,697.0 1185.0,710.0 1164.0,697.0" fill="none" stroke="#2d3748" stroke-width="0.5"/>
    <polygon points="1122.0,775.0 1143.0,762.0 1143.0,616.0 1122.0,629.0" fill="#b2b2b2" stroke="none"/>
    <polygon points="1164.0,775.0 1143.0,788.0 1143.0,642.0 1164.0,629.0" fill="#d8d8d8" stroke="none"/>
    <polygon points="1143.0,616.0 1164.0,629.0 1143.0,642.0 1122.0,629.0" fill="#ffffff" stroke="#ffffff" stroke-width="0.5"/>
    <polygon points="954.0,697.0 975.0,710.0 954.0,723.0 933.0,710.0" fill="none" stroke="#2d3748" stroke-width="0.5"/>
    <polygon points="996.0,697.0 1017.0,710.0 996.0,723.0 975.0,710.0" fill="none" stroke="#2d3748" stroke-width="0.5"/>
    <polygon points="1038.0,697.0 1059.0,710.0 1038.0,723.0 1017.0,710.0" fill="none" stroke="#2d3748" stroke-width="0.5"/>
    <polygon points="1080.0,697.0 1101.0,710.0 1080.0,723.0 1059.0,710.0" fill="none" stroke="#2d3748" stroke-width="0.5"/>
    <polygon points="1122.0,697.0 1143.0,710.0 1122.0,723.0 1101.0,710.0" fill="none" stroke="#2d3748" stroke-width="0.5"/>
    <polygon points="1164.0,697.0 1185.0,710.0 1164.0,723.0 1143.0,710.0" fill="none" stroke="#2d3748" stroke-width="0.5"/>
    <polygon points="1206.0,697.0 1227.0,710.0 1206.0,723.0 1185.0,710.0" fill="none" stroke="#2d3748" stroke-width="0.5"/>
    <polygon points="975.0,710.0 996.0,723.0 975.0,736.0 954.0,723.0" fill="none" stroke="#2d3748" stroke-width="0.5"/>
    <polygon points="1017.0,710.0 1038.0,723.0 1017.0,736.0 996.0,723.0" fill="none" stroke="#2d3748" stroke-width="0.5"/>
    <polygon points="1059.0,710.0 1080.0,723.0 1059.0,736.0 1038.0,723.0" fill="none" stroke="#2d3748" stroke-width="0.5"/>
    <polygon points="1101.0,710.0 1122.0,723.0 1101.0,736.0 1080.0,723.0" fill="none" stroke="#2d3748" stroke-width="0.5"/>
    <polygon points="1143.0,710.0 1164.0,723.0 1143.0,736.0 1122.0,723.0" fill="none" stroke="#2d3748" stroke-width="0.5"/>
    <polygon points="1185.0,710.0 1206.0,723.0 1185.0,736.0 1164.0,723.0" fill="none" stroke="#2d3748" stroke-width="0.5"/>
    <polygon points="1227.0,710.0 1248.0,723.0 1227.0,736.0 1206.0,723.0" fill="none" stroke="#2d3748" stroke-width="0.5"/>
    <polygon points="996.0,723.0 1017.0,736.0 996.0,749.0 975.0,736.0" fill="none" stroke="#2d3748" stroke-width="0.5"/>
    <polygon points="1038.0,723.0 1059.0,736.0 1038.0,749.0 1017.0,736.0" fill="none" stroke="#2d3748" stroke-width="0.5"/>
    <polygon points="1080.0,723.0 1101.0,736.0 1080.0,749.0 1059.0,736.0" fill="none" stroke="#2d3748" stroke-width="0.5"/>
    <polygon points="1122.0,723.0 1143.0,736.0 1122.0,749.0 1101.0,736.0" fill="none" stroke="#2d3748" stroke-width="0.5"/>
    <polygon points="1164.0,723.0 1185.0,736.0 1164.0,749.0 1143.0,736.0" fill="none" stroke="#2d3748" stroke-width="0.5"/>
    <polygon points="1206.0,723.0 1227.0,736.0 1206.0,749.0 1185.0,736.0" fill="none" stroke="#2d3748" stroke-width="0.5"/>
    <polygon points="1248.0,723.0 1269.0,736.0 1248.0,749.0 1227.0,736.0" fill="none" stroke="#2d3748" stroke-width="0.5"/>
    <polygon points="1101.0,788.0 1122.0,775.0 1122.0,687.6 1101.0,700.6" fill="#4547a8" stroke="none"/>
    <polygon points="1143.0,788.0 1122.0,801.0 1122.0,713.6 1143.0,700.6" fill="#5456cc" stroke="none"/>
    <polygon points="1122.0,687.6 1143.0,700.6 1122.0,713.6 1101.0,700.6" fill="#6366f1" stroke="#767aff" stroke-width="0.5"/>
    <polygon points="1017.0,736.0 1038.0,749.0 1017.0,762.0 996.0,749.0" fill="none" stroke="#2d3748" stroke-width="0.5"/>
    <polygon points="1059.0,736.0 1080.0,749.0 1059.0,762.0 1038.0,749.0" fill="none" stroke="#2d3748" stroke-width="0.5"/>
    <polygon points="1101.0,736.0 1122.0,749.0 1101.0,762.0 1080.0,749.0" fill="none" stroke="#2d3748" stroke-width="0.5"/>
    <polygon points="1143.0,736.0 1164.0,749.0 1143.0,762.0 1122.0,749.0" fill="none" stroke="#2d3748" stroke-width="0.5"/>
    <polygon points="1185.0,736.0 1206.0,749.0 1185.0,762.0 1164.0,749.0" fill="none" stroke="#2d3748" stroke-width="0.5"/>
    <polygon points="1227.0,736.0 1248.0,749.0 1227.0,762.0 1206.0,749.0" fill="none" stroke="#2d3748" stroke-width="0.5"/>
    <polygon points="1269.0,736.0 1290.0,749.0 1269.0,762.0 1248.0,749.0" fill="none" stroke="#2d3748" stroke-width="0.5"/>
    <polygon points="1038.0,749.0 1059.0,762.0 1038.0,775.0 1017.0,762.0" fill="none" stroke="#2d3748" stroke-width="0.5"/>
    <polygon points="1080.0,749.0 1101.0,762.0 1080.0,775.0 1059.0,762.0" fill="none" stroke="#2d3748" stroke-width="0.5"/>
    <polygon points="1122.0,749.0 1143.0,762.0 1122.0,775.0 1101.0,762.0" fill="none" stroke="#2d3748" stroke-width="0.5"/>
    <polygon points="1164.0,749.0 1185.0,762.0 1164.0,775.0 1143.0,762.0" fill="none" stroke="#2d3748" stroke-width="0.5"/>
    <polygon points="1206.0,749.0 1227.0,762.0 1206.0,775.0 1185.0,762.0" fill="none" stroke="#2d3748" stroke-width="0.5"/>
    <polygon points="1248.0,749.0 1269.0,762.0 1248.0,775.0 1227.0,762.0" fill="none" stroke="#2d3748" stroke-width="0.5"/>
    <polygon points="1059.0,762.0 1080.0,775.0 1059.0,788.0 1038.0,775.0" fill="none" stroke="#2d3748" stroke-width="0.5"/>
    <polygon points="1101.0,762.0 1122.0,775.0 1101.0,788.0 1080.0,775.0" fill="none" stroke="#2d3748" stroke-width="0.5"/>
    <polygon points="1185.0,762.0 1206.0,775.0 1185.0,788.0 1164.0,775.0" fill="none" stroke="#2d3748" stroke-width="0.5"/>
    <polygon points="1227.0,762.0 1248.0,775.0 1227.0,788.0 1206.0,775.0" fill="none" stroke="#2d3748" stroke-width="0.5"/>
    <polygon points="1080.0,775.0 1101.0,788.0 1080.0,801.0 1059.0,788.0" fill="none" stroke="#2d3748" stroke-width="0.5"/>
    <polygon points="1164.0,775.0 1185.0,788.0 1164.0,801.0 1143.0,788.0" fill="none" stroke="#2d3748" stroke-width="0.5"/>
    <polygon points="1206.0,775.0 1227.0,788.0 1206.0,801.0 1185.0,788.0" fill="none" stroke="#2d3748" stroke-width="0.5"/>
    <polygon points="1101.0,788.0 1122.0,801.0 1101.0,814.0 1080.0,801.0" fill="none" stroke="#2d3748" stroke-width="0.5"/>
    <polygon points="1143.0,788.0 1164.0,801.0 1143.0,814.0 1122.0,801.0" fill="none" stroke="#2d3748" stroke-width="0.5"/>
    <polygon points="1122.0,801.0 1143.0,814.0 1122.0,827.0 1101.0,814.0" fill="none" stroke="#2d3748" stroke-width="0.5"/>
  </g>
  
  <text x="30" y="1050">Contribution City • 2025</text>
  <text x="1170" y="1050" text-anchor="end" fill="#7c3aed">Engineering Mode</text>
</svg>