<?xml version="1.0" encoding="UTF-8"?>
<svg xmlns="http://www.w3.org/2000/svg" width="2580" height="1860" viewBox="0 0 2580 1860" role="img">
  <defs>
    <style>text { font-family: 'Segoe UI', Ubuntu, sans-serif; fill: #94a3b8; font-size: 14px; }</style>
    <linearGradient id="bg-gradient" x1="0%" y1="0%" x2="0%" y2="100%">
      <stop offset="0%" style="stop-color:#0f172a;stop-opacity:1" />
      <stop offset="100%" style="stop-color:#1e1b4b;stop-opacity:1" />
    </linearGradient>
  </defs>
  <rect width="100%" height="100%" fill="url(#bg-gradient)" />
  
  <g transform="translate(0,20)">
    <polygon points="324.0,60.0 366.0,86.0 324.0,112.0 282.0,86.0" fill="none" stroke="#2d3748" stroke-width="0.5"/>
    <polygon points="282.0,86.0 324.0,112.0 282.0,138.0 240.0,112.0" fill="none" stroke="#2d3748" stroke-width="0.5"/>
    <polygon points="366.0,86.0 408.0,112.0 366.0,138.0 324.0,112.0" fill="none" stroke="#2d3748" stroke-width="0.5"/>
    <polygon points="240.0,112.0 282.0,138.0 240.0,164.0 198.0,138.0" fill="none" stroke="#2d3748" stroke-width="0.5"/>
    <polygon points="324.0,112.0 366.0,138.0 324.0,164.0 282.0,138.0" fill="none" stroke="#2d3748" stroke-width="0.5"/>
    <polygon points="408.0,112.0 450.0,138.0 408.0,164.0 366.0,138.0" fill="none" stroke="#2d3748" stroke-width="0.5"/>
    <polygon points="198.0,138.0 240.0,164.0 198.0,190.0 156.0,164.0" fill="none" stroke="#2d3748" stroke-width="0.5"/>
    <polygon points="282.0,138.0 324.0,164.0 282.0,190.0 240.0,164.0" fill="none" stroke="#2d3748" stroke-width="0.5"/>
    <polygon points="366.0,138.0 408.0,164.0 366.0,190.0 324.0,164.0" fill="none" stroke="#2d3748" stroke-width="0.5"/>
    <polygon points="450.0,138.0 492.0,164.0 450.0,190.0 408.0,164.0" fill="none" stroke="#2d3748" stroke-width="0.5"/>
    <polygon points="240.0,164.0 282.0,190.0 240.0,216.0 198.0,190.0" fill="none" stroke="#2d3748" stroke-width="0.5"/>
    <polygon points="324.0,164.0 366.0,190.0 324.0,216.0 282.0,190.0" fill="none" stroke="#2d3748" stroke-width="0.5"/>
    <polygon points="408.0,164.0 450.0,190.0 408.0,216.0 366.0,190.0" fill="none" stroke="#2d3748" stroke-width="0.5"/>
    <polygon points="492.0,164.0 534.0,190.0 492.0,216.0 450.0,190.0" fill="none" stroke="#2d3748" stroke-width="0.5"/>
    <polygon points="198.0,190.0 240.0,216.0 198.0,242.0 156.0,216.0" fill="none" stroke="#2d3748" stroke-width="0.5"/>
    <polygon points="282.0,190.0 324.0,216.0 282.0,242.0 240.0,216.0" fill="none" stroke="#2d3748" stroke-width="0.5"/>
    <polygon points="366.0,190.0 408.0,216.0 366.0,242.0 324.0,216.0" fill="none" stroke="#2d3748" stroke-width="0.5"/>
    <polygon points="450.0,190.0 492.0,216.0 450.0,242.0 408.0,216.0" fill="none" stroke="#2d3748" stroke-width="0.5"/>
    <polygon points="534.0,190.0 576.0,216.0 534.0,242.0 492.0,216.0" fill="none" stroke="#2d3748" stroke-width="0.5"/>
    <polygon points="156.0,216.0 198.0,242.0 156.0,268.0 114.0,242.0" fill="none" stroke="#2d3748" stroke-width="0.5"/>
    <polygon points="240.0,216.0 282.0,242.0 240.0,268.0 198.0,242.0" fill="none" stroke="#2d3748" stroke-width="0.5"/>
    <polygon points="324.0,216.0 366.0,242.0 324.0,268.0 282.0,242.0" fill="none" stroke="#2d3748" stroke-width="0.5"/>
    <polygon points="408.0,216.0 450.0,242.0 408.0,268.0 366.0,242.0" fill="none" stroke="#2d3748" stroke-width="0.5"/>
    <polygon points="492.0,216.0 534.0,242.0 492.0,268.0 450.0,242.0" fill="none" stroke="#2d3748" stroke-width="0.5"/>
    <polygon points="576.0,216.0 618.0,242.0 576.0,268.0 534.0,242.0" fill="none" stroke="#2d3748" stroke-width="0.5"/>
    <polygon points="114.0,242.0 156.0,268.0 114.0,294.0 72.0,268.0" fill="none" stroke="#2d3748" stroke-width="0.5"/>
    <polygon points="198.0,242.0 240.0,268.0 198.0,294.0 156.0,268.0" fill="none" stroke="#2d3748" stroke-width="0.5"/>
    <polygon points="282.0,242.0 324.0,268.0 282.0,294.0 240.0,268.0" fill="none" stroke="#2d3748" stroke-width="0.5"/>
    <polygon points="366.0,242.0 408.0,268.0 366.0,294.0 324.0,268.0" fill="none" stroke="#2d3748" stroke-width="0.5"/>
    <polygon points="450.0,242.0 492.0,268.0 450.0,294.0 408.0,268.0" fill="none" stroke="#2d3748" stroke-width="0.5"/>
    <polygon points="534.0,242.0 576.0,268.0 534.0,294.0 492.0,268.0" fill="none" stroke="#2d3748" stroke-width="0.5"/>
    <polygon points="618.0,242.0 660.0,268.0 618.0,294.0 576.0,268.0" fill="none" stroke="#2d3748" stroke-width="0.5"/>
    <polygon points="156.0,268.0 198.0,294.0 156.0,320.0 114.0,294.0" fill="none" stroke="#2d3748" stroke-width="0.5"/>
    <polygon points="240.0,268.0 282.0,294.0 240.0,320.0 198.0,294.0" fill="none" stroke="#2d3748" stroke-width="0.5"/>
    <polygon points="324.0,268.0 366.0,294.0 324.0,320.0 282.0,294.0" fill="none" stroke="#2d3748" stroke-width="0.5"/>
    <polygon points="408.0,268.0 450.0,294.0 408.0,320.0 366.0,294.0" fill="none" stroke="#2d3748" stroke-width="0.5"/>
    <polygon points="492.0,268.0 534.0,294.0 492.0,320.0 450.0,294.0" fill="none" stroke="#2d3748" stroke-width="0.5"/>
    <polygon points="576.0,268.0 618.0,294.0 576.0,320.0 534.0,294.0" fill="none" stroke="#2d3748" stroke-width="0.5"/>
    <polygon points="660.0,268.0 702.0,294.0 660.0,320.0 618.0,294.0" fill="none" stroke="#2d3748" stroke-width="0.5"/>
    <polygon points="198.0,294.0 240.0,320.0 198.0,346.0 156.0,320.0" fill="none" stroke="#2d3748" stroke-width="0.5"/>
    <polygon points="282.0,294.0 324.0,320.0 282.0,346.0 240.0,320.0" fill="none" stroke="#2d3748" stroke-width="0.5"/>
    <polygon points="366.0,294.0 408.0,320.0 366.0,346.0 324.0,320.0" fill="none" stroke="#2d3748" stroke-width="0.5"/>
    <polygon points="450.0,294.0 492.0,320.0 450.0,346.0 408.0,320.0" fill="none" stroke="#2d3748" stroke-width="0.5"/>
    <polygon points="534.0,294.0 576.0,320.0 534.0,346.0 492.0,320.0" fill="none" stroke="#2d3748" stroke-width="0.5"/>
    <polygon points="618.0,294.0 660.0,320.0 618.0,346.0 576.0,320.0" fill="none" stroke="#2d3748" stroke-width="0.5"/>
    <polygon points="702.0,294.0 744.0,320.0 702.0,346.0 660.0,320.0" fill="none" stroke="#2d3748" stroke-width="0.5"/>
    <polygon points="240.0,320.0 282.0,346.0 240.0,372.0 198.0,346.0" fill="none" stroke="#2d3748" stroke-width="0.5"/>
    <polygon points="324.0,320.0 366.0,346.0 324.0,372.0 282.0,346.0" fill="none" stroke="#2d3748" stroke-width="0.5"/>
    <polygon points="408.0,320.0 450.0,346.0 408.0,372.0 366.0,346.0" fill="none" stroke="#2d3748" stroke-width="0.5"/>
    <polygon points="492.0,320.0 534.0,346.0 492.0,372.0 450.0,346.0" fill="none" stroke="#2d3748" stroke-width="0.5"/>
    <polygon points="576.0,320.0 618.0,346.0 576.0,372.0 534.0,346.0" fill="none" stroke="#2d3748" stroke-width="0.5"/>
    <polygon points="660.0,320.0 702.0,346.0 660.0,372.0 618.0,346.0" fill="none" stroke="#2d3748" stroke-width="0.5"/>
    <polygon points="744.0,320.0 786.0,346.0 744.0,372.0 702.0,346.0" fill="none" stroke="#2d3748" stroke-width="0.5"/>
    <polygon points="282.0,346.0 324.0,372.0 282.0,398.0 240.0,372.0" fill="none" stroke="#2d3748" stroke-width="0.5"/>
    <polygon points="366.0,346.0 408.0,372.0 366.0,398.0 324.0,372.0" fill="none" stroke="#2d3748" stroke-width="0.5"/>
    <polygon points="450.0,346.0 492.0,372.0 450.0,398.0 408.0,372.0" fill="none" stroke="#2d3748" stroke-width="0.5"/>
    <polygon points="534.0,346.0 576.0,372.0 534.0,398.0 492.0,372.0" fill="none" stroke="#2d3748" stroke-width="0.5"/>
    <polygon points="618.0,346.0 660.0,372.0 618.0,398.0 576.0,372.0" fill="none" stroke="#2d3748" stroke-width="0.5"/>
    <polygon points="702.0,346.0 744.0,372.0 702.0,398.0 660.0,372.0" fill="none" stroke="#2d3748" stroke-width="0.5"/>
    <polygon points="786.0,346.0 828.0,372.0 786.0,398.0 744.0,372.0" fill="none" stroke="#2d3748" stroke-width="0.5"/>
    <polygon points="324.0,372.0 366.0,398.0 324.0,424.0 282.0,398.0" fill="none" stroke="#2d3748" stroke-width="0.5"/>
    <polygon points="408.0,372.0 450.0,398.0 408.0,424.0 366.0,398.0" fill="none" stroke="#2d3748" stroke-width="0.5"/>
    <polygon points="492.0,372.0 534.0,398.0 492.0,424.0 450.0,398.0" fill="none" stroke="#2d3748" stroke-width="0.5"/>
    <polygon points="576.0,372.0 618.0,398.0 576.0,424.0 534.0,398.0" fill="none" stroke="#2d3748" stroke-width="0.5"/>
    <polygon points="660.0,372.0 702.0,398.0 660.0,424.0 618.0,398.0" fill="none" stroke="#2d3748" stroke-width="0.5"/>
    <polygon points="744.0,372.0 786.0,398.0 744.0,424.0 702.0,398.0" fill="none" stroke="#2d3748" stroke-width="0.5"/>
    <polygon points="828.0,372.0 870.0,398.0 828.0,424.0 786.0,398.0" fill="none" stroke="#2d3748" stroke-width="0.5"/>
    <polygon points="366.0,398.0 408.0,424.0 366.0,450.0 324.0,424.0" fill="none" stroke="#2d3748" stroke-width="0.5"/>
    <polygon points="450.0,398.0 492.0,424.0 450.0,450.0 408.0,424.0" fill="none" stroke="#2d3748" stroke-width="0.5"/>
    <polygon points="534.0,398.0 576.0,424.0 534.0,450.0 492.0,424.0" fill="none" stroke="#2d3748" stroke-width="0.5"/>
    <polygon points="618.0,398.0 660.0,424.0 618.0,450.0 576.0,424.0" fill="none" stroke="#2d3748" stroke-width="0.5"/>
    <polygon points="702.0,398.0 744.0,424.0 702.0,450.0 660.0,424.0" fill="none" stroke="#2d3748" stroke-width="0.5"/>
    <polygon points="786.0,398.0 828.0,424.0 786.0,450.0 744.0,424.0" fill="none" stroke="#2d3748" stroke-width="0.5"/>
    <polygon points="870.0,398.0 912.0,424.0 870.0,450.0 828.0,424.0" fill="none" stroke="#2d3748" stroke-width="0.5"/>
    <polygon points="408.0,424.0 450.0,450.0 408.0,476.0 366.0,450.0" fill="none" stroke="#2d3748" stroke-width="0.5"/>
    <polygon points="492.0,424.0 534.0,450.0 492.0,476.0 450.0,450.0" fill="none" stroke="#2d3748" stroke-width="0.5"/>
    <polygon points="576.0,424.0 618.0,450.0 576.0,476.0 534.0,450.0" fill="none" stroke="#2d3748" stroke-width="0.5"/>
    <polygon points="660.0,424.0 702.0,450.0 660.0,476.0 618.0,450.0" fill="none" stroke="#2d3748" stroke-width="0.5"/>
    <polygon points="744.0,424.0 786.0,450.0 744.0,476.0 702.0,450.0" fill="none" stroke="#2d3748" stroke-width="0.5"/>
    <polygon points="828.0,424.0 870.0,450.0 828.0,476.0 786.0,450.0" fill="none" stroke="#2d3748" stroke-width="0.5"/>
    <polygon points="912.0,424.0 954.0,450.0 912.0,476.0 870.0,450.0" fill="none" stroke="#2d3748" stroke-width="0.5"/>
    <polygon points="450.0,450.0 492.0,476.0 450.0,502.0 408.0,476.0" fill="none" stroke="#2d3748" stroke-width="0.5"/>
    <polygon points="534.0,450.0 576.0,476.0 534.0,502.0 492.0,476.0" fill="none" stroke="#2d3748" stroke-width="0.5"/>
    <polygon points="618.0,450.0 660.0,476.0 618.0,502.0 576.0,476.0" fill="none" stroke="#2d3748" stroke-width="0.5"/>
    <polygon points="702.0,450.0 744.0,476.0 702.0,502.0 660.0,476.0" fill="none" stroke="#2d3748" stroke-width="0.5"/>
    <polygon points="786.0,450.0 828.0,476.0 786.0,502.0 744.0,476.0" fill="none" stroke="#2d3748" stroke-width="0.5"/>
    <polygon points="870.0,450.0 912.0,476.0 870.0,502.0 828.0,476.0" fill="none" stroke="#2d3748" stroke-width="0.5"/>
    <polygon points="954.0,450.0 996.0,476.0 954.0,502.0 912.0,476.0" fill="none" stroke="#2d3748" stroke-width="0.5"/>
    <polygon points="492.0,476.0 534.0,502.0 492.0,528.0 450.0,502.0" fill="none" stroke="#2d3748" stroke-width="0.5"/>
    <polygon points="576.0,476.0 618.0,502.0 576.0,528.0 534.0,502.0" fill="none" stroke="#2d3748" stroke-width="0.5"/>
    <polygon points="660.0,476.0 702.0,502.0 660.0,528.0 618.0,502.0" fill="none" stroke="#2d3748" stroke-width="0.5"/>
    <polygon points="744.0,476.0 786.0,502.0 744.0,528.0 702.0,502.0" fill="none" stroke="#2d3748" stroke-width="0.5"/>
    <polygon points="828.0,476.0 870.0,502.0 828.0,528.0 786.0,502.0" fill="none" stroke="#2d3748" stroke-width="0.5"/>
    <polygon points="912.0,476.0 954.0,502.0 912.0,528.0 870.0,502.0" fill="none" stroke="#2d3748" stroke-width="0.5"/>
    <polygon points="996.0,476.0 1038.0,502.0 996.0,528.0 954.0,502.0" fill="none" stroke="#2d3748" stroke-width="0.5"/>
    <polygon points="534.0,502.0 576.0,528.0 534.0,554.0 492.0,528.0" fill="none" stroke="#2d3748" stroke-width="0.5"/>
    <polygon points="618.0,502.0 660.0,528.0 618.0,554.0 576.0,528.0" fill="none" stroke="#2d3748" stroke-width="0.5"/>
    <polygon points="702.0,502.0 744.0,528.0 702.0,554.0 660.0,528.0" fill="none" stroke="#2d3748" stroke-width="0.5"/>
    <polygon points="786.0,502.0 828.0,528.0 786.0,554.0 744.0,528.0" fill="none" stroke="#2d3748" stroke-width="0.5"/>
    <polygon points="870.0,502.0 912.0,528.0 870.0,554.0 828.0,528.0" fill="none" stroke="#2d3748" stroke-width="0.5"/>
    <polygon points="954.0,502.0 996.0,528.0 954.0,554.0 912.0,528.0" fill="none" stroke="#2d3748" stroke-width="0.5"/>
    <polygon points="1038.0,502.0 1080.0,528.0 1038.0,554.0 996.0,528.0" fill="none" stroke="#2d3748" stroke-width="0.5"/>
    <polygon points="576.0,528.0 618.0,554.0 576.0,580.0 534.0,554.0" fill="none" stroke="#2d3748" stroke-width="0.5"/>
    <polygon points="660.0,528.0 702.0,554.0 660.0,580.0 618.0,554.0" fill="none" stroke="#2d3748" stroke-width="0.5"/>
    <polygon points="744.0,528.0 786.0,554.0 744.0,580.0 702.0,554.0" fill="none" stroke="#2d3748" stroke-width="0.5"/>
    <polygon points="828.0,528.0 870.0,554.0 828.0,580.0 786.0,554.0" fill="none" stroke="#2d3748" stroke-width="0.5"/>
    <polygon points="912.0,528.0 954.0,554.0 912.0,580.0 870.0,554.0" fill="none" stroke="#2d3748" stroke-width="0.5"/>
    <polygon points="996.0,528.0 1038.0,554.0 996.0,580.0 954.0,554.0" fill="none" stroke="#2d3748" stroke-width="0.5"/>
    <polygon points="1080.0,528.0 1122.0,554.0 1080.0,580.0 1038.0,554.0" fill="none" stroke="#2d3748" stroke-width="0.5"/>
    <polygon points="618.0,554.0 660.0,580.0 618.0,606.0 576.0,580.0" fill="none" stroke="#2d3748" stroke-width="0.5"/>
    <polygon points="702.0,554.0 744.0,580.0 702.0,606.0 660.0,580.0" fill="none" stroke="#2d3748" stroke-width="0.5"/>
    <polygon points="786.0,554.0 828.0,580.0 786.0,606.0 744.0,580.0" fill="none" stroke="#2d3748" stroke-width="0.5"/>
    <polygon points="870.0,554.0 912.0,580.0 870.0,606.0 828.0,580.0" fill="none" stroke="#2d3748" stroke-width="0.5"/>
    <polygon points="954.0,554.0 996.0,580.0 954.0,606.0 912.0,580.0" fill="none" stroke="#2d3748" stroke-width="0.5"/>
    <polygon points="1038.0,554.0 1080.0,580.0 1038.0,606.0 996.0,580.0" fill="none" stroke="#2d3748" stroke-width="0.5"/>
    <polygon points="1122.0,554.0 1164.0,580.0 1122.0,606.0 1080.0,580.0" fill="none" stroke="#2d3748" stroke-width="0.5"/>
    <polygon points="660.0,580.0 702.0,606.0 660.0,632.0 618.0,606.0" fill="none" stroke="#2d3748" stroke-width="0.5"/>
    <polygon points="744.0,580.0 786.0,606.0 744.0,632.0 702.0,606.0" fill="none" stroke="#2d3748" stroke-width="0.5"/>
    <polygon points="828.0,580.0 870.0,606.0 828.0,632.0 786.0,606.0" fill="none" stroke="#2d3748" stroke-width="0.5"/>
    <polygon points="912.0,580.0 954.0,606.0 912.0,632.0 870.0,606.0" fill="none" stroke="#2d3748" stroke-width="0.5"/>
    <polygon points="996.0,580.0 1038.0,606.0 996.0,632.0 954.0,606.0" fill="none" stroke="#2d3748" stroke-width="0.5"/>
    <polygon points="1080.0,580.0 1122.0,606.0 1080.0,632.0 1038.0,606.0" fill="none" stroke="#2d3748" stroke-width="0.5"/>
    <polygon points="1164.0,580.0 1206.0,606.0 1164.0,632.0 1122.0,606.0" fill="none" stroke="#2d3748" stroke-width="0.5"/>
    <polygon points="702.0,606.0 744.0,632.0 702.0,658.0 660.0,632.0" fill="none" stroke="#2d3748" stroke-width="0.5"/>
    <polygon points="786.0,606.0 828.0,632.0 786.0,658.0 744.0,632.0" fill="none" stroke="#2d3748" stroke-width="0.5"/>
    <polygon points="870.0,606.0 912.0,632.0 870.0,658.0 828.0,632.0" fill="none" stroke="#2d3748" stroke-width="0.5"/>
    <polygon points="954.0,606.0 996.0,632.0 954.0,658.0 912.0,632.0" fill="none" stroke="#2d3748" stroke-width="0.5"/>
    <polygon points="1038.0,606.0 1080.0,632.0 1038.0,658.0 996.0,632.0" fill="none" stroke="#2d3748" stroke-width="0.5"/>
    <polygon points="1122.0,606.0 1164.0,632.0 1122.0,658.0 1080.0,632.0" fill="none" stroke="#2d3748" stroke-width="0.5"/>
    <polygon points="1206.0,606.0 1248.0,632.0 1206.0,658.0 1164.0,632.0" fill="none" stroke="#2d3748" stroke-width="0.5"/>
    <polygon points="744.0,632.0 786.0,658.0 744.0,684.0 702.0,658.0" fill="none" stroke="#2d3748" stroke-width="0.5"/>
    <polygon points="828.0,632.0 870.0,658.0 828.0,684.0 786.0,658.0" fill="none" stroke="#2d3748" stroke-width="0.5"/>
    <polygon points="912.0,632.0 954.0,658.0 912.0,684.0 870.0,658.0" fill="none" stroke="#2d3748" stroke-width="0.5"/>
    <polygon points="996.0,632.0 1038.0,658.0 996.0,684.0 954.0,658.0" fill="none" stroke="#2d3748" stroke-width="0.5"/>
    <polygon points="1080.0,632.0 1122.0,658.0 1080.0,684.0 1038.0,658.0" fill="none" stroke="#2d3748" stroke-width="0.5"/>
    <polygon points="1164.0,632.0 1206.0,658.0 1164.0,684.0 1122.0,658.0" fill="none" stroke="#2d3748" stroke-width="0.5"/>
    <polygon points="1248.0,632.0 1290.0,658.0 1248.0,684.0 1206.0,658.0" fill="none" stroke="#2d3748" stroke-width="0.5"/>
    <polygon points="786.0,658.0 828.0,684.0 786.0,710.0 744.0,684.0" fill="none" stroke="#2d3748" stroke-width="0.5"/>
    <polygon points="870.0,658.0 912.0,684.0 870.0,710.0 828.0,684.0" fill="none" stroke="#2d3748" stroke-width="0.5"/>
    <polygon points="954.0,658.0 996.0,684.0 954.0,710.0 912.0,684.0" fill="none" stroke="#2d3748" stroke-width="0.5"/>
    <polygon points="1038.0,658.0 1080.0,684.0 1038.0,710.0 996.0,684.0" fill="none" stroke="#2d3748" stroke-width="0.5"/>
    <polygon points="1122.0,658.0 1164.0,684.0 1122.0,710.0 1080.0,684.0" fill="none" stroke="#2d3748" stroke-width="0.5"/>
    <polygon points="1206.0,658.0 1248.0,684.0 1206.0,710.0 1164.0,684.0" fill="none" stroke="#2d3748" stroke-width="0.5"/>
    <polygon points="1290.0,658.0 1332.0,684.0 1290.0,710.0 1248.0,684.0" fill="none" stroke="#2d3748" stroke-width="0.5"/>
    <polygon points="828.0,684.0 870.0,710.0 828.0,736.0 786.0,710.0" fill="none" stroke="#2d3748" stroke-width="0.5"/>
    <polygon points="912.0,684.0 954.0,710.0 912.0,736.0 870.0,710.0" fill="none" stroke="#2d3748" stroke-width="0.5"/>
    <polygon points="996.0,684.0 1038.0,710.0 996.0,736.0 954.0,710.0" fill="none" stroke="#2d3748" stroke-width="0.5"/>
    <polygon points="1080.0,684.0 1122.0,710.0 1080.0,736.0 1038.0,710.0" fill="none" stroke="#2d3748" stroke-width="0.5"/>
    <polygon points="1164.0,684.0 1206.0,710.0 1164.0,736.0 1122.0,710.0" fill="none" stroke="#2d3748" stroke-width="0.5"/>
    <polygon points="1248.0,684.0 1290.0,710.0 1248.0,736.0 1206.0,710.0" fill="none" stroke="#2d3748" stroke-width="0.5"/>
    <polygon points="1332.0,684.0 1374.0,710.0 1332.0,736.0 1290.0,710.0" fill="none" stroke="#2d3748" stroke-width="0.5"/>
    <polygon points="870.0,710.0 912.0,736.0 870.0,762.0 828.0,736.0" fill="none" stroke="#2d3748" stroke-width="0.5"/>
    <polygon points="954.0,710.0 996.0,736.0 954.0,762.0 912.0,736.0" fill="none" stroke="#2d3748" stroke-width="0.5"/>
    <polygon points="1038.0,710.0 1080.0,736.0 1038.0,762.0 996.0,736.0" fill="none" stroke="#2d3748" stroke-width="0.5"/>
    <polygon points="1122.0,710.0 1164.0,736.0 1122.0,762.0 1080.0,736.0" fill="none" stroke="#2d3748" stroke-width="0.5"/>
    <polygon points="1206.0,710.0 1248.0,736.0 1206.0,762.0 1164.0,736.0" fill="none" stroke="#2d3748" stroke-width="0.5"/>
    <polygon points="1290.0,710.0 1332.0,736.0 1290.0,762.0 1248.0,736.0" fill="none" stroke="#2d3748" stroke-width="0.5"/>
    <polygon points="1374.0,710.0 1416.0,736.0 1374.0,762.0 1332.0,736.0" fill="none" stroke="#2d3748" stroke-width="0.5"/>
    <polygon points="912.0,736.0 954.0,762.0 912.0,788.0 870.0,762.0" fill="none" stroke="#2d3748" stroke-width="0.5"/>
    <polygon points="996.0,736.0 1038.0,762.0 996.0,788.0 954.0,762.0" fill="none" stroke="#2d3748" stroke-width="0.5"/>
    <polygon points="1080.0,736.0 1122.0,762.0 1080.0,788.0 1038.0,762.0" fill="none" stroke="#2d3748" stroke-width="0.5"/>
    <polygon points="1164.0,736.0 1206.0,762.0 1164.0,788.0 1122.0,762.0" fill="none" stroke="#2d3748" stroke-width="0.5"/>
    <polygon points="1248.0,736.0 1290.0,762.0 1248.0,788.0 1206.0,762.0" fill="none" stroke="#2d3748" stroke-width="0.5"/>
    <polygon points="1332.0,736.0 1374.0,762.0 1332.0,788.0 1290.0,762.0" fill="none" stroke="#2d3748" stroke-width="0.5"/>
    <polygon points="1416.0,736.0 1458.0,762.0 1416.0,788.0 1374.0,762.0" fill="none" stroke="#2d3748" stroke-width="0.5"/>
    <polygon points="954.0,762.0 996.0,788.0 954.0,814.0 912.0,788.0" fill="none" stroke="#2d3748" stroke-width="0.5"/>
    <polygon points="1038.0,762.0 1080.0,788.0 1038.0,814.0 996.0,788.0" fill="none" stroke="#2d3748" stroke-width="0.5"/>
    <polygon points="1122.0,762.0 1164.0,788.0 1122.0,814.0 1080.0,788.0" fill="none" stroke="#2d3748" stroke-width="0.5"/>
    <polygon points="1206.0,762.0 1248.0,788.0 1206.0,814.0 1164.0,788.0" fill="none" stroke="#2d3748" stroke-width="0.5"/>
    <polygon points="1290.0,762.0 1332.0,788.0 1290.0,814.0 1248.0,788.0" fill="none" stroke="#2d3748" stroke-width="0.5"/>
    <polygon points="1374.0,762.0 1416.0,788.0 1374.0,814.0 1332.0,788.0" fill="none" stroke="#2d3748" stroke-width="0.5"/>
    <polygon points="1458.0,762.0 1500.0,788.0 1458.0,814.0 1416.0,788.0" fill="none" stroke="#2d3748" stroke-width="0.5"/>
    <polygon points="996.0,788.0 1038.0,814.0 996.0,840.0 954.0,814.0" fill="none" stroke="#2d3748" stroke-width="0.5"/>
    <polygon points="1080.0,788.0 1122.0,814.0 1080.0,840.0 1038.0,814.0" fill="none" stroke="#2d3748" stroke-width="0.5"/>
    <polygon points="1164.0,788.0 1206.0,814.0 1164.0,840.0 1122.0,814.0" fill="none" stroke="#2d3748" stroke-width="0.5"/>
    <polygon points="1248.0,788.0 1290.0,814.0 1248.0,840.0 1206.0,814.0" fill="none" stroke="#2d3748" stroke-width="0.5"/>
    <polygon points="1332.0,788.0 1374.0,814.0 1332.0,840.0 1290.0,814.0" fill="none" stroke="#2d3748" stroke-width="0.5"/>
    <polygon points="1416.0,788.0 1458.0,814.0 1416.0,840.0 1374.0,814.0" fill="none" stroke="#2d3748" stroke-width="0.5"/>
    <polygon points="1500.0,788.0 1542.0,814.0 1500.0,840.0 1458.0,814.0" fill="none" stroke="#2d3748" stroke-width="0.5"/>
    <polygon points="1038.0,814.0 1080.0,840.0 1038.0,866.0 996.0,840.0" fill="none" stroke="#2d3748" stroke-width="0.5"/>
    <polygon points="1122.0,814.0 1164.0,840.0 1122.0,866.0 1080.0,840.0" fill="none" stroke="#2d3748" stroke-width="0.5"/>
    <polygon points="1206.0,814.0 1248.0,840.0 1206.0,866.0 1164.0,840.0" fill="none" stroke="#2d3748" stroke-width="0.5"/>
    <polygon points="1290.0,814.0 1332.0,840.0 1290.0,866.0 1248.0,840.0" fill="none" stroke="#2d3748" stroke-width="0.5"/>
    <polygon points="1374.0,814.0 1416.0,840.0 1374.0,866.0 1332.0,840.0" fill="none" stroke="#2d3748" stroke-width="0.5"/>
    <polygon points="1458.0,814.0 1500.0,840.0 1458.0,866.0 1416.0,840.0" fill="none" stroke="#2d3748" stroke-width="0.5"/>
    <polygon points="1542.0,814.0 1584.0,840.0 1542.0,866.0 1500.0,840.0" fill="none" stroke="#2d3748" stroke-width="0.5"/>
    <polygon points="1080.0,840.0 1122.0,866.0 1080.0,892.0 1038.0,866.0" fill="none" stroke="#2d3748" stroke-width="0.5"/>
    <polygon points="1164.0,840.0 1206.0,866.0 1164.0,892.0 1122.0,866.0" fill="none" stroke="#2d3748" stroke-width="0.5"/>
    <polygon points="1248.0,840.0 1290.0,866.0 1248.0,892.0 1206.0,866.0" fill="none" stroke="#2d3748" stroke-width="0.5"/>
    <polygon points="1332.0,840.0 1374.0,866.0 1332.0,892.0 1290.0,866.0" fill="none" stroke="#2d3748" stroke-width="0.5"/>
    <polygon points="1416.0,840.0 1458.0,866.0 1416.0,892.0 1374.0,866.0" fill="none" stroke="#2d3748" stroke-width="0.5"/>
    <polygon points="1500.0,840.0 1542.0,866.0 1500.0,892.0 1458.0,866.0" fill="none" stroke="#2d3748" stroke-width="0.5"/>
    <polygon points="1584.0,840.0 1626.0,866.0 1584.0,892.0 1542.0,866.0" fill="none" stroke="#2d3748" stroke-width="0.5"/>
    <polygon points="1122.0,866.0 1164.0,892.0 1122.0,918.0 1080.0,892.0" fill="none" stroke="#2d3748" stroke-width="0.5"/>
    <polygon points="1206.0,866.0 1248.0,892.0 1206.0,918.0 1164.0,892.0" fill="none" stroke="#2d3748" stroke-width="0.5"/>
    <polygon points="1290.0,866.0 1332.0,892.0 1290.0,918.0 1248.0,892.0" fill="none" stroke="#2d3748" stroke-width="0.5"/>
    <polygon points="1374.0,866.0 1416.0,892.0 1374.0,918.0 1332.0,892.0" fill="none" stroke="#2d3748" stroke-width="0.5"/>
    <polygon points="1458.0,866.0 1500.0,892.0 1458.0,918.0 1416.0,892.0" fill="none" stroke="#2d3748" stroke-width="0.5"/>
    <polygon points="1542.0,866.0 1584.0,892.0 1542.0,918.0 1500.0,892.0" fill="none" stroke="#2d3748" stroke-width="0.5"/>
    <polygon points="1626.0,866.0 1668.0,892.0 1626.0,918.0 1584.0,892.0" fill="none" stroke="#2d3748" stroke-width="0.5"/>
    <polygon points="1164.0,892.0 1206.0,918.0 1164.0,944.0 1122.0,918.0" fill="none" stroke="#2d3748" stroke-width="0.5"/>
    <polygon points="1248.0,892.0 1290.0,918.0 1248.0,944.0 1206.0,918.0" fill="none" stroke="#2d3748" stroke-width="0.5"/>
    <polygon points="1332.0,892.0 1374.0,918.0 1332.0,944.0 1290.0,918.0" fill="none" stroke="#2d3748" stroke-width="0.5"/>
    <polygon points="1416.0,892.0 1458.0,918.0 1416.0,944.0 1374.0,918.0" fill="none" stroke="#2d3748" stroke-width="0.5"/>
    <polygon points="1500.0,892.0 1542.0,918.0 1500.0,944.0 1458.0,918.0" fill="none" stroke="#2d3748" stroke-width="0.5"/>
    <polygon points="1584.0,892.0 1626.0,918.0 1584.0,944.0 1542.0,918.0" fill="none" stroke="#2d3748" stroke-width="0.5"/>
    <polygon points="1668.0,892.0 1710.0,918.0 1668.0,944.0 1626.0,918.0" fill="none" stroke="#2d3748" stroke-width="0.5"/>
    <polygon points="1206.0,918.0 1248.0,944.0 1206.0,970.0 1164.0,944.0" fill="none" stroke="#2d3748" stroke-width="0.5"/>
    <polygon points="1290.0,918.0 1332.0,944.0 1290.0,970.0 1248.0,944.0" fill="none" stroke="#2d3748" stroke-width="0.5"/>
    <polygon points="1374.0,918.0 1416.0,944.0 1374.0,970.0 1332.0,944.0" fill="none" stroke="#2d3748" stroke-width="0.5"/>
    <polygon points="1458.0,918.0 1500.0,944.0 1458.0,970.0 1416.0,944.0" fill="none" stroke="#2d3748" stroke-width="0.5"/>
    <polygon points="1542.0,918.0 1584.0,944.0 1542.0,970.0 1500.0,944.0" fill="none" stroke="#2d3748" stroke-width="0.5"/>
    <polygon points="1626.0,918.0 1668.0,944.0 1626.0,970.0 1584.0,944.0" fill="none" stroke="#2d3748" stroke-width="0.5"/>
    <polygon points="1710.0,918.0 1752.0,944.0 1710.0,970.0 1668.0,944.0" fill="none" stroke="#2d3748" stroke-width="0.5"/>
    <polygon points="1248.0,944.0 1290.0,970.0 1248.0,996.0 1206.0,970.0" fill="none" stroke="#2d3748" stroke-width="0.5"/>
    <polygon points="1332.0,944.0 1374.0,970.0 1332.0,996.0 1290.0,970.0" fill="none" stroke="#2d3748" stroke-width="0.5"/>
    <polygon points="1416.0,944.0 1458.0,970.0 1416.0,996.0 1374.0,970.0" fill="none" stroke="#2d3748" stroke-width="0.5"/>
    <polygon points="1500.0,944.0 1542.0,970.0 1500.0,996.0 1458.0,970.0" fill="none" stroke="#2d3748" stroke-width="0.5"/>
    <polygon points="1584.0,944.0 1626.0,970.0 1584.0,996.0 1542.0,970.0" fill="none" stroke="#2d3748" stroke-width="0.5"/>
    <polygon points="1668.0,944.0 1710.0,970.0 1668.0,996.0 1626.0,970.0" fill="none" stroke="#2d3748" stroke-width="0.5"/>
    <polygon points="1752.0,944.0 1794.0,970.0 1752.0,996.0 1710.0,970.0" fill="none" stroke="#2d3748" stroke-width="0.5"/>
    <polygon points="1290.0,970.0 1332.0,996.0 1290.0,1022.0 1248.0,996.0" fill="none" stroke="#2d3748" stroke-width="0.5"/>
    <polygon points="1374.0,970.0 1416.0,996.0 1374.0,1022.0 1332.0,996.0" fill="none" stroke="#2d3748" stroke-width="0.5"/>
    <polygon points="1458.0,970.0 1500.0,996.0 1458.0,1022.0 1416.0,996.0" fill="none" stroke="#2d3748" stroke-width="0.5"/>
    <polygon points="1542.0,970.0 1584.0,996.0 1542.0,1022.0 1500.0,996.0" fill="none" stroke="#2d3748" stroke-width="0.5"/>
    <polygon points="1626.0,970.0 1668.0,996.0 1626.0,1022.0 1584.0,996.0" fill="none" stroke="#2d3748" stroke-width="0.5"/>
    <polygon points="1710.0,970.0 1752.0,996.0 1710.0,1022.0 1668.0,996.0" fill="none" stroke="#2d3748" stroke-width="0.5"/>
    <polygon points="1794.0,970.0 1836.0,996.0 1794.0,1022.0 1752.0,996.0" fill="none" stroke="#2d3748" stroke-width="0.5"/>
    <polygon points="1332.0,996.0 1374.0,1022.0 1332.0,1048.0 1290.0,1022.0" fill="none" stroke="#2d3748" stroke-width="0.5"/>
    <polygon points="1416.0,996.0 1458.0,1022.0 1416.0,1048.0 1374.0,1022.0" fill="none" stroke="#2d3748" stroke-width="0.5"/>
    <polygon points="1500.0,996.0 1542.0,1022.0 1500.0,1048.0 1458.0,1022.0" fill="none" stroke="#2d3748" stroke-width="0.5"/>
    <polygon points="1584.0,996.0 1626.0,1022.0 1584.0,1048.0 1542.0,1022.0" fill="none" stroke="#2d3748" stroke-width="0.5"/>
    <polygon points="1668.0,996.0 1710.0,1022.0 1668.0,1048.0 1626.0,1022.0" fill="none" stroke="#2d3748" stroke-width="0.5"/>
    <polygon points="1752.0,996.0 1794.0,1022.0 1752.0,1048.0 1710.0,1022.0" fill="none" stroke="#2d3748" stroke-width="0.5"/>
    <polygon points="1836.0,996.0 1878.0,1022.0 1836.0,1048.0 1794.0,1022.0" fill="none" stroke="#2d3748" stroke-width="0.5"/>
    <polygon points="1374.0,1022.0 1416.0,1048.0 1374.0,1074.0 1332.0,1048.0" fill="none" stroke="#2d3748" stroke-width="0.5"/>
    <polygon points="1458.0,1022.0 1500.0,1048.0 1458.0,1074.0 1416.0,1048.0" fill="none" stroke="#2d3748" stroke-width="0.5"/>
    <polygon points="1542.0,1022.0 1584.0,1048.0 1542.0,1074.0 1500.0,1048.0" fill="none" stroke="#2d3748" stroke-width="0.5"/>
    <polygon points="1626.0,1022.0 1668.0,1048.0 1626.0,1074.0 1584.0,1048.0" fill="none" stroke="#2d3748" stroke-width="0.5"/>
    <polygon points="1710.0,1022.0 1752.0,1048.0 1710.0,1074.0 1668.0,1048.0" fill="none" stroke="#2d3748" stroke-width="0.5"/>
    <polygon points="1794.0,1022.0 1836.0,1048.0 1794.0,1074.0 1752.0,1048.0" fill="none" stroke="#2d3748" stroke-width="0.5"/>
    <polygon points="1878.0,1022.0 1920.0,1048.0 1878.0,1074.0 1836.0,1048.0" fill="none" stroke="#2d3748" stroke-width="0.5"/>
    <polygon points="1878.0,1074.0 1920.0,1048.0 1920.0,1012.6 1878.0,1038.6" fill="#5628a5" stroke="none"/>
    <polygon points="1962.0,1074.0 1920.0,1100.0 1920.0,1064.6 1962.0,1038.6" fill="#6931c9" stroke="none"/>
    <polygon points="1920.0,1012.6 1962.0,1038.6 1920.0,1064.6 1878.0,1038.6" fill="#7c3aed" stroke="#9445ff" stroke-width="0.5"/>
    <polygon points="1416.0,1048.0 1458.0,1074.0 1416.0,1100.0 1374.0,1074.0" fill="none" stroke="#2d3748" stroke-width="0.5"/>
    <polygon points="1500.0,1048.0 1542.0,1074.0 1500.0,1100.0 1458.0,1074.0" fill="none" stroke="#2d3748" stroke-width="0.5"/>
    <polygon points="1584.0,1048.0 1626.0,1074.0 1584.0,1100.0 1542.0,1074.0" fill="none" stroke="#2d3748" stroke-width="0.5"/>
    <polygon points="1668.0,1048.0 1710.0,1074.0 1668.0,1100.0 1626.0,1074.0" fill="none" stroke="#2d3748" stroke-width="0.5"/>
    <polygon points="1752.0,1048.0 1794.0,1074.0 1752.0,1100.0 1710.0,1074.0" fill="none" stroke="#2d3748" stroke-width="0.5"/>
    <polygon points="1836.0,1048.0 1878.0,1074.0 1836.0,1100.0 1794.0,1074.0" fill="none" stroke="#2d3748" stroke-width="0.5"/>
    <polygon points="1458.0,1074.0 1500.0,1100.0 1458.0,1126.0 1416.0,1100.0" fill="none" stroke="#2d3748" stroke-width="0.5"/>
    <polygon points="1542.0,1074.0 1584.0,1100.0 1542.0,1126.0 1500.0,1100.0" fill="none" stroke="#2d3748" stroke-width="0.5"/>
    <polygon points="1626.0,1074.0 1668.0,1100.0 1626.0,1126.0 1584.0,1100.0" fill="none" stroke="#2d3748" stroke-width="0.5"/>
    <polygon points="1710.0,1074.0 1752.0,1100.0 1710.0,1126.0 1668.0,1100.0" fill="none" stroke="#2d3748" stroke-width="0.5"/>
    <polygon points="1794.0,1074.0 1836.0,1100.0 1794.0,1126.0 1752.0,1100.0" fill="none" stroke="#2d3748" stroke-width="0.5"/>
    <polygon points="1878.0,1074.0 1920.0,1100.0 1878.0,1126.0 1836.0,1100.0" fill="none" stroke="#2d3748" stroke-width="0.5"/>
    <polygon points="1962.0,1074.0 2004.0,1100.0 1962.0,1126.0 1920.0,1100.0" fill="none" stroke="#2d3748" stroke-width="0.5"/>
    <polygon points="1500.0,1100.0 1542.0,1126.0 1500.0,1152.0 1458.0,1126.0" fill="none" stroke="#2d3748" stroke-width="0.5"/>
    <polygon points="1584.0,1100.0 1626.0,1126.0 1584.0,1152.0 1542.0,1126.0" fill="none" stroke="#2d3748" stroke-width="0.5"/>
    <polygon points="1668.0,1100.0 1710.0,1126.0 1668.0,1152.0 1626.0,1126.0" fill="none" stroke="#2d3748" stroke-width="0.5"/>
    <polygon points="1752.0,1100.0 1794.0,1126.0 1752.0,1152.0 1710.0,1126.0" fill="none" stroke="#2d3748" stroke-width="0.5"/>
    <polygon points="1836.0,1100.0 1878.0,1126.0 1836.0,1152.0 1794.0,1126.0" fill="none" stroke="#2d3748" stroke-width="0.5"/>
    <polygon points="1920.0,1100.0 1962.0,1126.0 1920.0,1152.0 1878.0,1126.0" fill="none" stroke="#2d3748" stroke-width="0.5"/>
    <polygon points="2004.0,1100.0 2046.0,1126.0 2004.0,1152.0 1962.0,1126.0" fill="none" stroke="#2d3748" stroke-width="0.5"/>
    <polygon points="1542.0,1126.0 1584.0,1152.0 1542.0,1178.0 1500.0,1152.0" fill="none" stroke="#2d3748" stroke-width="0.5"/>
    <polygon points="1626.0,1126.0 1668.0,1152.0 1626.0,1178.0 1584.0,1152.0" fill="none" stroke="#2d3748" stroke-width="0.5"/>
    <polygon points="1710.0,1126.0 1752.0,1152.0 1710.0,1178.0 1668.0,1152.0" fill="none" stroke="#2d3748" stroke-width="0.5"/>
    <polygon points="1794.0,1126.0 1836.0,1152.0 1794.0,1178.0 1752.0,1152.0" fill="none" stroke="#2d3748" stroke-width="0.5"/>
    <polygon points="1878.0,1126.0 1920.0,1152.0 1878.0,1178.0 1836.0,1152.0" fill="none" stroke="#2d3748" stroke-width="0.5"/>
    <polygon points="1962.0,1126.0 2004.0,1152.0 1962.0,1178.0 1920.0,1152.0" fill="none" stroke="#2d3748" stroke-width="0.5"/>
    <polygon points="2046.0,1126.0 2088.0,1152.0 2046.0,1178.0 2004.0,1152.0" fill="none" stroke="#2d3748" stroke-width="0.5"/>
    <polygon points="1626.0,1178.0 1668.0,1152.0 1668.0,1138.1 1626.0,1164.1" fill="#200b46" stroke="none"/>
    <polygon points="1710.0,1178.0 1668.0,1204.0 1668.0,1190.1 1710.0,1164.1" fill="#270d55" stroke="none"/>
    <polygon points="1668.0,1138.1 1710.0,1164.1 1668.0,1190.1 1626.0,1164.1" fill="#2e1065" stroke="#371379" stroke-width="0.5"/>
    <polygon points="1584.0,1152.0 1626.0,1178.0 1584.0,1204.0 1542.0,1178.0" fill="none" stroke="#2d3748" stroke-width="0.5"/>
    <polygon points="1752.0,1152.0 1794.0,1178.0 1752.0,1204.0 1710.0,1178.0" fill="none" stroke="#2d3748" stroke-width="0.5"/>
    <polygon points="1836.0,1152.0 1878.0,1178.0 1836.0,1204.0 1794.0,1178.0" fill="none" stroke="#2d3748" stroke-width="0.5"/>
    <polygon points="1920.0,1152.0 1962.0,1178.0 1920.0,1204.0 1878.0,1178.0" fill="none" stroke="#2d3748" stroke-width="0.5"/>
    <polygon points="2004.0,1152.0 2046.0,1178.0 2004.0,1204.0 1962.0,1178.0" fill="none" stroke="#2d3748" stroke-width="0.5"/>
    <polygon points="2088.0,1152.0 2130.0,1178.0 2088.0,1204.0 2046.0,1178.0" fill="none" stroke="#2d3748" stroke-width="0.5"/>
    <polygon points="1584.0,1204.0 1626.0,1178.0 1626.0,1130.4 1584.0,1156.4" fill="#5628a5" stroke="none"/>
    <polygon points="1668.0,1204.0 1626.0,1230.0 1626.0,1182.4 1668.0,1156.4" fill="#6931c9" stroke="none"/>
    <polygon points="1626.0,1130.4 1668.0,1156.4 1626.0,1182.4 1584.0,1156.4" fill="#7c3aed" stroke="#9445ff" stroke-width="0.5"/>
    <polygon points="1710.0,1178.0 1752.0,1204.0 1710.0,1230.0 1668.0,1204.0" fill="none" stroke="#2d3748" stroke-width="0.5"/>
    <polygon points="1794.0,1178.0 1836.0,1204.0 1794.0,1230.0 1752.0,1204.0" fill="none" stroke="#2d3748" stroke-width="0.5"/>
    <polygon points="1878.0,1178.0 1920.0,1204.0 1878.0,1230.0 1836.0,1204.0" fill="none" stroke="#2d3748" stroke-width="0.5"/>
    <polygon points="1962.0,1178.0 2004.0,1204.0 1962.0,1230.0 1920.0,1204.0" fill="none" stroke="#2d3748" stroke-width="0.5"/>
    <polygon points="2046.0,1178.0 2088.0,1204.0 2046.0,1230.0 2004.0,1204.0" fill="none" stroke="#2d3748" stroke-width="0.5"/>
    <polygon points="2130.0,1178.0 2172.0,1204.0 2130.0,1230.0 2088.0,1204.0" fill="none" stroke="#2d3748" stroke-width="0.5"/>
    <polygon points="1668.0,1204.0 1710.0,1230.0 1668.0,1256.0 1626.0,1230.0" fill="none" stroke="#2d3748" stroke-width="0.5"/>
    <polygon points="1752.0,1204.0 1794.0,1230.0 1752.0,1256.0 1710.0,1230.0" fill="none" stroke="#2d3748" stroke-width="0.5"/>
    <polygon points="1836.0,1204.0 1878.0,1230.0 1836.0,1256.0 1794.0,1230.0" fill="none" stroke="#2d3748" stroke-width="0.5"/>
    <polygon points="1920.0,1204.0 1962.0,1230.0 1920.0,1256.0 1878.0,1230.0" fill="none" stroke="#2d3748" stroke-width="0.5"/>
    <polygon points="2004.0,1204.0 2046.0,1230.0 2004.0,1256.0 1962.0,1230.0" fill="none" stroke="#2d3748" stroke-width="0.5"/>
    <polygon points="2088.0,1204.0 2130.0,1230.0 2088.0,1256.0 2046.0,1230.0" fill="none" stroke="#2d3748" stroke-width="0.5"/>
    <polygon points="2172.0,1204.0 2214.0,1230.0 2172.0,1256.0 2130.0,1230.0" fill="none" stroke="#2d3748" stroke-width="0.5"/>
    <polygon points="1710.0,1230.0 1752.0,1256.0 1710.0,1282.0 1668.0,1256.0" fill="none" stroke="#2d3748" stroke-width="0.5"/>
    <polygon points="1794.0,1230.0 1836.0,1256.0 1794.0,1282.0 1752.0,1256.0" fill="none" stroke="#2d3748" stroke-width="0.5"/>
    <polygon points="1878.0,1230.0 1920.0,1256.0 1878.0,1282.0 1836.0,1256.0" fill="none" stroke="#2d3748" stroke-width="0.5"/>
    <polygon points="1962.0,1230.0 2004.0,1256.0 1962.0,1282.0 1920.0,1256.0" fill="none" stroke="#2d3748" stroke-width="0.5"/>
    <polygon points="2046.0,1230.0 2088.0,1256.0 2046.0,1282.0 2004.0,1256.0" fill="none" stroke="#2d3748" stroke-width="0.5"/>
    <polygon points="2130.0,1230.0 2172.0,1256.0 2130.0,1282.0 2088.0,1256.0" fill="none" stroke="#2d3748" stroke-width="0.5"/>
    <polygon points="2214.0,1230.0 2256.0,1256.0 2214.0,1282.0 2172.0,1256.0" fill="none" stroke="#2d3748" stroke-width="0.5"/>
    <polygon points="1752.0,1256.0 1794.0,1282.0 1752.0,1308.0 1710.0,1282.0" fill="none" stroke="#2d3748" stroke-width="0.5"/>
    <polygon points="1836.0,1256.0 1878.0,1282.0 1836.0,1308.0 1794.0,1282.0" fill="none" stroke="#2d3748" stroke-width="0.5"/>
    <polygon points="1920.0,1256.0 1962.0,1282.0 1920.0,1308.0 1878.0,1282.0" fill="none" stroke="#2d3748" stroke-width="0.5"/>
    <polygon points="2004.0,1256.0 2046.0,1282.0 2004.0,1308.0 1962.0,1282.0" fill="none" stroke="#2d3748" stroke-width="0.5"/>
    <polygon points="2088.0,1256.0 2130.0,1282.0 2088.0,1308.0 2046.0,1282.0" fill="none" stroke="#2d3748" stroke-width="0.5"/>
    <polygon points="2172.0,1256.0 2214.0,1282.0 2172.0,1308.0 2130.0,1282.0" fill="none" stroke="#2d3748" stroke-width="0.5"/>
    <polygon points="2256.0,1256.0 2298.0,1282.0 2256.0,1308.0 2214.0,1282.0" fill="none" stroke="#2d3748" stroke-width="0.5"/>
    <polygon points="1794.0,1282.0 1836.0,1308.0 1794.0,1334.0 1752.0,1308.0" fill="none" stroke="#2d3748" stroke-width="0.5"/>
    <polygon points="1878.0,1282.0 1920.0,1308.0 1878.0,1334.0 1836.0,1308.0" fill="none" stroke="#2d3748" stroke-width="0.5"/>
    <polygon points="1962.0,1282.0 2004.0,1308.0 1962.0,1334.0 1920.0,1308.0" fill="none" stroke="#2d3748" stroke-width="0.5"/>
    <polygon points="2046.0,1282.0 2088.0,1308.0 2046.0,1334.0 2004.0,1308.0" fill="none" stroke="#2d3748" stroke-width="0.5"/>
    <polygon points="2130.0,1282.0 2172.0,1308.0 2130.0,1334.0 2088.0,1308.0" fill="none" stroke="#2d3748" stroke-width="0.5"/>
    <polygon points="2214.0,1282.0 2256.0,1308.0 2214.0,1334.0 2172.0,1308.0" fill="none" stroke="#2d3748" stroke-width="0.5"/>
    <polygon points="2298.0,1282.0 2340.0,1308.0 2298.0,1334.0 2256.0,1308.0" fill="none" stroke="#2d3748" stroke-width="0.5"/>
    <polygon points="1836.0,1308.0 1878.0,1334.0 1836.0,1360.0 1794.0,1334.0" fill="none" stroke="#2d3748" stroke-width="0.5"/>
    <polygon points="1920.0,1308.0 1962.0,1334.0 1920.0,1360.0 1878.0,1334.0" fill="none" stroke="#2d3748" stroke-width="0.5"/>
    <polygon points="2004.0,1308.0 2046.0,1334.0 2004.0,1360.0 1962.0,1334.0" fill="none" stroke="#2d3748" stroke-width="0.5"/>
    <polygon points="2088.0,1308.0 2130.0,1334.0 2088.0,1360.0 2046.0,1334.0" fill="none" stroke="#2d3748" stroke-width="0.5"/>
    <polygon points="2172.0,1308.0 2214.0,1334.0 2172.0,1360.0 2130.0,1334.0" fill="none" stroke="#2d3748" stroke-width="0.5"/>
    <polygon points="2256.0,1308.0 2298.0,1334.0 2256.0,1360.0 2214.0,1334.0" fill="none" stroke="#2d3748" stroke-width="0.5"/>
    <polygon points="2340.0,1308.0 2382.0,1334.0 2340.0,1360.0 2298.0,1334.0" fill="none" stroke="#2d3748" stroke-width="0.5"/>
    <polygon points="1878.0,1334.0 1920.0,1360.0 1878.0,1386.0 1836.0,1360.0" fill="none" stroke="#2d3748" stroke-width="0.5"/>
    <polygon points="1962.0,1334.0 2004.0,1360.0 1962.0,1386.0 1920.0,1360.0" fill="none" stroke="#2d3748" stroke-width="0.5"/>
    <polygon points="2046.0,1334.0 2088.0,1360.0 2046.0,1386.0 2004.0,1360.0" fill="none" stroke="#2d3748" stroke-width="0.5"/>
    <polygon points="2130.0,1334.0 2172.0,1360.0 2130.0,1386.0 2088.0,1360.0" fill="none" stroke="#2d3748" stroke-width="0.5"/>
    <polygon points="2214.0,1334.0 2256.0,1360.0 2214.0,1386.0 2172.0,1360.0" fill="none" stroke="#2d3748" stroke-width="0.5"/>
    <polygon points="2298.0,1334.0 2340.0,1360.0 2298.0,1386.0 2256.0,1360.0" fill="none" stroke="#2d3748" stroke-width="0.5"/>
    <polygon points="2382.0,1334.0 2424.0,1360.0 2382.0,1386.0 2340.0,1360.0" fill="none" stroke="#2d3748" stroke-width="0.5"/>
    <polygon points="1920.0,1360.0 1962.0,1386.0 1920.0,1412.0 1878.0,1386.0" fill="none" stroke="#2d3748" stroke-width="0.5"/>
    <polygon points="2004.0,1360.0 2046.0,1386.0 2004.0,1412.0 1962.0,1386.0" fill="none" stroke="#2d3748" stroke-width="0.5"/>
    <polygon points="2088.0,1360.0 2130.0,1386.0 2088.0,1412.0 2046.0,1386.0" fill="none" stroke="#2d3748" stroke-width="0.5"/>
    <polygon points="2172.0,1360.0 2214.0,1386.0 2172.0,1412.0 2130.0,1386.0" fill="none" stroke="#2d3748" stroke-width="0.5"/>
    <polygon points="2256.0,1360.0 2298.0,1386.0 2256.0,1412.0 2214.0,1386.0" fill="none" stroke="#2d3748" stroke-width="0.5"/>
    <polygon points="2340.0,1360.0 2382.0,1386.0 2340.0,1412.0 2298.0,1386.0" fill="none" stroke="#2d3748" stroke-width="0.5"/>
    <polygon points="2424.0,1360.0 2466.0,1386.0 2424.0,1412.0 2382.0,1386.0" fill="none" stroke="#2d3748" stroke-width="0.5"/>
    <polygon points="1962.0,1386.0 2004.0,1412.0 1962.0,1438.0 1920.0,1412.0" fill="none" stroke="#2d3748" stroke-width="0.5"/>
    <polygon points="2046.0,1386.0 2088.0,1412.0 2046.0,1438.0 2004.0,1412.0" fill="none" stroke="#2d3748" stroke-width="0.5"/>
    <polygon points="2130.0,1386.0 2172.0,1412.0 2130.0,1438.0 2088.0,1412.0" fill="none" stroke="#2d3748" stroke-width="0.5"/>
    <polygon points="2214.0,1386.0 2256.0,1412.0 2214.0,1438.0 2172.0,1412.0" fill="none" stroke="#2d3748" stroke-width="0.5"/>
    <polygon points="2298.0,1386.0 2340.0,1412.0 2298.0,1438.0 2256.0,1412.0" fill="none" stroke="#2d3748" stroke-width="0.5"/>
    <polygon points="2382.0,1386.0 2424.0,1412.0 2382.0,1438.0 2340.0,1412.0" fill="none" stroke="#2d3748" stroke-width="0.5"/>
    <polygon points="2466.0,1386.0 2508.0,1412.0 2466.0,1438.0 2424.0,1412.0" fill="none" stroke="#2d3748" stroke-width="0.5"/>
    <polygon points="2214.0,1490.0 2256.0,1464.0 2256.0,1318.0 2214.0,1344.0" fill="#b2b2b2" stroke="none"/>
    <polygon points="2298.0,1490.0 2256.0,1516.0 2256.0,1370.0 2298.0,1344.0" fill="#d8d8d8" stroke="none"/>
    <polygon points="2256.0,1318.0 2298.0,1344.0 2256.0,1370.0 2214.0,1344.0" fill="#ffffff" stroke="#ffffff" stroke-width="0.5"/>
    <polygon points="2004.0,1412.0 2046.0,1438.0 2004.0,1464.0 1962.0,1438.0" fill="none" stroke="#2d3748" stroke-width="0.5"/>
    <polygon points="2088.0,1412.0 2130.0,1438.0 2088.0,1464.0 2046.0,1438.0" fill="none" stroke="#2d3748" stroke-width="0.5"/>
    <polygon points="2172.0,1412.0 2214.0,1438.0 2172.0,1464.0 2130.0,1438.0" fill="none" stroke="#2d3748" stroke-width="0.5"/>
    <polygon points="2256.0,1412.0 2298.0,1438.0 2256.0,1464.0 2214.0,1438.0" fill="none" stroke="#2d3748" stroke-width="0.5"/>
    <polygon points="2340.0,1412.0 2382.0,1438.0 2340.0,1464.0 2298.0,1438.0" fill="none" stroke="#2d3748" stroke-width="0.5"/>
    <polygon points="2424.0,1412.0 2466.0,1438.0 2424.0,1464.0 2382.0,1438.0" fill="none" stroke="#2d3748" stroke-width="0.5"/>
    <polygon points="2508.0,1412.0 2550.0,1438.0 2508.0,1464.0 2466.0,1438.0" fill="none" stroke="#2d3748" stroke-width="0.5"/>
    <polygon points="2046.0,1438.0 2088.0,1464.0 2046.0,1490.0 2004.0,1464.0" fill="none" stroke="#2d3748" stroke-width="0.5"/>
    <polygon points="2130.0,1438.0 2172.0,1464.0 2130.0,1490.0 2088.0,1464.0" fill="none" stroke="#2d3748" stroke-width="0.5"/>
    <polygon points="2214.0,1438.0 2256.0,1464.0 2214.0,1490.0 2172.0,1464.0" fill="none" stroke="#2d3748" stroke-width="0.5"/>
    <polygon points="2298.0,1438.0 2340.0,1464.0 2298.0,1490.0 2256.0,1464.0" fill="none" stroke="#2d3748" stroke-width="0.5"/>
    <polygon points="2382.0,1438.0 2424.0,1464.0 2382.0,1490.0 2340.0,1464.0" fill="none" stroke="#2d3748" stroke-width="0.5"/>
    <polygon points="2466.0,1438.0 2508.0,1464.0 2466.0,1490.0 2424.0,1464.0" fill="none" stroke="#2d3748" stroke-width="0.5"/>
    <polygon points="2172.0,1516.0 2214.0,1490.0 2214.0,1388.5 2172.0,1414.5" fill="#1793a6" stroke="none"/>
    <polygon points="2256.0,1516.0 2214.0,1542.0 2214.0,1440.5 2256.0,1414.5" fill="#1cb3ca" stroke="none"/>
    <polygon points="2214.0,1388.5 2256.0,1414.5 2214.0,1440.5 2172.0,1414.5" fill="#22d3ee" stroke="#28fdff" stroke-width="0.5"/>
    <polygon points="2088.0,1464.0 2130.0,1490.0 2088.0,1516.0 2046.0,1490.0" fill="none" stroke="#2d3748" stroke-width="0.5"/>
    <polygon points="2172.0,1464.0 2214.0,1490.0 2172.0,1516.0 2130.0,1490.0" fill="none" stroke="#2d3748" stroke-width="0.5"/>
    <polygon points="2340.0,1464.0 2382.0,1490.0 2340.0,1516.0 2298.0,1490.0" fill="none" stroke="#2d3748" stroke-width="0.5"/>
    <polygon points="2424.0,1464.0 2466.0,1490.0 2424.0,1516.0 2382.0,1490.0" fill="none" stroke="#2d3748" stroke-width="0.5"/>
    <polygon points="2130.0,1490.0 2172.0,1516.0 2130.0,1542.0 2088.0,1516.0" fill="none" stroke="#2d3748" stroke-width="0.5"/>
    <polygon points="2298.0,1490.0 2340.0,1516.0 2298.0,1542.0 2256.0,1516.0" fill="none" stroke="#2d3748" stroke-width="0.5"/>
    <polygon points="2382.0,1490.0 2424.0,1516.0 2382.0,1542.0 2340.0,1516.0" fill="none" stroke="#2d3748" stroke-width="0.5"/>
    <polygon points="2172.0,1516.0 2214.0,1542.0 2172.0,1568.0 2130.0,1542.0" fill="none" stroke="#2d3748" stroke-width="0.5"/>
    <polygon points="2256.0,1516.0 2298.0,1542.0 2256.0,1568.0 2214.0,1542.0" fill="none" stroke="#2d3748" stroke-width="0.5"/>
    <polygon points="2214.0,1542.0 2256.0,1568.0 2214.0,1594.0 2172.0,1568.0" fill="none" stroke="#2d3748" stroke-width="0.5"/>
  </g>
  
  <text x="30" y="1830">Contribution City • 2025</text>
  <text x="2430" y="1830" text-anchor="end" fill="#7c3aed">Engineering Mode</text>
</svg>