<?xml version="1.0" encoding="UTF-8"?>
<svg xmlns="http://www.w3.org/2000/svg" width="3060" height="1800" viewBox="0 0 3060 1800" role="img">
  <defs>
    <style>text { font-family: 'Segoe UI', Ubuntu, sans-serif; fill: #94a3b8; font-size: 14px; }</style>
    <linearGradient id="bg-gradient" x1="0%" y1="0%" x2="0%" y2="100%">
      <stop offset="0%" style="stop-color:#0f172a;stop-opacity:1" />
      <stop offset="100%" style="stop-color:#1e1b4b;stop-opacity:1" />
    </linearGradient>
  </defs>
  <rect width="100%" height="100%" fill="url(#bg-gradient)" />
  
  <g transform="translate(0,20)">
    <polygon points="380.0,60.0 430.0,85.0 380.0,110.0 330.0,85.0" fill="none" stroke="#2d3748" stroke-width="0.5"/>
    <polygon points="330.0,85.0 380.0,110.0 330.0,135.0 280.0,110.0" fill="none" stroke="#2d3748" stroke-width="0.5"/>
    <polygon points="430.0,85.0 480.0,110.0 430.0,135.0 380.0,110.0" fill="none" stroke="#2d3748" stroke-width="0.5"/>
    <polygon points="280.0,110.0 330.0,135.0 280.0,160.0 230.0,135.0" fill="none" stroke="#2d3748" stroke-width="0.5"/>
    <polygon points="380.0,110.0 430.0,135.0 380.0,160.0 330.0,135.0" fill="none" stroke="#2d3748" stroke-width="0.5"/>
    <polygon points="480.0,110.0 530.0,135.0 480.0,160.0 430.0,135.0" fill="none" stroke="#2d3748" stroke-width="0.5"/>
    <polygon points="230.0,135.0 280.0,160.0 230.0,185.0 180.0,160.0" fill="none" stroke="#2d3748" stroke-width="0.5"/>
    <polygon points="330.0,135.0 380.0,160.0 330.0,185.0 280.0,160.0" fill="none" stroke="#2d3748" stroke-width="0.5"/>
    <polygon points="430.0,135.0 480.0,160.0 430.0,185.0 380.0,160.0" fill="none" stroke="#2d3748" stroke-width="0.5"/>
    <polygon points="530.0,135.0 580.0,160.0 530.0,185.0 480.0,160.0" fill="none" stroke="#2d3748" stroke-width="0.5"/>
    <polygon points="280.0,160.0 330.0,185.0 280.0,210.0 230.0,185.0" fill="none" stroke="#2d3748" stroke-width="0.5"/>
    <polygon points="380.0,160.0 430.0,185.0 380.0,210.0 330.0,185.0" fill="none" stroke="#2d3748" stroke-width="0.5"/>
    <polygon points="480.0,160.0 530.0,185.0 480.0,210.0 430.0,185.0" fill="none" stroke="#2d3748" stroke-width="0.5"/>
    <polygon points="580.0,160.0 630.0,185.0 580.0,210.0 530.0,185.0" fill="none" stroke="#2d3748" stroke-width="0.5"/>
    <polygon points="230.0,185.0 280.0,210.0 230.0,235.0 180.0,210.0" fill="none" stroke="#2d3748" stroke-width="0.5"/>
    <polygon points="330.0,185.0 380.0,210.0 330.0,235.0 280.0,210.0" fill="none" stroke="#2d3748" stroke-width="0.5"/>
    <polygon points="430.0,185.0 480.0,210.0 430.0,235.0 380.0,210.0" fill="none" stroke="#2d3748" stroke-width="0.5"/>
    <polygon points="530.0,185.0 580.0,210.0 530.0,235.0 480.0,210.0" fill="none" stroke="#2d3748" stroke-width="0.5"/>
    <polygon points="630.0,185.0 680.0,210.0 630.0,235.0 580.0,210.0" fill="none" stroke="#2d3748" stroke-width="0.5"/>
    <polygon points="180.0,210.0 230.0,235.0 180.0,260.0 130.0,235.0" fill="none" stroke="#2d3748" stroke-width="0.5"/>
    <polygon points="280.0,210.0 330.0,235.0 280.0,260.0 230.0,235.0" fill="none" stroke="#2d3748" stroke-width="0.5"/>
    <polygon points="380.0,210.0 430.0,235.0 380.0,260.0 330.0,235.0" fill="none" stroke="#2d3748" stroke-width="0.5"/>
    <polygon points="480.0,210.0 530.0,235.0 480.0,260.0 430.0,235.0" fill="none" stroke="#2d3748" stroke-width="0.5"/>
    <polygon points="580.0,210.0 630.0,235.0 580.0,260.0 530.0,235.0" fill="none" stroke="#2d3748" stroke-width="0.5"/>
    <polygon points="680.0,210.0 730.0,235.0 680.0,260.0 630.0,235.0" fill="none" stroke="#2d3748" stroke-width="0.5"/>
    <polygon points="130.0,235.0 180.0,260.0 130.0,285.0 80.0,260.0" fill="none" stroke="#2d3748" stroke-width="0.5"/>
    <polygon points="230.0,235.0 280.0,260.0 230.0,285.0 180.0,260.0" fill="none" stroke="#2d3748" stroke-width="0.5"/>
    <polygon points="330.0,235.0 380.0,260.0 330.0,285.0 280.0,260.0" fill="none" stroke="#2d3748" stroke-width="0.5"/>
    <polygon points="430.0,235.0 480.0,260.0 430.0,285.0 380.0,260.0" fill="none" stroke="#2d3748" stroke-width="0.5"/>
    <polygon points="530.0,235.0 580.0,260.0 530.0,285.0 480.0,260.0" fill="none" stroke="#2d3748" stroke-width="0.5"/>
    <polygon points="630.0,235.0 680.0,260.0 630.0,285.0 580.0,260.0" fill="none" stroke="#2d3748" stroke-width="0.5"/>
    <polygon points="730.0,235.0 780.0,260.0 730.0,285.0 680.0,260.0" fill="none" stroke="#2d3748" stroke-width="0.5"/>
    <polygon points="180.0,260.0 230.0,285.0 180.0,310.0 130.0,285.0" fill="none" stroke="#2d3748" stroke-width="0.5"/>
    <polygon points="280.0,260.0 330.0,285.0 280.0,310.0 230.0,285.0" fill="none" stroke="#2d3748" stroke-width="0.5"/>
    <polygon points="380.0,260.0 430.0,285.0 380.0,310.0 330.0,285.0" fill="none" stroke="#2d3748" stroke-width="0.5"/>
    <polygon points="480.0,260.0 530.0,285.0 480.0,310.0 430.0,285.0" fill="none" stroke="#2d3748" stroke-width="0.5"/>
    <polygon points="580.0,260.0 630.0,285.0 580.0,310.0 530.0,285.0" fill="none" stroke="#2d3748" stroke-width="0.5"/>
    <polygon points="680.0,260.0 730.0,285.0 680.0,310.0 630.0,285.0" fill="none" stroke="#2d3748" stroke-width="0.5"/>
    <polygon points="780.0,260.0 830.0,285.0 780.0,310.0 730.0,285.0" fill="none" stroke="#2d3748" stroke-width="0.5"/>
    <polygon points="230.0,285.0 280.0,310.0 230.0,335.0 180.0,310.0" fill="none" stroke="#2d3748" stroke-width="0.5"/>
    <polygon points="330.0,285.0 380.0,310.0 330.0,335.0 280.0,310.0" fill="none" stroke="#2d3748" stroke-width="0.5"/>
    <polygon points="430.0,285.0 480.0,310.0 430.0,335.0 380.0,310.0" fill="none" stroke="#2d3748" stroke-width="0.5"/>
    <polygon points="530.0,285.0 580.0,310.0 530.0,335.0 480.0,310.0" fill="none" stroke="#2d3748" stroke-width="0.5"/>
    <polygon points="630.0,285.0 680.0,310.0 630.0,335.0 580.0,310.0" fill="none" stroke="#2d3748" stroke-width="0.5"/>
    <polygon points="730.0,285.0 780.0,310.0 730.0,335.0 680.0,310.0" fill="none" stroke="#2d3748" stroke-width="0.5"/>
    <polygon points="830.0,285.0 880.0,310.0 830.0,335.0 780.0,310.0" fill="none" stroke="#2d3748" stroke-width="0.5"/>
    <polygon points="280.0,310.0 330.0,335.0 280.0,360.0 230.0,335.0" fill="none" stroke="#2d3748" stroke-width="0.5"/>
    <polygon points="380.0,310.0 430.0,335.0 380.0,360.0 330.0,335.0" fill="none" stroke="#2d3748" stroke-width="0.5"/>
    <polygon points="480.0,310.0 530.0,335.0 480.0,360.0 430.0,335.0" fill="none" stroke="#2d3748" stroke-width="0.5"/>
    <polygon points="580.0,310.0 630.0,335.0 580.0,360.0 530.0,335.0" fill="none" stroke="#2d3748" stroke-width="0.5"/>
    <polygon points="680.0,310.0 730.0,335.0 680.0,360.0 630.0,335.0" fill="none" stroke="#2d3748" stroke-width="0.5"/>
    <polygon points="780.0,310.0 830.0,335.0 780.0,360.0 730.0,335.0" fill="none" stroke="#2d3748" stroke-width="0.5"/>
    <polygon points="880.0,310.0 930.0,335.0 880.0,360.0 830.0,335.0" fill="none" stroke="#2d3748" stroke-width="0.5"/>
    <polygon points="330.0,335.0 380.0,360.0 330.0,385.0 280.0,360.0" fill="none" stroke="#2d3748" stroke-width="0.5"/>
    <polygon points="430.0,335.0 480.0,360.0 430.0,385.0 380.0,360.0" fill="none" stroke="#2d3748" stroke-width="0.5"/>
    <polygon points="530.0,335.0 580.0,360.0 530.0,385.0 480.0,360.0" fill="none" stroke="#2d3748" stroke-width="0.5"/>
    <polygon points="630.0,335.0 680.0,360.0 630.0,385.0 580.0,360.0" fill="none" stroke="#2d3748" stroke-width="0.5"/>
    <polygon points="730.0,335.0 780.0,360.0 730.0,385.0 680.0,360.0" fill="none" stroke="#2d3748" stroke-width="0.5"/>
    <polygon points="830.0,335.0 880.0,360.0 830.0,385.0 780.0,360.0" fill="none" stroke="#2d3748" stroke-width="0.5"/>
    <polygon points="930.0,335.0 980.0,360.0 930.0,385.0 880.0,360.0" fill="none" stroke="#2d3748" stroke-width="0.5"/>
    <polygon points="380.0,360.0 430.0,385.0 380.0,410.0 330.0,385.0" fill="none" stroke="#2d3748" stroke-width="0.5"/>
    <polygon points="480.0,360.0 530.0,385.0 480.0,410.0 430.0,385.0" fill="none" stroke="#2d3748" stroke-width="0.5"/>
    <polygon points="580.0,360.0 630.0,385.0 580.0,410.0 530.0,385.0" fill="none" stroke="#2d3748" stroke-width="0.5"/>
    <polygon points="680.0,360.0 730.0,385.0 680.0,410.0 630.0,385.0" fill="none" stroke="#2d3748" stroke-width="0.5"/>
    <polygon points="780.0,360.0 830.0,385.0 780.0,410.0 730.0,385.0" fill="none" stroke="#2d3748" stroke-width="0.5"/>
    <polygon points="880.0,360.0 930.0,385.0 880.0,410.0 830.0,385.0" fill="none" stroke="#2d3748" stroke-width="0.5"/>
    <polygon points="980.0,360.0 1030.0,385.0 980.0,410.0 930.0,385.0" fill="none" stroke="#2d3748" stroke-width="0.5"/>
    <polygon points="430.0,385.0 480.0,410.0 430.0,435.0 380.0,410.0" fill="none" stroke="#2d3748" stroke-width="0.5"/>
    <polygon points="530.0,385.0 580.0,410.0 530.0,435.0 480.0,410.0" fill="none" stroke="#2d3748" stroke-width="0.5"/>
    <polygon points="630.0,385.0 680.0,410.0 630.0,435.0 580.0,410.0" fill="none" stroke="#2d3748" stroke-width="0.5"/>
    <polygon points="730.0,385.0 780.0,410.0 730.0,435.0 680.0,410.0" fill="none" stroke="#2d3748" stroke-width="0.5"/>
    <polygon points="830.0,385.0 880.0,410.0 830.0,435.0 780.0,410.0" fill="none" stroke="#2d3748" stroke-width="0.5"/>
    <polygon points="930.0,385.0 980.0,410.0 930.0,435.0 880.0,410.0" fill="none" stroke="#2d3748" stroke-width="0.5"/>
    <polygon points="1030.0,385.0 1080.0,410.0 1030.0,435.0 980.0,410.0" fill="none" stroke="#2d3748" stroke-width="0.5"/>
    <polygon points="480.0,410.0 530.0,435.0 480.0,460.0 430.0,435.0" fill="none" stroke="#2d3748" stroke-width="0.5"/>
    <polygon points="580.0,410.0 630.0,435.0 580.0,460.0 530.0,435.0" fill="none" stroke="#2d3748" stroke-width="0.5"/>
    <polygon points="680.0,410.0 730.0,435.0 680.0,460.0 630.0,435.0" fill="none" stroke="#2d3748" stroke-width="0.5"/>
    <polygon points="780.0,410.0 830.0,435.0 780.0,460.0 730.0,435.0" fill="none" stroke="#2d3748" stroke-width="0.5"/>
    <polygon points="880.0,410.0 930.0,435.0 880.0,460.0 830.0,435.0" fill="none" stroke="#2d3748" stroke-width="0.5"/>
    <polygon points="980.0,410.0 1030.0,435.0 980.0,460.0 930.0,435.0" fill="none" stroke="#2d3748" stroke-width="0.5"/>
    <polygon points="1080.0,410.0 1130.0,435.0 1080.0,460.0 1030.0,435.0" fill="none" stroke="#2d3748" stroke-width="0.5"/>
    <polygon points="530.0,435.0 580.0,460.0 530.0,485.0 480.0,460.0" fill="none" stroke="#2d3748" stroke-width="0.5"/>
    <polygon points="630.0,435.0 680.0,460.0 630.0,485.0 580.0,460.0" fill="none" stroke="#2d3748" stroke-width="0.5"/>
    <polygon points="730.0,435.0 780.0,460.0 730.0,485.0 680.0,460.0" fill="none" stroke="#2d3748" stroke-width="0.5"/>
    <polygon points="830.0,435.0 880.0,460.0 830.0,485.0 780.0,460.0" fill="none" stroke="#2d3748" stroke-width="0.5"/>
    <polygon points="930.0,435.0 980.0,460.0 930.0,485.0 880.0,460.0" fill="none" stroke="#2d3748" stroke-width="0.5"/>
    <polygon points="1030.0,435.0 1080.0,460.0 1030.0,485.0 980.0,460.0" fill="none" stroke="#2d3748" stroke-width="0.5"/>
    <polygon points="1130.0,435.0 1180.0,460.0 1130.0,485.0 1080.0,460.0" fill="none" stroke="#2d3748" stroke-width="0.5"/>
    <polygon points="580.0,460.0 630.0,485.0 580.0,510.0 530.0,485.0" fill="none" stroke="#2d3748" stroke-width="0.5"/>
    <polygon points="680.0,460.0 730.0,485.0 680.0,510.0 630.0,485.0" fill="none" stroke="#2d3748" stroke-width="0.5"/>
    <polygon points="780.0,460.0 830.0,485.0 780.0,510.0 730.0,485.0" fill="none" stroke="#2d3748" stroke-width="0.5"/>
    <polygon points="880.0,460.0 930.0,485.0 880.0,510.0 830.0,485.0" fill="none" stroke="#2d3748" stroke-width="0.5"/>
    <polygon points="980.0,460.0 1030.0,485.0 980.0,510.0 930.0,485.0" fill="none" stroke="#2d3748" stroke-width="0.5"/>
    <polygon points="1080.0,460.0 1130.0,485.0 1080.0,510.0 1030.0,485.0" fill="none" stroke="#2d3748" stroke-width="0.5"/>
    <polygon points="1180.0,460.0 1230.0,485.0 1180.0,510.0 1130.0,485.0" fill="none" stroke="#2d3748" stroke-width="0.5"/>
    <polygon points="630.0,485.0 680.0,510.0 630.0,535.0 580.0,510.0" fill="none" stroke="#2d3748" stroke-width="0.5"/>
    <polygon points="730.0,485.0 780.0,510.0 730.0,535.0 680.0,510.0" fill="none" stroke="#2d3748" stroke-width="0.5"/>
    <polygon points="830.0,485.0 880.0,510.0 830.0,535.0 780.0,510.0" fill="none" stroke="#2d3748" stroke-width="0.5"/>
    <polygon points="930.0,485.0 980.0,510.0 930.0,535.0 880.0,510.0" fill="none" stroke="#2d3748" stroke-width="0.5"/>
    <polygon points="1030.0,485.0 1080.0,510.0 1030.0,535.0 980.0,510.0" fill="none" stroke="#2d3748" stroke-width="0.5"/>
    <polygon points="1130.0,485.0 1180.0,510.0 1130.0,535.0 1080.0,510.0" fill="none" stroke="#2d3748" stroke-width="0.5"/>
    <polygon points="1230.0,485.0 1280.0,510.0 1230.0,535.0 1180.0,510.0" fill="none" stroke="#2d3748" stroke-width="0.5"/>
    <polygon points="680.0,510.0 730.0,535.0 680.0,560.0 630.0,535.0" fill="none" stroke="#2d3748" stroke-width="0.5"/>
    <polygon points="780.0,510.0 830.0,535.0 780.0,560.0 730.0,535.0" fill="none" stroke="#2d3748" stroke-width="0.5"/>
    <polygon points="880.0,510.0 930.0,535.0 880.0,560.0 830.0,535.0" fill="none" stroke="#2d3748" stroke-width="0.5"/>
    <polygon points="980.0,510.0 1030.0,535.0 980.0,560.0 930.0,535.0" fill="none" stroke="#2d3748" stroke-width="0.5"/>
    <polygon points="1080.0,510.0 1130.0,535.0 1080.0,560.0 1030.0,535.0" fill="none" stroke="#2d3748" stroke-width="0.5"/>
    <polygon points="1180.0,510.0 1230.0,535.0 1180.0,560.0 1130.0,535.0" fill="none" stroke="#2d3748" stroke-width="0.5"/>
    <polygon points="1280.0,510.0 1330.0,535.0 1280.0,560.0 1230.0,535.0" fill="none" stroke="#2d3748" stroke-width="0.5"/>
    <polygon points="730.0,535.0 780.0,560.0 730.0,585.0 680.0,560.0" fill="none" stroke="#2d3748" stroke-width="0.5"/>
    <polygon points="830.0,535.0 880.0,560.0 830.0,585.0 780.0,560.0" fill="none" stroke="#2d3748" stroke-width="0.5"/>
    <polygon points="930.0,535.0 980.0,560.0 930.0,585.0 880.0,560.0" fill="none" stroke="#2d3748" stroke-width="0.5"/>
    <polygon points="1030.0,535.0 1080.0,560.0 1030.0,585.0 980.0,560.0" fill="none" stroke="#2d3748" stroke-width="0.5"/>
    <polygon points="1130.0,535.0 1180.0,560.0 1130.0,585.0 1080.0,560.0" fill="none" stroke="#2d3748" stroke-width="0.5"/>
    <polygon points="1230.0,535.0 1280.0,560.0 1230.0,585.0 1180.0,560.0" fill="none" stroke="#2d3748" stroke-width="0.5"/>
    <polygon points="1330.0,535.0 1380.0,560.0 1330.0,585.0 1280.0,560.0" fill="none" stroke="#2d3748" stroke-width="0.5"/>
    <polygon points="780.0,560.0 830.0,585.0 780.0,610.0 730.0,585.0" fill="none" stroke="#2d3748" stroke-width="0.5"/>
    <polygon points="880.0,560.0 930.0,585.0 880.0,610.0 830.0,585.0" fill="none" stroke="#2d3748" stroke-width="0.5"/>
    <polygon points="980.0,560.0 1030.0,585.0 980.0,610.0 930.0,585.0" fill="none" stroke="#2d3748" stroke-width="0.5"/>
    <polygon points="1080.0,560.0 1130.0,585.0 1080.0,610.0 1030.0,585.0" fill="none" stroke="#2d3748" stroke-width="0.5"/>
    <polygon points="1180.0,560.0 1230.0,585.0 1180.0,610.0 1130.0,585.0" fill="none" stroke="#2d3748" stroke-width="0.5"/>
    <polygon points="1280.0,560.0 1330.0,585.0 1280.0,610.0 1230.0,585.0" fill="none" stroke="#2d3748" stroke-width="0.5"/>
    <polygon points="1380.0,560.0 1430.0,585.0 1380.0,610.0 1330.0,585.0" fill="none" stroke="#2d3748" stroke-width="0.5"/>
    <polygon points="830.0,585.0 880.0,610.0 830.0,635.0 780.0,610.0" fill="none" stroke="#2d3748" stroke-width="0.5"/>
    <polygon points="930.0,585.0 980.0,610.0 930.0,635.0 880.0,610.0" fill="none" stroke="#2d3748" stroke-width="0.5"/>
    <polygon points="1030.0,585.0 1080.0,610.0 1030.0,635.0 980.0,610.0" fill="none" stroke="#2d3748" stroke-width="0.5"/>
    <polygon points="1130.0,585.0 1180.0,610.0 1130.0,635.0 1080.0,610.0" fill="none" stroke="#2d3748" stroke-width="0.5"/>
    <polygon points="1230.0,585.0 1280.0,610.0 1230.0,635.0 1180.0,610.0" fill="none" stroke="#2d3748" stroke-width="0.5"/>
    <polygon points="1330.0,585.0 1380.0,610.0 1330.0,635.0 1280.0,610.0" fill="none" stroke="#2d3748" stroke-width="0.5"/>
    <polygon points="1430.0,585.0 1480.0,610.0 1430.0,635.0 1380.0,610.0" fill="none" stroke="#2d3748" stroke-width="0.5"/>
    <polygon points="880.0,610.0 930.0,635.0 880.0,660.0 830.0,635.0" fill="none" stroke="#2d3748" stroke-width="0.5"/>
    <polygon points="980.0,610.0 1030.0,635.0 980.0,660.0 930.0,635.0" fill="none" stroke="#2d3748" stroke-width="0.5"/>
    <polygon points="1080.0,610.0 1130.0,635.0 1080.0,660.0 1030.0,635.0" fill="none" stroke="#2d3748" stroke-width="0.5"/>
    <polygon points="1180.0,610.0 1230.0,635.0 1180.0,660.0 1130.0,635.0" fill="none" stroke="#2d3748" stroke-width="0.5"/>
    <polygon points="1280.0,610.0 1330.0,635.0 1280.0,660.0 1230.0,635.0" fill="none" stroke="#2d3748" stroke-width="0.5"/>
    <polygon points="1380.0,610.0 1430.0,635.0 1380.0,660.0 1330.0,635.0" fill="none" stroke="#2d3748" stroke-width="0.5"/>
    <polygon points="1480.0,610.0 1530.0,635.0 1480.0,660.0 1430.0,635.0" fill="none" stroke="#2d3748" stroke-width="0.5"/>
    <polygon points="930.0,635.0 980.0,660.0 930.0,685.0 880.0,660.0" fill="none" stroke="#2d3748" stroke-width="0.5"/>
    <polygon points="1030.0,635.0 1080.0,660.0 1030.0,685.0 980.0,660.0" fill="none" stroke="#2d3748" stroke-width="0.5"/>
    <polygon points="1130.0,635.0 1180.0,660.0 1130.0,685.0 1080.0,660.0" fill="none" stroke="#2d3748" stroke-width="0.5"/>
    <polygon points="1230.0,635.0 1280.0,660.0 1230.0,685.0 1180.0,660.0" fill="none" stroke="#2d3748" stroke-width="0.5"/>
    <polygon points="1330.0,635.0 1380.0,660.0 1330.0,685.0 1280.0,660.0" fill="none" stroke="#2d3748" stroke-width="0.5"/>
    <polygon points="1430.0,635.0 1480.0,660.0 1430.0,685.0 1380.0,660.0" fill="none" stroke="#2d3748" stroke-width="0.5"/>
    <polygon points="1530.0,635.0 1580.0,660.0 1530.0,685.0 1480.0,660.0" fill="none" stroke="#2d3748" stroke-width="0.5"/>
    <polygon points="980.0,660.0 1030.0,685.0 980.0,710.0 930.0,685.0" fill="none" stroke="#2d3748" stroke-width="0.5"/>
    <polygon points="1080.0,660.0 1130.0,685.0 1080.0,710.0 1030.0,685.0" fill="none" stroke="#2d3748" stroke-width="0.5"/>
    <polygon points="1180.0,660.0 1230.0,685.0 1180.0,710.0 1130.0,685.0" fill="none" stroke="#2d3748" stroke-width="0.5"/>
    <polygon points="1280.0,660.0 1330.0,685.0 1280.0,710.0 1230.0,685.0" fill="none" stroke="#2d3748" stroke-width="0.5"/>
    <polygon points="1380.0,660.0 1430.0,685.0 1380.0,710.0 1330.0,685.0" fill="none" stroke="#2d3748" stroke-width="0.5"/>
    <polygon points="1480.0,660.0 1530.0,685.0 1480.0,710.0 1430.0,685.0" fill="none" stroke="#2d3748" stroke-width="0.5"/>
    <polygon points="1580.0,660.0 1630.0,685.0 1580.0,710.0 1530.0,685.0" fill="none" stroke="#2d3748" stroke-width="0.5"/>
    <polygon points="1030.0,685.0 1080.0,710.0 1030.0,735.0 980.0,710.0" fill="none" stroke="#2d3748" stroke-width="0.5"/>
    <polygon points="1130.0,685.0 1180.0,710.0 1130.0,735.0 1080.0,710.0" fill="none" stroke="#2d3748" stroke-width="0.5"/>
    <polygon points="1230.0,685.0 1280.0,710.0 1230.0,735.0 1180.0,710.0" fill="none" stroke="#2d3748" stroke-width="0.5"/>
    <polygon points="1330.0,685.0 1380.0,710.0 1330.0,735.0 1280.0,710.0" fill="none" stroke="#2d3748" stroke-width="0.5"/>
    <polygon points="1430.0,685.0 1480.0,710.0 1430.0,735.0 1380.0,710.0" fill="none" stroke="#2d3748" stroke-width="0.5"/>
    <polygon points="1530.0,685.0 1580.0,710.0 1530.0,735.0 1480.0,710.0" fill="none" stroke="#2d3748" stroke-width="0.5"/>
    <polygon points="1630.0,685.0 1680.0,710.0 1630.0,735.0 1580.0,710.0" fill="none" stroke="#2d3748" stroke-width="0.5"/>
    <polygon points="1080.0,710.0 1130.0,735.0 1080.0,760.0 1030.0,735.0" fill="none" stroke="#2d3748" stroke-width="0.5"/>
    <polygon points="1180.0,710.0 1230.0,735.0 1180.0,760.0 1130.0,735.0" fill="none" stroke="#2d3748" stroke-width="0.5"/>
    <polygon points="1280.0,710.0 1330.0,735.0 1280.0,760.0 1230.0,735.0" fill="none" stroke="#2d3748" stroke-width="0.5"/>
    <polygon points="1380.0,710.0 1430.0,735.0 1380.0,760.0 1330.0,735.0" fill="none" stroke="#2d3748" stroke-width="0.5"/>
    <polygon points="1480.0,710.0 1530.0,735.0 1480.0,760.0 1430.0,735.0" fill="none" stroke="#2d3748" stroke-width="0.5"/>
    <polygon points="1580.0,710.0 1630.0,735.0 1580.0,760.0 1530.0,735.0" fill="none" stroke="#2d3748" stroke-width="0.5"/>
    <polygon points="1680.0,710.0 1730.0,735.0 1680.0,760.0 1630.0,735.0" fill="none" stroke="#2d3748" stroke-width="0.5"/>
    <polygon points="1130.0,735.0 1180.0,760.0 1130.0,785.0 1080.0,760.0" fill="none" stroke="#2d3748" stroke-width="0.5"/>
    <polygon points="1230.0,735.0 1280.0,760.0 1230.0,785.0 1180.0,760.0" fill="none" stroke="#2d3748" stroke-width="0.5"/>
    <polygon points="1330.0,735.0 1380.0,760.0 1330.0,785.0 1280.0,760.0" fill="none" stroke="#2d3748" stroke-width="0.5"/>
    <polygon points="1430.0,735.0 1480.0,760.0 1430.0,785.0 1380.0,760.0" fill="none" stroke="#2d3748" stroke-width="0.5"/>
    <polygon points="1530.0,735.0 1580.0,760.0 1530.0,785.0 1480.0,760.0" fill="none" stroke="#2d3748" stroke-width="0.5"/>
    <polygon points="1630.0,735.0 1680.0,760.0 1630.0,785.0 1580.0,760.0" fill="none" stroke="#2d3748" stroke-width="0.5"/>
    <polygon points="1730.0,735.0 1780.0,760.0 1730.0,785.0 1680.0,760.0" fill="none" stroke="#2d3748" stroke-width="0.5"/>
    <polygon points="1180.0,760.0 1230.0,785.0 1180.0,810.0 1130.0,785.0" fill="none" stroke="#2d3748" stroke-width="0.5"/>
    <polygon points="1280.0,760.0 1330.0,785.0 1280.0,810.0 1230.0,785.0" fill="none" stroke="#2d3748" stroke-width="0.5"/>
    <polygon points="1380.0,760.0 1430.0,785.0 1380.0,810.0 1330.0,785.0" fill="none" stroke="#2d3748" stroke-width="0.5"/>
    <polygon points="1480.0,760.0 1530.0,785.0 1480.0,810.0 1430.0,785.0" fill="none" stroke="#2d3748" stroke-width="0.5"/>
    <polygon points="1580.0,760.0 1630.0,785.0 1580.0,810.0 1530.0,785.0" fill="none" stroke="#2d3748" stroke-width="0.5"/>
    <polygon points="1680.0,760.0 1730.0,785.0 1680.0,810.0 1630.0,785.0" fill="none" stroke="#2d3748" stroke-width="0.5"/>
    <polygon points="1780.0,760.0 1830.0,785.0 1780.0,810.0 1730.0,785.0" fill="none" stroke="#2d3748" stroke-width="0.5"/>
    <polygon points="1230.0,785.0 1280.0,810.0 1230.0,835.0 1180.0,810.0" fill="none" stroke="#2d3748" stroke-width="0.5"/>
    <polygon points="1330.0,785.0 1380.0,810.0 1330.0,835.0 1280.0,810.0" fill="none" stroke="#2d3748" stroke-width="0.5"/>
    <polygon points="1430.0,785.0 1480.0,810.0 1430.0,835.0 1380.0,810.0" fill="none" stroke="#2d3748" stroke-width="0.5"/>
    <polygon points="1530.0,785.0 1580.0,810.0 1530.0,835.0 1480.0,810.0" fill="none" stroke="#2d3748" stroke-width="0.5"/>
    <polygon points="1630.0,785.0 1680.0,810.0 1630.0,835.0 1580.0,810.0" fill="none" stroke="#2d3748" stroke-width="0.5"/>
    <polygon points="1730.0,785.0 1780.0,810.0 1730.0,835.0 1680.0,810.0" fill="none" stroke="#2d3748" stroke-width="0.5"/>
    <polygon points="1830.0,785.0 1880.0,810.0 1830.0,835.0 1780.0,810.0" fill="none" stroke="#2d3748" stroke-width="0.5"/>
    <polygon points="1280.0,810.0 1330.0,835.0 1280.0,860.0 1230.0,835.0" fill="none" stroke="#2d3748" stroke-width="0.5"/>
    <polygon points="1380.0,810.0 1430.0,835.0 1380.0,860.0 1330.0,835.0" fill="none" stroke="#2d3748" stroke-width="0.5"/>
    <polygon points="1480.0,810.0 1530.0,835.0 1480.0,860.0 1430.0,835.0" fill="none" stroke="#2d3748" stroke-width="0.5"/>
    <polygon points="1580.0,810.0 1630.0,835.0 1580.0,860.0 1530.0,835.0" fill="none" stroke="#2d3748" stroke-width="0.5"/>
    <polygon points="1680.0,810.0 1730.0,835.0 1680.0,860.0 1630.0,835.0" fill="none" stroke="#2d3748" stroke-width="0.5"/>
    <polygon points="1780.0,810.0 1830.0,835.0 1780.0,860.0 1730.0,835.0" fill="none" stroke="#2d3748" stroke-width="0.5"/>
    <polygon points="1880.0,810.0 1930.0,835.0 1880.0,860.0 1830.0,835.0" fill="none" stroke="#2d3748" stroke-width="0.5"/>
    <polygon points="1330.0,835.0 1380.0,860.0 1330.0,885.0 1280.0,860.0" fill="none" stroke="#2d3748" stroke-width="0.5"/>
    <polygon points="1430.0,835.0 1480.0,860.0 1430.0,885.0 1380.0,860.0" fill="none" stroke="#2d3748" stroke-width="0.5"/>
    <polygon points="1530.0,835.0 1580.0,860.0 1530.0,885.0 1480.0,860.0" fill="none" stroke="#2d3748" stroke-width="0.5"/>
    <polygon points="1630.0,835.0 1680.0,860.0 1630.0,885.0 1580.0,860.0" fill="none" stroke="#2d3748" stroke-width="0.5"/>
    <polygon points="1730.0,835.0 1780.0,860.0 1730.0,885.0 1680.0,860.0" fill="none" stroke="#2d3748" stroke-width="0.5"/>
    <polygon points="1830.0,835.0 1880.0,860.0 1830.0,885.0 1780.0,860.0" fill="none" stroke="#2d3748" stroke-width="0.5"/>
    <polygon points="1930.0,835.0 1980.0,860.0 1930.0,885.0 1880.0,860.0" fill="none" stroke="#2d3748" stroke-width="0.5"/>
    <polygon points="1380.0,860.0 1430.0,885.0 1380.0,910.0 1330.0,885.0" fill="none" stroke="#2d3748" stroke-width="0.5"/>
    <polygon points="1480.0,860.0 1530.0,885.0 1480.0,910.0 1430.0,885.0" fill="none" stroke="#2d3748" stroke-width="0.5"/>
    <polygon points="1580.0,860.0 1630.0,885.0 1580.0,910.0 1530.0,885.0" fill="none" stroke="#2d3748" stroke-width="0.5"/>
    <polygon points="1680.0,860.0 1730.0,885.0 1680.0,910.0 1630.0,885.0" fill="none" stroke="#2d3748" stroke-width="0.5"/>
    <polygon points="1780.0,860.0 1830.0,885.0 1780.0,910.0 1730.0,885.0" fill="none" stroke="#2d3748" stroke-width="0.5"/>
    <polygon points="1880.0,860.0 1930.0,885.0 1880.0,910.0 1830.0,885.0" fill="none" stroke="#2d3748" stroke-width="0.5"/>
    <polygon points="1980.0,860.0 2030.0,885.0 1980.0,910.0 1930.0,885.0" fill="none" stroke="#2d3748" stroke-width="0.5"/>
    <polygon points="1430.0,885.0 1480.0,910.0 1430.0,935.0 1380.0,910.0" fill="none" stroke="#2d3748" stroke-width="0.5"/>
    <polygon points="1530.0,885.0 1580.0,910.0 1530.0,935.0 1480.0,910.0" fill="none" stroke="#2d3748" stroke-width="0.5"/>
    <polygon points="1630.0,885.0 1680.0,910.0 1630.0,935.0 1580.0,910.0" fill="none" stroke="#2d3748" stroke-width="0.5"/>
    <polygon points="1730.0,885.0 1780.0,910.0 1730.0,935.0 1680.0,910.0" fill="none" stroke="#2d3748" stroke-width="0.5"/>
    <polygon points="1830.0,885.0 1880.0,910.0 1830.0,935.0 1780.0,910.0" fill="none" stroke="#2d3748" stroke-width="0.5"/>
    <polygon points="1930.0,885.0 1980.0,910.0 1930.0,935.0 1880.0,910.0" fill="none" stroke="#2d3748" stroke-width="0.5"/>
    <polygon points="2030.0,885.0 2080.0,910.0 2030.0,935.0 1980.0,910.0" fill="none" stroke="#2d3748" stroke-width="0.5"/>
    <polygon points="1480.0,910.0 1530.0,935.0 1480.0,960.0 1430.0,935.0" fill="none" stroke="#2d3748" stroke-width="0.5"/>
    <polygon points="1580.0,910.0 1630.0,935.0 1580.0,960.0 1530.0,935.0" fill="none" stroke="#2d3748" stroke-width="0.5"/>
    <polygon points="1680.0,910.0 1730.0,935.0 1680.0,960.0 1630.0,935.0" fill="none" stroke="#2d3748" stroke-width="0.5"/>
    <polygon points="1780.0,910.0 1830.0,935.0 1780.0,960.0 1730.0,935.0" fill="none" stroke="#2d3748" stroke-width="0.5"/>
    <polygon points="1880.0,910.0 1930.0,935.0 1880.0,960.0 1830.0,935.0" fill="none" stroke="#2d3748" stroke-width="0.5"/>
    <polygon points="1980.0,910.0 2030.0,935.0 1980.0,960.0 1930.0,935.0" fill="none" stroke="#2d3748" stroke-width="0.5"/>
    <polygon points="2080.0,910.0 2130.0,935.0 2080.0,960.0 2030.0,935.0" fill="none" stroke="#2d3748" stroke-width="0.5"/>
    <polygon points="1530.0,935.0 1580.0,960.0 1530.0,985.0 1480.0,960.0" fill="none" stroke="#2d3748" stroke-width="0.5"/>
    <polygon points="1630.0,935.0 1680.0,960.0 1630.0,985.0 1580.0,960.0" fill="none" stroke="#2d3748" stroke-width="0.5"/>
    <polygon points="1730.0,935.0 1780.0,960.0 1730.0,985.0 1680.0,960.0" fill="none" stroke="#2d3748" stroke-width="0.5"/>
    <polygon points="1830.0,935.0 1880.0,960.0 1830.0,985.0 1780.0,960.0" fill="none" stroke="#2d3748" stroke-width="0.5"/>
    <polygon points="1930.0,935.0 1980.0,960.0 1930.0,985.0 1880.0,960.0" fill="none" stroke="#2d3748" stroke-width="0.5"/>
    <polygon points="2030.0,935.0 2080.0,960.0 2030.0,985.0 1980.0,960.0" fill="none" stroke="#2d3748" stroke-width="0.5"/>
    <polygon points="2130.0,935.0 2180.0,960.0 2130.0,985.0 2080.0,960.0" fill="none" stroke="#2d3748" stroke-width="0.5"/>
    <polygon points="1580.0,960.0 1630.0,985.0 1580.0,1010.0 1530.0,985.0" fill="none" stroke="#2d3748" stroke-width="0.5"/>
    <polygon points="1680.0,960.0 1730.0,985.0 1680.0,1010.0 1630.0,985.0" fill="none" stroke="#2d3748" stroke-width="0.5"/>
    <polygon points="1780.0,960.0 1830.0,985.0 1780.0,1010.0 1730.0,985.0" fill="none" stroke="#2d3748" stroke-width="0.5"/>
    <polygon points="1880.0,960.0 1930.0,985.0 1880.0,1010.0 1830.0,985.0" fill="none" stroke="#2d3748" stroke-width="0.5"/>
    <polygon points="1980.0,960.0 2030.0,985.0 1980.0,1010.0 1930.0,985.0" fill="none" stroke="#2d3748" stroke-width="0.5"/>
    <polygon points="2080.0,960.0 2130.0,985.0 2080.0,1010.0 2030.0,985.0" fill="none" stroke="#2d3748" stroke-width="0.5"/>
    <polygon points="2180.0,960.0 2230.0,985.0 2180.0,1010.0 2130.0,985.0" fill="none" stroke="#2d3748" stroke-width="0.5"/>
    <polygon points="1630.0,985.0 1680.0,1010.0 1630.0,1035.0 1580.0,1010.0" fill="none" stroke="#2d3748" stroke-width="0.5"/>
    <polygon points="1730.0,985.0 1780.0,1010.0 1730.0,1035.0 1680.0,1010.0" fill="none" stroke="#2d3748" stroke-width="0.5"/>
    <polygon points="1830.0,985.0 1880.0,1010.0 1830.0,1035.0 1780.0,1010.0" fill="none" stroke="#2d3748" stroke-width="0.5"/>
    <polygon points="1930.0,985.0 1980.0,1010.0 1930.0,1035.0 1880.0,1010.0" fill="none" stroke="#2d3748" stroke-width="0.5"/>
    <polygon points="2030.0,985.0 2080.0,1010.0 2030.0,1035.0 1980.0,1010.0" fill="none" stroke="#2d3748" stroke-width="0.5"/>
    <polygon points="2130.0,985.0 2180.0,1010.0 2130.0,1035.0 2080.0,1010.0" fill="none" stroke="#2d3748" stroke-width="0.5"/>
    <polygon points="2230.0,985.0 2280.0,1010.0 2230.0,1035.0 2180.0,1010.0" fill="none" stroke="#2d3748" stroke-width="0.5"/>
    <polygon points="2230.0,1035.0 2280.0,1010.0 2280.0,974.6 2230.0,999.6" fill="#5628a5" stroke="none"/>
    <polygon points="2330.0,1035.0 2280.0,1060.0 2280.0,1024.6 2330.0,999.6" fill="#6931c9" stroke="none"/>
    <polygon points="2280.0,974.6 2330.0,999.6 2280.0,1024.6 2230.0,999.6" fill="#7c3aed" stroke="#9445ff" stroke-width="0.5"/>
    <polygon points="1680.0,1010.0 1730.0,1035.0 1680.0,1060.0 1630.0,1035.0" fill="none" stroke="#2d3748" stroke-width="0.5"/>
    <polygon points="1780.0,1010.0 1830.0,1035.0 1780.0,1060.0 1730.0,1035.0" fill="none" stroke="#2d3748" stroke-width="0.5"/>
    <polygon points="1880.0,1010.0 1930.0,1035.0 1880.0,1060.0 1830.0,1035.0" fill="none" stroke="#2d3748" stroke-width="0.5"/>
    <polygon points="1980.0,1010.0 2030.0,1035.0 1980.0,1060.0 1930.0,1035.0" fill="none" stroke="#2d3748" stroke-width="0.5"/>
    <polygon points="2080.0,1010.0 2130.0,1035.0 2080.0,1060.0 2030.0,1035.0" fill="none" stroke="#2d3748" stroke-width="0.5"/>
    <polygon points="2180.0,1010.0 2230.0,1035.0 2180.0,1060.0 2130.0,1035.0" fill="none" stroke="#2d3748" stroke-width="0.5"/>
    <polygon points="1730.0,1035.0 1780.0,1060.0 1730.0,1085.0 1680.0,1060.0" fill="none" stroke="#2d3748" stroke-width="0.5"/>
    <polygon points="1830.0,1035.0 1880.0,1060.0 1830.0,1085.0 1780.0,1060.0" fill="none" stroke="#2d3748" stroke-width="0.5"/>
    <polygon points="1930.0,1035.0 1980.0,1060.0 1930.0,1085.0 1880.0,1060.0" fill="none" stroke="#2d3748" stroke-width="0.5"/>
    <polygon points="2030.0,1035.0 2080.0,1060.0 2030.0,1085.0 1980.0,1060.0" fill="none" stroke="#2d3748" stroke-width="0.5"/>
    <polygon points="2130.0,1035.0 2180.0,1060.0 2130.0,1085.0 2080.0,1060.0" fill="none" stroke="#2d3748" stroke-width="0.5"/>
    <polygon points="2230.0,1035.0 2280.0,1060.0 2230.0,1085.0 2180.0,1060.0" fill="none" stroke="#2d3748" stroke-width="0.5"/>
    <polygon points="2330.0,1035.0 2380.0,1060.0 2330.0,1085.0 2280.0,1060.0" fill="none" stroke="#2d3748" stroke-width="0.5"/>
    <polygon points="1780.0,1060.0 1830.0,1085.0 1780.0,1110.0 1730.0,1085.0" fill="none" stroke="#2d3748" stroke-width="0.5"/>
    <polygon points="1880.0,1060.0 1930.0,1085.0 1880.0,1110.0 1830.0,1085.0" fill="none" stroke="#2d3748" stroke-width="0.5"/>
    <polygon points="1980.0,1060.0 2030.0,1085.0 1980.0,1110.0 1930.0,1085.0" fill="none" stroke="#2d3748" stroke-width="0.5"/>
    <polygon points="2080.0,1060.0 2130.0,1085.0 2080.0,1110.0 2030.0,1085.0" fill="none" stroke="#2d3748" stroke-width="0.5"/>
    <polygon points="2180.0,1060.0 2230.0,1085.0 2180.0,1110.0 2130.0,1085.0" fill="none" stroke="#2d3748" stroke-width="0.5"/>
    <polygon points="2280.0,1060.0 2330.0,1085.0 2280.0,1110.0 2230.0,1085.0" fill="none" stroke="#2d3748" stroke-width="0.5"/>
    <polygon points="2380.0,1060.0 2430.0,1085.0 2380.0,1110.0 2330.0,1085.0" fill="none" stroke="#2d3748" stroke-width="0.5"/>
    <polygon points="1830.0,1085.0 1880.0,1110.0 1830.0,1135.0 1780.0,1110.0" fill="none" stroke="#2d3748" stroke-width="0.5"/>
    <polygon points="1930.0,1085.0 1980.0,1110.0 1930.0,1135.0 1880.0,1110.0" fill="none" stroke="#2d3748" stroke-width="0.5"/>
    <polygon points="2030.0,1085.0 2080.0,1110.0 2030.0,1135.0 1980.0,1110.0" fill="none" stroke="#2d3748" stroke-width="0.5"/>
    <polygon points="2130.0,1085.0 2180.0,1110.0 2130.0,1135.0 2080.0,1110.0" fill="none" stroke="#2d3748" stroke-width="0.5"/>
    <polygon points="2230.0,1085.0 2280.0,1110.0 2230.0,1135.0 2180.0,1110.0" fill="none" stroke="#2d3748" stroke-width="0.5"/>
    <polygon points="2330.0,1085.0 2380.0,1110.0 2330.0,1135.0 2280.0,1110.0" fill="none" stroke="#2d3748" stroke-width="0.5"/>
    <polygon points="2430.0,1085.0 2480.0,1110.0 2430.0,1135.0 2380.0,1110.0" fill="none" stroke="#2d3748" stroke-width="0.5"/>
    <polygon points="1930.0,1135.0 1980.0,1110.0 1980.0,1096.1 1930.0,1121.1" fill="#200b46" stroke="none"/>
    <polygon points="2030.0,1135.0 1980.0,1160.0 1980.0,1146.1 2030.0,1121.1" fill="#270d55" stroke="none"/>
    <polygon points="1980.0,1096.1 2030.0,1121.1 1980.0,1146.1 1930.0,1121.1" fill="#2e1065" stroke="#371379" stroke-width="0.5"/>
    <polygon points="1880.0,1110.0 1930.0,1135.0 1880.0,1160.0 1830.0,1135.0" fill="none" stroke="#2d3748" stroke-width="0.5"/>
    <polygon points="2080.0,1110.0 2130.0,1135.0 2080.0,1160.0 2030.0,1135.0" fill="none" stroke="#2d3748" stroke-width="0.5"/>
    <polygon points="2180.0,1110.0 2230.0,1135.0 2180.0,1160.0 2130.0,1135.0" fill="none" stroke="#2d3748" stroke-width="0.5"/>
    <polygon points="2280.0,1110.0 2330.0,1135.0 2280.0,1160.0 2230.0,1135.0" fill="none" stroke="#2d3748" stroke-width="0.5"/>
    <polygon points="2380.0,1110.0 2430.0,1135.0 2380.0,1160.0 2330.0,1135.0" fill="none" stroke="#2d3748" stroke-width="0.5"/>
    <polygon points="2480.0,1110.0 2530.0,1135.0 2480.0,1160.0 2430.0,1135.0" fill="none" stroke="#2d3748" stroke-width="0.5"/>
    <polygon points="1880.0,1160.0 1930.0,1135.0 1930.0,1087.4 1880.0,1112.4" fill="#5628a5" stroke="none"/>
    <polygon points="1980.0,1160.0 1930.0,1185.0 1930.0,1137.4 1980.0,1112.4" fill="#6931c9" stroke="none"/>
    <polygon points="1930.0,1087.4 1980.0,1112.4 1930.0,1137.4 1880.0,1112.4" fill="#7c3aed" stroke="#9445ff" stroke-width="0.5"/>
    <polygon points="2030.0,1135.0 2080.0,1160.0 2030.0,1185.0 1980.0,1160.0" fill="none" stroke="#2d3748" stroke-width="0.5"/>
    <polygon points="2130.0,1135.0 2180.0,1160.0 2130.0,1185.0 2080.0,1160.0" fill="none" stroke="#2d3748" stroke-width="0.5"/>
    <polygon points="2230.0,1135.0 2280.0,1160.0 2230.0,1185.0 2180.0,1160.0" fill="none" stroke="#2d3748" stroke-width="0.5"/>
    <polygon points="2330.0,1135.0 2380.0,1160.0 2330.0,1185.0 2280.0,1160.0" fill="none" stroke="#2d3748" stroke-width="0.5"/>
    <polygon points="2430.0,1135.0 2480.0,1160.0 2430.0,1185.0 2380.0,1160.0" fill="none" stroke="#2d3748" stroke-width="0.5"/>
    <polygon points="2530.0,1135.0 2580.0,1160.0 2530.0,1185.0 2480.0,1160.0" fill="none" stroke="#2d3748" stroke-width="0.5"/>
    <polygon points="1980.0,1160.0 2030.0,1185.0 1980.0,1210.0 1930.0,1185.0" fill="none" stroke="#2d3748" stroke-width="0.5"/>
    <polygon points="2080.0,1160.0 2130.0,1185.0 2080.0,1210.0 2030.0,1185.0" fill="none" stroke="#2d3748" stroke-width="0.5"/>
    <polygon points="2180.0,1160.0 2230.0,1185.0 2180.0,1210.0 2130.0,1185.0" fill="none" stroke="#2d3748" stroke-width="0.5"/>
    <polygon points="2280.0,1160.0 2330.0,1185.0 2280.0,1210.0 2230.0,1185.0" fill="none" stroke="#2d3748" stroke-width="0.5"/>
    <polygon points="2380.0,1160.0 2430.0,1185.0 2380.0,1210.0 2330.0,1185.0" fill="none" stroke="#2d3748" stroke-width="0.5"/>
    <polygon points="2480.0,1160.0 2530.0,1185.0 2480.0,1210.0 2430.0,1185.0" fill="none" stroke="#2d3748" stroke-width="0.5"/>
    <polygon points="2580.0,1160.0 2630.0,1185.0 2580.0,1210.0 2530.0,1185.0" fill="none" stroke="#2d3748" stroke-width="0.5"/>
    <polygon points="2030.0,1185.0 2080.0,1210.0 2030.0,1235.0 1980.0,1210.0" fill="none" stroke="#2d3748" stroke-width="0.5"/>
    <polygon points="2130.0,1185.0 2180.0,1210.0 2130.0,1235.0 2080.0,1210.0" fill="none" stroke="#2d3748" stroke-width="0.5"/>
    <polygon points="2230.0,1185.0 2280.0,1210.0 2230.0,1235.0 2180.0,1210.0" fill="none" stroke="#2d3748" stroke-width="0.5"/>
    <polygon points="2330.0,1185.0 2380.0,1210.0 2330.0,1235.0 2280.0,1210.0" fill="none" stroke="#2d3748" stroke-width="0.5"/>
    <polygon points="2430.0,1185.0 2480.0,1210.0 2430.0,1235.0 2380.0,1210.0" fill="none" stroke="#2d3748" stroke-width="0.5"/>
    <polygon points="2530.0,1185.0 2580.0,1210.0 2530.0,1235.0 2480.0,1210.0" fill="none" stroke="#2d3748" stroke-width="0.5"/>
    <polygon points="2630.0,1185.0 2680.0,1210.0 2630.0,1235.0 2580.0,1210.0" fill="none" stroke="#2d3748" stroke-width="0.5"/>
    <polygon points="2080.0,1210.0 2130.0,1235.0 2080.0,1260.0 2030.0,1235.0" fill="none" stroke="#2d3748" stroke-width="0.5"/>
    <polygon points="2180.0,1210.0 2230.0,1235.0 2180.0,1260.0 2130.0,1235.0" fill="none" stroke="#2d3748" stroke-width="0.5"/>
    <polygon points="2280.0,1210.0 2330.0,1235.0 2280.0,1260.0 2230.0,1235.0" fill="none" stroke="#2d3748" stroke-width="0.5"/>
    <polygon points="2380.0,1210.0 2430.0,1235.0 2380.0,1260.0 2330.0,1235.0" fill="none" stroke="#2d3748" stroke-width="0.5"/>
    <polygon points="2480.0,1210.0 2530.0,1235.0 2480.0,1260.0 2430.0,1235.0" fill="none" stroke="#2d3748" stroke-width="0.5"/>
    <polygon points="2580.0,1210.0 2630.0,1235.0 2580.0,1260.0 2530.0,1235.0" fill="none" stroke="#2d3748" stroke-width="0.5"/>
    <polygon points="2680.0,1210.0 2730.0,1235.0 2680.0,1260.0 2630.0,1235.0" fill="none" stroke="#2d3748" stroke-width="0.5"/>
    <polygon points="2130.0,1235.0 2180.0,1260.0 2130.0,1285.0 2080.0,1260.0" fill="none" stroke="#2d3748" stroke-width="0.5"/>
    <polygon points="2230.0,1235.0 2280.0,1260.0 2230.0,1285.0 2180.0,1260.0" fill="none" stroke="#2d3748" stroke-width="0.5"/>
    <polygon points="2330.0,1235.0 2380.0,1260.0 2330.0,1285.0 2280.0,1260.0" fill="none" stroke="#2d3748" stroke-width="0.5"/>
    <polygon points="2430.0,1235.0 2480.0,1260.0 2430.0,1285.0 2380.0,1260.0" fill="none" stroke="#2d3748" stroke-width="0.5"/>
    <polygon points="2530.0,1235.0 2580.0,1260.0 2530.0,1285.0 2480.0,1260.0" fill="none" stroke="#2d3748" stroke-width="0.5"/>
    <polygon points="2630.0,1235.0 2680.0,1260.0 2630.0,1285.0 2580.0,1260.0" fill="none" stroke="#2d3748" stroke-width="0.5"/>
    <polygon points="2730.0,1235.0 2780.0,1260.0 2730.0,1285.0 2680.0,1260.0" fill="none" stroke="#2d3748" stroke-width="0.5"/>
    <polygon points="2180.0,1260.0 2230.0,1285.0 2180.0,1310.0 2130.0,1285.0" fill="none" stroke="#2d3748" stroke-width="0.5"/>
    <polygon points="2280.0,1260.0 2330.0,1285.0 2280.0,1310.0 2230.0,1285.0" fill="none" stroke="#2d3748" stroke-width="0.5"/>
    <polygon points="2380.0,1260.0 2430.0,1285.0 2380.0,1310.0 2330.0,1285.0" fill="none" stroke="#2d3748" stroke-width="0.5"/>
    <polygon points="2480.0,1260.0 2530.0,1285.0 2480.0,1310.0 2430.0,1285.0" fill="none" stroke="#2d3748" stroke-width="0.5"/>
    <polygon points="2580.0,1260.0 2630.0,1285.0 2580.0,1310.0 2530.0,1285.0" fill="none" stroke="#2d3748" stroke-width="0.5"/>
    <polygon points="2680.0,1260.0 2730.0,1285.0 2680.0,1310.0 2630.0,1285.0" fill="none" stroke="#2d3748" stroke-width="0.5"/>
    <polygon points="2780.0,1260.0 2830.0,1285.0 2780.0,1310.0 2730.0,1285.0" fill="none" stroke="#2d3748" stroke-width="0.5"/>
    <polygon points="2230.0,1285.0 2280.0,1310.0 2230.0,1335.0 2180.0,1310.0" fill="none" stroke="#2d3748" stroke-width="0.5"/>
    <polygon points="2330.0,1285.0 2380.0,1310.0 2330.0,1335.0 2280.0,1310.0" fill="none" stroke="#2d3748" stroke-width="0.5"/>
    <polygon points="2430.0,1285.0 2480.0,1310.0 2430.0,1335.0 2380.0,1310.0" fill="none" stroke="#2d3748" stroke-width="0.5"/>
    <polygon points="2530.0,1285.0 2580.0,1310.0 2530.0,1335.0 2480.0,1310.0" fill="none" stroke="#2d3748" stroke-width="0.5"/>
    <polygon points="2630.0,1285.0 2680.0,1310.0 2630.0,1335.0 2580.0,1310.0" fill="none" stroke="#2d3748" stroke-width="0.5"/>
    <polygon points="2730.0,1285.0 2780.0,1310.0 2730.0,1335.0 2680.0,1310.0" fill="none" stroke="#2d3748" stroke-width="0.5"/>
    <polygon points="2830.0,1285.0 2880.0,1310.0 2830.0,1335.0 2780.0,1310.0" fill="none" stroke="#2d3748" stroke-width="0.5"/>
    <polygon points="2280.0,1310.0 2330.0,1335.0 2280.0,1360.0 2230.0,1335.0" fill="none" stroke="#2d3748" stroke-width="0.5"/>
    <polygon points="2380.0,1310.0 2430.0,1335.0 2380.0,1360.0 2330.0,1335.0" fill="none" stroke="#2d3748" stroke-width="0.5"/>
    <polygon points="2480.0,1310.0 2530.0,1335.0 2480.0,1360.0 2430.0,1335.0" fill="none" stroke="#2d3748" stroke-width="0.5"/>
    <polygon points="2580.0,1310.0 2630.0,1335.0 2580.0,1360.0 2530.0,1335.0" fill="none" stroke="#2d3748" stroke-width="0.5"/>
    <polygon points="2680.0,1310.0 2730.0,1335.0 2680.0,1360.0 2630.0,1335.0" fill="none" stroke="#2d3748" stroke-width="0.5"/>
    <polygon points="2780.0,1310.0 2830.0,1335.0 2780.0,1360.0 2730.0,1335.0" fill="none" stroke="#2d3748" stroke-width="0.5"/>
    <polygon points="2880.0,1310.0 2930.0,1335.0 2880.0,1360.0 2830.0,1335.0" fill="none" stroke="#2d3748" stroke-width="0.5"/>
    <polygon points="2330.0,1335.0 2380.0,1360.0 2330.0,1385.0 2280.0,1360.0" fill="none" stroke="#2d3748" stroke-width="0.5"/>
    <polygon points="2430.0,1335.0 2480.0,1360.0 2430.0,1385.0 2380.0,1360.0" fill="none" stroke="#2d3748" stroke-width="0.5"/>
    <polygon points="2530.0,1335.0 2580.0,1360.0 2530.0,1385.0 2480.0,1360.0" fill="none" stroke="#2d3748" stroke-width="0.5"/>
    <polygon points="2630.0,1335.0 2680.0,1360.0 2630.0,1385.0 2580.0,1360.0" fill="none" stroke="#2d3748" stroke-width="0.5"/>
    <polygon points="2730.0,1335.0 2780.0,1360.0 2730.0,1385.0 2680.0,1360.0" fill="none" stroke="#2d3748" stroke-width="0.5"/>
    <polygon points="2830.0,1335.0 2880.0,1360.0 2830.0,1385.0 2780.0,1360.0" fill="none" stroke="#2d3748" stroke-width="0.5"/>
    <polygon points="2930.0,1335.0 2980.0,1360.0 2930.0,1385.0 2880.0,1360.0" fill="none" stroke="#2d3748" stroke-width="0.5"/>
    <polygon points="2630.0,1435.0 2680.0,1410.0 2680.0,1264.0 2630.0,1289.0" fill="#b2b2b2" stroke="none"/>
    <polygon points="2730.0,1435.0 2680.0,1460.0 2680.0,1314.0 2730.0,1289.0" fill="#d8d8d8" stroke="none"/>
    <polygon points="2680.0,1264.0 2730.0,1289.0 2680.0,1314.0 2630.0,1289.0" fill="#ffffff" stroke="#ffffff" stroke-width="0.5"/>
    <polygon points="2380.0,1360.0 2430.0,1385.0 2380.0,1410.0 2330.0,1385.0" fill="none" stroke="#2d3748" stroke-width="0.5"/>
    <polygon points="2480.0,1360.0 2530.0,1385.0 2480.0,1410.0 2430.0,1385.0" fill="none" stroke="#2d3748" stroke-width="0.5"/>
    <polygon points="2580.0,1360.0 2630.0,1385.0 2580.0,1410.0 2530.0,1385.0" fill="none" stroke="#2d3748" stroke-width="0.5"/>
    <polygon points="2680.0,1360.0 2730.0,1385.0 2680.0,1410.0 2630.0,1385.0" fill="none" stroke="#2d3748" stroke-width="0.5"/>
    <polygon points="2780.0,1360.0 2830.0,1385.0 2780.0,1410.0 2730.0,1385.0" fill="none" stroke="#2d3748" stroke-width="0.5"/>
    <polygon points="2880.0,1360.0 2930.0,1385.0 2880.0,1410.0 2830.0,1385.0" fill="none" stroke="#2d3748" stroke-width="0.5"/>
    <polygon points="2980.0,1360.0 3030.0,1385.0 2980.0,1410.0 2930.0,1385.0" fill="none" stroke="#2d3748" stroke-width="0.5"/>
    <polygon points="2580.0,1460.0 2630.0,1435.0 2630.0,1333.5 2580.0,1358.5" fill="#1793a6" stroke="none"/>
    <polygon points="2680.0,1460.0 2630.0,1485.0 2630.0,1383.5 2680.0,1358.5" fill="#1cb3ca" stroke="none"/>
    <polygon points="2630.0,1333.5 2680.0,1358.5 2630.0,1383.5 2580.0,1358.5" fill="#22d3ee" stroke="#28fdff" stroke-width="0.5"/>
    <polygon points="2430.0,1385.0 2480.0,1410.0 2430.0,1435.0 2380.0,1410.0" fill="none" stroke="#2d3748" stroke-width="0.5"/>
    <polygon points="2530.0,1385.0 2580.0,1410.0 2530.0,1435.0 2480.0,1410.0" fill="none" stroke="#2d3748" stroke-width="0.5"/>
    <polygon points="2630.0,1385.0 2680.0,1410.0 2630.0,1435.0 2580.0,1410.0" fill="none" stroke="#2d3748" stroke-width="0.5"/>
    <polygon points="2730.0,1385.0 2780.0,1410.0 2730.0,1435.0 2680.0,1410.0" fill="none" stroke="#2d3748" stroke-width="0.5"/>
    <polygon points="2830.0,1385.0 2880.0,1410.0 2830.0,1435.0 2780.0,1410.0" fill="none" stroke="#2d3748" stroke-width="0.5"/>
    <polygon points="2930.0,1385.0 2980.0,1410.0 2930.0,1435.0 2880.0,1410.0" fill="none" stroke="#2d3748" stroke-width="0.5"/>
    <polygon points="2480.0,1410.0 2530.0,1435.0 2480.0,1460.0 2430.0,1435.0" fill="none" stroke="#2d3748" stroke-width="0.5"/>
    <polygon points="2580.0,1410.0 2630.0,1435.0 2580.0,1460.0 2530.0,1435.0" fill="none" stroke="#2d3748" stroke-width="0.5"/>
    <polygon points="2780.0,1410.0 2830.0,1435.0 2780.0,1460.0 2730.0,1435.0" fill="none" stroke="#2d3748" stroke-width="0.5"/>
    <polygon points="2880.0,1410.0 2930.0,1435.0 2880.0,1460.0 2830.0,1435.0" fill="none" stroke="#2d3748" stroke-width="0.5"/>
    <polygon points="2530.0,1435.0 2580.0,1460.0 2530.0,1485.0 2480.0,1460.0" fill="none" stroke="#2d3748" stroke-width="0.5"/>
    <polygon points="2730.0,1435.0 2780.0,1460.0 2730.0,1485.0 2680.0,1460.0" fill="none" stroke="#2d3748" stroke-width="0.5"/>
    <polygon points="2830.0,1435.0 2880.0,1460.0 2830.0,1485.0 2780.0,1460.0" fill="none" stroke="#2d3748" stroke-width="0.5"/>
    <polygon points="2580.0,1460.0 2630.0,1485.0 2580.0,1510.0 2530.0,1485.0" fill="none" stroke="#2d3748" stroke-width="0.5"/>
    <polygon points="2680.0,1460.0 2730.0,1485.0 2680.0,1510.0 2630.0,1485.0" fill="none" stroke="#2d3748" stroke-width="0.5"/>
    <polygon points="2630.0,1485.0 2680.0,1510.0 2630.0,1535.0 2580.0,1510.0" fill="none" stroke="#2d3748" stroke-width="0.5"/>
  </g>
  
  <text x="30" y="1770">Contribution City • 2025</text>
  <text x="2910" y="1770" text-anchor="end" fill="#7c3aed">Engineering Mode</text>
</svg>