<?xml version="1.0" encoding="UTF-8"?>
<svg xmlns="http://www.w3.org/2000/svg" width="1320" height="1080" viewBox="0 0 1320 1080" role="img">
  <defs>
    <style>text { font-family: 'Segoe UI', Ubuntu, sans-serif; fill: #94a3b8; font-size: 14px; }</style>
    <linearGradient id="bg-gradient" x1="0%" y1="0%" x2="0%" y2="100%">
      <stop offset="0%" style="stop-color:#0f172a;stop-opacity:1" />
      <stop offset="100%" style="stop-color:#1e1b4b;stop-opacity:1" />
    </linearGradient>
  </defs>
  <rect width="100%" height="100%" fill="url(#bg-gradient)" />
  
  <g transform="translate(0,20)">
    <polygon points="1122.0,775.0 1143.0,762.0 1143.0,616.0 1122.0,629.0" fill="#b2b2b2" stroke="none"/>
    <polygon points="1164.0,775.0 1143.0,788.0 1143.0,642.0 1164.0,629.0" fill="#d8d8d8" stroke="none"/>
    <polygon points="1143.0,616.0 1164.0,629.0 1143.0,642.0 1122.0,629.0" fill="#ffffff" stroke="#ffffff" stroke-width="0.5"/>
    <polygon points="1101.0,788.0 1122.0,775.0 1122.0,687.6 1101.0,700.6" fill="#861a93" stroke="none"/>
    <polygon points="1143.0,788.0 1122.0,801.0 1122.0,713.6 1143.0,700.6" fill="#a320b3" stroke="none"/>
    <polygon points="1122.0,687.6 1143.0,700.6 1122.0,713.6 1101.0,700.6" fill="#c026d3" stroke="#e62dfd" stroke-width="0.5"/>
  </g>
  
  <text x="30" y="1050">Contribution City • 2025</text>
  <text x="1170" y="1050" text-anchor="end" fill="#7c3aed">Engineering Mode</text>
</svg>