<?xml version="1.0" encoding="UTF-8"?>
    <svg xmlns="http://www.w3.org/2000/svg" width="450" height="220" viewBox="0 0 450 220">
      <defs>
        <style>text { font-family: 'Segoe UI', Ubuntu, sans-serif; }</style>
        <linearGradient id="card-bg" x1="0%" y1="0%" x2="100%" y2="100%">
            <stop offset="0%" stop-color="#0d0019"/>
            <stop offset="100%" stop-color="#1a103c"/>
        </linearGradient>
      </defs>
      <rect width="100%" height="100%" fill="url(#card-bg)" rx="10" ry="10" stroke="#9e3dff" stroke-width="1" stroke-opacity="0.3"/>
      <text x="20" y="35" fill="#9e3dff" font-size="18" font-weight="bold">Tech Stack &amp; Linguagens</text>
      <text x="20" y="60" fill="#e2e8f0" font-size="14" font-weight="600" dominant-baseline="middle">GDScript</text><rect x="120" y="54" width="290" height="12" fill="#1e1b4b" rx="4" ry="4"/><rect x="120" y="54" width="111.40885153136036" height="12" fill="#9e3dff" rx="4" ry="4">
      <animate attributeName="width" from="0" to="111.40885153136036" dur="1s" fill="freeze" calcMode="spline" keyTimes="0;1" keySplines="0.4 0 0.2 1"/>
    </rect><text x="430" y="60" fill="#94a3b8" font-size="12" text-anchor="end" dominant-baseline="middle">41.3%</text><text x="20" y="85" fill="#e2e8f0" font-size="14" font-weight="600" dominant-baseline="middle">TypeScript</text><rect x="120" y="79" width="290" height="12" fill="#1e1b4b" rx="4" ry="4"/><rect x="120" y="79" width="103.27630573511492" height="12" fill="#8a2be2" rx="4" ry="4">
      <animate attributeName="width" from="0" to="103.27630573511492" dur="1s" fill="freeze" calcMode="spline" keyTimes="0;1" keySplines="0.4 0 0.2 1"/>
    </rect><text x="430" y="85" fill="#94a3b8" font-size="12" text-anchor="end" dominant-baseline="middle">38.3%</text><text x="20" y="110" fill="#e2e8f0" font-size="14" font-weight="600" dominant-baseline="middle">C#</text><rect x="120" y="104" width="290" height="12" fill="#1e1b4b" rx="4" ry="4"/><rect x="120" y="104" width="22.042295698147502" height="12" fill="#7c3aed" rx="4" ry="4">
      <animate attributeName="width" from="0" to="22.042295698147502" dur="1s" fill="freeze" calcMode="spline" keyTimes="0;1" keySplines="0.4 0 0.2 1"/>
    </rect><text x="430" y="110" fill="#94a3b8" font-size="12" text-anchor="end" dominant-baseline="middle">8.2%</text><text x="20" y="135" fill="#e2e8f0" font-size="14" font-weight="600" dominant-baseline="middle">C</text><rect x="120" y="129" width="290" height="12" fill="#1e1b4b" rx="4" ry="4"/><rect x="120" y="129" width="9.048512009252184" height="12" fill="#6d28d9" rx="4" ry="4">
      <animate attributeName="width" from="0" to="9.048512009252184" dur="1s" fill="freeze" calcMode="spline" keyTimes="0;1" keySplines="0.4 0 0.2 1"/>
    </rect><text x="430" y="135" fill="#94a3b8" font-size="12" text-anchor="end" dominant-baseline="middle">3.4%</text><text x="20" y="160" fill="#e2e8f0" font-size="14" font-weight="600" dominant-baseline="middle">Python</text><rect x="120" y="154" width="290" height="12" fill="#1e1b4b" rx="4" ry="4"/><rect x="120" y="154" width="8.884574874537908" height="12" fill="#4c1d95" rx="4" ry="4">
      <animate attributeName="width" from="0" to="8.884574874537908" dur="1s" fill="freeze" calcMode="spline" keyTimes="0;1" keySplines="0.4 0 0.2 1"/>
    </rect><text x="430" y="160" fill="#94a3b8" font-size="12" text-anchor="end" dominant-baseline="middle">3.3%</text><text x="20" y="185" fill="#e2e8f0" font-size="14" font-weight="600" dominant-baseline="middle">GDShader</text><rect x="120" y="179" width="290" height="12" fill="#1e1b4b" rx="4" ry="4"/><rect x="120" y="179" width="8.40503087503356" height="12" fill="#22d3ee" rx="4" ry="4">
      <animate attributeName="width" from="0" to="8.40503087503356" dur="1s" fill="freeze" calcMode="spline" keyTimes="0;1" keySplines="0.4 0 0.2 1"/>
    </rect><text x="430" y="185" fill="#94a3b8" font-size="12" text-anchor="end" dominant-baseline="middle">3.1%</text>
    </svg>